SplineFontDB: 3.0
FontName: PropCourierSans-Bold
FullName: PropCourierSans
FamilyName: PropCourierSans
Weight: Bold
Copyright: PropCourier was designed by Manufactura Independente (Ana Carvalho & Ricardo Lafuente), in October 2010. It is a friendly fork of OSP's NotCourier.\nNotCourier was designed by OSP (Ludivine Loiseau), in July 2008. It is based on Nimbus Mono, copyright (URW)++,Copyright 1999 by (URW)++ Design & Development; Cyrillic glyphs added by Valek Filippov (C) 2001-2005
Version: 1.1
ItalicAngle: 0
UnderlinePosition: -100
UnderlineWidth: 50
Ascent: 800
Descent: 200
sfntRevision: 0x00011999
LayerCount: 2
Layer: 0 1 "Back"  1
Layer: 1 1 "Fore"  0
XUID: [1021 880 1058947518 2238347]
FSType: 0
OS2Version: 1
OS2_WeightWidthSlopeOnly: 0
OS2_UseTypoMetrics: 1
CreationTime: 1178440826
ModificationTime: 1312723001
PfmFamily: 17
TTFWeight: 700
TTFWidth: 5
LineGap: 90
VLineGap: 0
Panose: 2 11 8 9 3 1 2 2 2 3
OS2TypoAscent: 0
OS2TypoAOffset: 1
OS2TypoDescent: 0
OS2TypoDOffset: 1
OS2TypoLinegap: 90
OS2WinAscent: 0
OS2WinAOffset: 1
OS2WinDescent: 0
OS2WinDOffset: 1
HheadAscent: 0
HheadAOffset: 1
HheadDescent: 0
HheadDOffset: 1
OS2SubXSize: 2
OS2SubYSize: 0
OS2SubXOff: 29520
OS2SubYOff: 0
OS2SupXSize: 14320
OS2SupYSize: 0
OS2SupXOff: 0
OS2SupYOff: 0
OS2StrikeYSize: 0
OS2StrikeYPos: 32767
OS2Vendor: 'PfEd'
OS2CodePages: 20000097.00000000
OS2UnicodeRanges: a00002ef.5000204a.00000000.00000000
Lookup: 4 0 0 "'dlig' Discretionary Ligatures lookup 0"  {"'dlig' Discretionary Ligatures lookup 0 subtable"  } ['dlig' ('DFLT' <'dflt' > 'cyrl' <'dflt' > 'grek' <'dflt' > 'latn' <'dflt' > ) ]
Lookup: 4 0 1 "'liga' Standard Ligatures in Latin lookup 1"  {"'liga' Standard Ligatures in Latin lookup 1 subtable"  } ['liga' ('latn' <'dflt' > ) ]
Lookup: 4 0 0 "'ornm' Ornaments lookup 2"  {"'ornm' Ornaments lookup 2 subtable"  } ['ornm' ('DFLT' <'dflt' > 'cyrl' <'dflt' > 'grek' <'dflt' > 'latn' <'dflt' > ) ]

StartChar: .notdef
Encoding: 65536 -1 0
Width: 364
Flags: W
LayerCount: 2
Fore
SplineSet
33 0 m 1,0,-1
 33 666 l 1,1,-1
 298 666 l 1,2,-1
 298 0 l 1,3,-1
 33 0 l 1,0,-1
66 33 m 1,4,-1
 265 33 l 1,5,-1
 265 633 l 1,6,-1
 66 633 l 1,7,-1
 66 33 l 1,4,-1
EndSplineSet
EndChar

StartChar: exclam
Encoding: 33 33 4
Width: 377
GlyphClass: 2
Flags: W
LayerCount: 2
Fore
SplineSet
267 525 m 2,0,-1
 238 228 l 2,1,2
 233 179 233 179 189 179 c 0,3,4
 168 179 168 179 154.5 192 c 128,-1,5
 141 205 141 205 139 228 c 2,6,-1
 110 525 l 2,7,8
 108 549 108 549 108 558 c 0,9,10
 108 593 108 593 131 615.5 c 128,-1,11
 154 638 154 638 189 638 c 128,-1,12
 224 638 224 638 246.5 615 c 128,-1,13
 269 592 269 592 269 558 c 0,14,15
 269 551 269 551 267 525 c 2,0,-1
197 -15 m 2,16,-1
 180 -15 l 2,17,18
 152 -15 152 -15 132.5 4.5 c 128,-1,19
 113 24 113 24 113 51 c 128,-1,20
 113 78 113 78 132.5 97.5 c 128,-1,21
 152 117 152 117 180 117 c 2,22,-1
 197 117 l 2,23,24
 225 117 225 117 244 98 c 128,-1,25
 263 79 263 79 263 51 c 128,-1,26
 263 23 263 23 244 4 c 128,-1,27
 225 -15 225 -15 197 -15 c 2,16,-1
EndSplineSet
EndChar

StartChar: quotedbl
Encoding: 34 34 5
Width: 474
GlyphClass: 2
Flags: W
LayerCount: 2
Fore
SplineSet
73 602 m 1,0,-1
 201 602 l 1,1,-1
 170 348 l 2,2,3
 167 328 167 328 160 320 c 128,-1,4
 153 312 153 312 138 312 c 0,5,6
 111 312 111 312 107 347 c 2,7,-1
 73 602 l 1,0,-1
273 602 m 1,8,-1
 401 602 l 1,9,-1
 370 348 l 2,10,11
 367 328 367 328 360 320 c 128,-1,12
 353 312 353 312 338 312 c 0,13,14
 311 312 311 312 307 347 c 2,15,-1
 273 602 l 1,8,-1
EndSplineSet
EndChar

StartChar: numbersign
Encoding: 35 35 6
Width: 580
GlyphClass: 2
Flags: W
LayerCount: 2
Fore
SplineSet
437 444 m 1,0,-1
 462 444 l 2,1,2
 494 444 494 444 507 435 c 0,3,4
 528 419 528 419 528 394 c 0,5,6
 528 365 528 365 504 351 c 0,7,8
 491 344 491 344 462 344 c 2,9,-1
 430 344 l 1,10,-1
 422 238 l 1,11,-1
 441 238 l 2,12,13
 475 238 475 238 487 229 c 0,14,15
 508 213 508 213 508 188 c 0,16,17
 508 160 508 160 484 146 c 0,18,19
 471 139 471 139 442 139 c 2,20,-1
 415 139 l 1,21,-1
 404 -29 l 2,22,23
 402 -60 402 -60 391 -73 c 0,24,25
 375 -92 375 -92 352 -92 c 0,26,27
 333 -92 333 -92 318 -77.5 c 128,-1,28
 303 -63 303 -63 303 -44 c 0,29,30
 303 -43 303 -43 303 -41 c 2,31,-1
 305 -22 l 1,32,-1
 316 139 l 1,33,-1
 244 139 l 1,34,-1
 232 -29 l 1,35,36
 232 -92 232 -92 182 -92 c 0,37,38
 160 -92 160 -92 146 -77.5 c 128,-1,39
 132 -63 132 -63 132 -40 c 0,40,41
 132 -29 132 -29 133 -22 c 2,42,-1
 144 139 l 1,43,-1
 118 139 l 2,44,45
 86 139 86 139 73 148 c 0,46,47
 52 164 52 164 52 189 c 0,48,49
 52 217 52 217 76 231 c 1,50,51
 86 238 86 238 118 238 c 2,52,-1
 151 238 l 1,53,-1
 158 344 l 1,54,-1
 139 344 l 2,55,56
 106 344 106 344 93 353 c 0,57,58
 72 369 72 369 72 394 c 0,59,60
 72 423 72 423 96 437 c 1,61,62
 106 444 106 444 139 444 c 2,63,-1
 165 444 l 1,64,-1
 177 612 l 1,65,66
 178 642 178 642 188 656 c 1,67,68
 204 675 204 675 228 675 c 0,69,70
 249 675 249 675 263.5 660 c 128,-1,71
 278 645 278 645 278 625 c 0,72,73
 278 624 278 624 278 623 c 2,74,-1
 277 605 l 1,75,-1
 266 444 l 1,76,-1
 337 444 l 1,77,-1
 349 612 l 1,78,79
 350 644 350 644 360 656 c 0,80,81
 376 675 376 675 400 675 c 0,82,83
 419 675 419 675 434.5 660.5 c 128,-1,84
 450 646 450 646 450 630 c 0,85,86
 450 628 450 628 450 627 c 2,87,-1
 448 605 l 1,88,-1
 437 444 l 1,0,-1
330 344 m 1,89,-1
 259 344 l 1,90,-1
 251 238 l 1,91,-1
 323 238 l 1,92,-1
 330 344 l 1,89,-1
EndSplineSet
EndChar

StartChar: dollar
Encoding: 36 36 7
Width: 546
GlyphClass: 2
Flags: W
LayerCount: 2
Fore
SplineSet
464 438 m 0,0,1
 449 417 449 417 423 417 c 0,2,3
 380 417 380 417 371 459 c 0,4,5
 369 473 369 473 343.5 484 c 128,-1,6
 318 495 318 495 287 495 c 0,7,8
 242 495 242 495 215 478 c 128,-1,9
 188 461 188 461 188 433 c 0,10,11
 188 392 188 392 263 377 c 1,12,-1
 328 363 l 2,13,14
 415 345 415 345 452 308 c 0,15,16
 494 266 494 266 494 199 c 0,17,18
 494 134 494 134 450 88 c 128,-1,19
 406 42 406 42 328 27 c 1,20,-1
 328 -56 l 2,21,22
 328 -91 328 -91 319 -102 c 0,23,24
 303 -123 303 -123 279 -123 c 0,25,26
 250 -123 250 -123 236 -99 c 0,27,28
 229 -88 229 -88 229 -56 c 2,29,-1
 229 27 l 1,30,31
 192 35 192 35 150 52 c 0,32,33
 116 66 116 66 88 102.5 c 128,-1,34
 60 139 60 139 60 174 c 0,35,36
 60 193 60 193 69 208 c 0,37,38
 82 229 82 229 110 229 c 0,39,40
 130 229 130 229 146 215 c 1,41,42
 153 207 153 207 161 180 c 0,43,44
 167 157 167 157 201.5 140.5 c 128,-1,45
 236 124 236 124 277 124 c 0,46,47
 326 124 326 124 358 146 c 128,-1,48
 390 168 390 168 390 200 c 0,49,50
 390 226 390 226 371 241.5 c 128,-1,51
 352 257 352 257 310 265 c 2,52,-1
 236 280 l 2,53,54
 84 311 84 311 84 435 c 0,55,56
 84 494 84 494 124.5 537.5 c 128,-1,57
 165 581 165 581 229 592 c 1,58,-1
 229 618 l 2,59,60
 229 650 229 650 238 664 c 1,61,62
 255 684 255 684 279 684 c 0,63,64
 307 684 307 684 321 660 c 1,65,66
 328 650 328 650 328 618 c 2,67,-1
 328 592 l 1,68,69
 378 583 378 583 395 574 c 0,70,71
 430 555 430 555 451.5 525 c 128,-1,72
 473 495 473 495 473 467 c 0,73,74
 473 450 473 450 464 438 c 0,0,1
EndSplineSet
EndChar

StartChar: percent
Encoding: 37 37 8
Width: 489
GlyphClass: 2
Flags: W
LayerCount: 2
Fore
SplineSet
172 617 m 0,0,1
 231 617 231 617 271.5 576 c 128,-1,2
 312 535 312 535 312 476 c 0,3,4
 312 420 312 420 271 379 c 128,-1,5
 230 338 230 338 173 338 c 0,6,7
 115 338 115 338 74 379 c 128,-1,8
 33 420 33 420 33 478 c 0,9,10
 33 535 33 535 74 576 c 128,-1,11
 115 617 115 617 172 617 c 0,0,1
172 552 m 0,12,13
 142 552 142 552 120 530 c 128,-1,14
 98 508 98 508 98 478 c 0,15,16
 98 447 98 447 120 425 c 128,-1,17
 142 403 142 403 172 403 c 0,18,19
 203 403 203 403 225 425 c 128,-1,20
 247 447 247 447 247 477 c 0,21,22
 247 508 247 508 225.5 530 c 128,-1,23
 204 552 204 552 172 552 c 0,12,13
435 331 m 1,24,-1
 73 213 l 2,25,26
 59 209 59 209 53 209 c 0,27,28
 42 209 42 209 33 218.5 c 128,-1,29
 24 228 24 228 24 241 c 0,30,31
 24 262 24 262 54 272 c 2,32,-1
 416 390 l 2,33,34
 428 394 428 394 436 394 c 0,35,36
 447 394 447 394 456 384.5 c 128,-1,37
 465 375 465 375 465 362 c 0,38,39
 465 339 465 339 435 331 c 1,24,-1
312 264 m 0,40,41
 371 264 371 264 411.5 223 c 128,-1,42
 452 182 452 182 452 123 c 0,43,44
 452 67 452 67 411 26 c 128,-1,45
 370 -15 370 -15 312 -15 c 0,46,47
 255 -15 255 -15 214 26 c 128,-1,48
 173 67 173 67 173 125 c 0,49,50
 173 182 173 182 214 223 c 128,-1,51
 255 264 255 264 312 264 c 0,40,41
312 199 m 0,52,53
 282 199 282 199 260 177 c 128,-1,54
 238 155 238 155 238 125 c 0,55,56
 238 94 238 94 260 72 c 128,-1,57
 282 50 282 50 313 50 c 0,58,59
 343 50 343 50 365 72 c 128,-1,60
 387 94 387 94 387 124 c 0,61,62
 387 156 387 156 365.5 177.5 c 128,-1,63
 344 199 344 199 312 199 c 0,52,53
EndSplineSet
EndChar

StartChar: ampersand
Encoding: 38 38 9
Width: 503
GlyphClass: 2
Flags: W
LayerCount: 2
Fore
SplineSet
405 100 m 1,0,-1
 471 0 l 1,1,-1
 352 0 l 1,2,-1
 341 15 l 1,3,4
 300 -14 300 -14 228 -14 c 0,5,6
 145 -14 145 -14 95.5 29 c 128,-1,7
 46 72 46 72 46 144 c 0,8,9
 46 247 46 247 142 303 c 1,10,11
 108 361 108 361 108 399 c 0,12,13
 108 460 108 460 153.5 505 c 128,-1,14
 199 550 199 550 260 550 c 0,15,16
 278 550 278 550 298 545.5 c 128,-1,17
 318 541 318 541 350.5 519 c 128,-1,18
 383 497 383 497 406 460 c 1,19,-1
 324 416 l 1,20,21
 286 450 286 450 261 450 c 0,22,23
 239 450 239 450 223.5 435.5 c 128,-1,24
 208 421 208 421 208 400 c 0,25,26
 208 383 208 383 236 343 c 2,27,-1
 336 198 l 1,28,-1
 359 280 l 1,29,-1
 458 280 l 1,30,31
 433 151 433 151 405 100 c 1,0,-1
283 100 m 1,32,-1
 199 220 l 1,33,34
 146 196 146 196 146 144 c 0,35,36
 146 86 146 86 228 86 c 0,37,38
 259 86 259 86 283 100 c 1,32,-1
EndSplineSet
EndChar

StartChar: quotesingle
Encoding: 39 39 10
Width: 274
GlyphClass: 2
Flags: W
LayerCount: 2
Fore
SplineSet
73 602 m 1,0,-1
 201 602 l 1,1,-1
 170 348 l 2,2,3
 167 328 167 328 160 320 c 128,-1,4
 153 312 153 312 138 312 c 0,5,6
 111 312 111 312 107 347 c 2,7,-1
 73 602 l 1,0,-1
EndSplineSet
EndChar

StartChar: parenleft
Encoding: 40 40 11
Width: 351
GlyphClass: 2
Flags: W
LayerCount: 2
Fore
SplineSet
239 632 m 0,0,1
 261 632 261 632 275.5 617.5 c 128,-1,2
 290 603 290 603 290 583 c 0,3,4
 290 568 290 568 278 549 c 0,5,6
 177 387 177 387 177 240 c 0,7,8
 177 94 177 94 278 -70 c 0,9,10
 290 -89 290 -89 290 -104 c 0,11,12
 290 -124 290 -124 275.5 -138.5 c 128,-1,13
 261 -153 261 -153 239 -153 c 0,14,15
 221 -153 221 -153 208 -141.5 c 128,-1,16
 195 -130 195 -130 173 -95 c 0,17,18
 66 75 66 75 66 243 c 0,19,20
 66 323 66 323 96.5 414 c 128,-1,21
 127 505 127 505 182 587 c 0,22,23
 199 614 199 614 210.5 623 c 128,-1,24
 222 632 222 632 239 632 c 0,0,1
EndSplineSet
EndChar

StartChar: parenright
Encoding: 41 41 12
Width: 351
GlyphClass: 2
Flags: W
LayerCount: 2
Fore
SplineSet
112 632 m 0,0,1
 130 632 130 632 143 620.5 c 128,-1,2
 156 609 156 609 178 574 c 0,3,4
 285 404 285 404 285 236 c 0,5,6
 285 156 285 156 254.5 64.5 c 128,-1,7
 224 -27 224 -27 169 -109 c 0,8,9
 152 -135 152 -135 140.5 -144 c 128,-1,10
 129 -153 129 -153 112 -153 c 0,11,12
 90 -153 90 -153 75.5 -138.5 c 128,-1,13
 61 -124 61 -124 61 -104 c 0,14,15
 61 -89 61 -89 73 -70 c 0,16,17
 174 92 174 92 174 239 c 0,18,19
 174 385 174 385 73 549 c 0,20,21
 61 568 61 568 61 583 c 0,22,23
 61 603 61 603 75.5 617.5 c 128,-1,24
 90 632 90 632 112 632 c 0,0,1
EndSplineSet
EndChar

StartChar: asterisk
Encoding: 42 42 13
Width: 464
GlyphClass: 2
Flags: W
LayerCount: 2
Fore
SplineSet
151 372 m 1,0,-1
 65 400 l 1,1,2
 37 408 37 408 26 420 c 128,-1,3
 15 432 15 432 15 452 c 128,-1,4
 15 472 15 472 29 487 c 128,-1,5
 43 502 43 502 62 502 c 0,6,7
 72 502 72 502 96 495 c 2,8,-1
 182 467 l 1,9,-1
 182 556 l 2,10,11
 182 589 182 589 191 601 c 0,12,13
 207 622 207 622 232 622 c 0,14,15
 261 622 261 622 275 598 c 0,16,17
 282 585 282 585 282 556 c 2,18,-1
 282 467 l 1,19,-1
 368 495 l 2,20,21
 392 502 392 502 401 502 c 0,22,23
 420 502 420 502 434.5 487 c 128,-1,24
 449 472 449 472 449 452 c 0,25,26
 449 415 449 415 399 400 c 1,27,-1
 313 372 l 1,28,-1
 365 301 l 2,29,30
 384 274 384 274 384 258 c 0,31,32
 384 238 384 238 369 223 c 128,-1,33
 354 208 354 208 334 208 c 0,34,35
 318 208 318 208 309 214.5 c 128,-1,36
 300 221 300 221 284 242 c 2,37,-1
 232 314 l 1,38,-1
 180 242 l 2,39,40
 165 221 165 221 155 214.5 c 128,-1,41
 145 208 145 208 130 208 c 0,42,43
 110 208 110 208 95 223 c 128,-1,44
 80 238 80 238 80 258 c 0,45,46
 80 273 80 273 99 301 c 1,47,-1
 151 372 l 1,0,-1
EndSplineSet
EndChar

StartChar: plus
Encoding: 43 43 14
Width: 678
GlyphClass: 2
Flags: W
LayerCount: 2
Fore
SplineSet
389 230 m 1,0,-1
 389 66 l 2,1,2
 389 34 389 34 380 21 c 0,3,4
 364 0 364 0 339 0 c 0,5,6
 310 0 310 0 296 24 c 0,7,8
 289 37 289 37 289 66 c 2,9,-1
 289 230 l 1,10,-1
 147 230 l 2,11,12
 114 230 114 230 102 239 c 0,13,14
 81 255 81 255 81 280 c 0,15,16
 81 309 81 309 105 323 c 1,17,18
 115 330 115 330 147 330 c 2,19,-1
 289 330 l 1,20,-1
 289 494 l 2,21,22
 289 528 289 528 299 539 c 1,23,24
 313 560 313 560 339 560 c 0,25,26
 368 560 368 560 382 536 c 1,27,28
 389 526 389 526 389 494 c 2,29,-1
 389 330 l 1,30,-1
 530 330 l 2,31,32
 563 330 563 330 576 321 c 0,33,34
 597 305 597 305 597 280 c 0,35,36
 597 251 597 251 573 237 c 0,37,38
 562 230 562 230 530 230 c 2,39,-1
 389 230 l 1,0,-1
EndSplineSet
EndChar

StartChar: comma
Encoding: 44 44 15
Width: 323
GlyphClass: 2
Flags: W
LayerCount: 2
Fore
SplineSet
113 134 m 1,0,-1
 245 134 l 1,1,-1
 104 -134 l 2,2,3
 92 -158 92 -158 72 -158 c 0,4,5
 59 -158 59 -158 50 -149.5 c 128,-1,6
 41 -141 41 -141 41 -130 c 0,7,8
 41 -122 41 -122 44 -111 c 2,9,-1
 113 134 l 1,0,-1
EndSplineSet
EndChar

StartChar: hyphen
Encoding: 45 45 16
Width: 598
GlyphClass: 2
Flags: W
LayerCount: 2
Fore
SplineSet
491 229 m 2,0,-1
 107 229 l 2,1,2
 74 229 74 229 62 238 c 0,3,4
 41 254 41 254 41 279 c 0,5,6
 41 306 41 306 65 322 c 0,7,8
 75 329 75 329 107 329 c 2,9,-1
 491 329 l 2,10,11
 524 329 524 329 537 320 c 0,12,13
 557 305 557 305 557 279 c 0,14,15
 557 250 557 250 533 236 c 0,16,17
 522 229 522 229 491 229 c 2,0,-1
EndSplineSet
EndChar

StartChar: period
Encoding: 46 46 17
Width: 306
GlyphClass: 2
Flags: W
LayerCount: 2
Fore
SplineSet
162 -15 m 2,0,-1
 144 -15 l 2,1,2
 117 -15 117 -15 97.5 4.5 c 128,-1,3
 78 24 78 24 78 51 c 128,-1,4
 78 78 78 78 97.5 97.5 c 128,-1,5
 117 117 117 117 144 117 c 2,6,-1
 162 117 l 2,7,8
 190 117 190 117 209 98 c 128,-1,9
 228 79 228 79 228 51 c 128,-1,10
 228 23 228 23 209 4 c 128,-1,11
 190 -15 190 -15 162 -15 c 2,0,-1
EndSplineSet
EndChar

StartChar: slash
Encoding: 47 47 18
Width: 434
GlyphClass: 2
Flags: W
LayerCount: 2
Fore
SplineSet
422 610 m 2,0,-1
 102 -69 l 2,1,2
 91 -94 91 -94 79.5 -103.5 c 128,-1,3
 68 -113 68 -113 50 -113 c 0,4,5
 30 -113 30 -113 15 -98.5 c 128,-1,6
 0 -84 0 -84 0 -65 c 0,7,8
 0 -51 0 -51 12 -27 c 2,9,-1
 333 651 l 2,10,11
 344 676 344 676 355 685.5 c 128,-1,12
 366 695 366 695 384 695 c 0,13,14
 404 695 404 695 419 680.5 c 128,-1,15
 434 666 434 666 434 647 c 0,16,17
 434 634 434 634 422 610 c 2,0,-1
EndSplineSet
EndChar

StartChar: zero
Encoding: 48 48 19
Width: 506
GlyphClass: 2
Flags: W
LayerCount: 2
Fore
SplineSet
470 359 m 2,0,-1
 470 264 l 2,1,2
 470 121 470 121 392 40 c 0,3,4
 340 -15 340 -15 253 -15 c 128,-1,5
 166 -15 166 -15 114 40 c 0,6,7
 36 121 36 121 36 264 c 2,8,-1
 36 359 l 2,9,10
 36 502 36 502 114 583 c 0,11,12
 166 638 166 638 253 638 c 128,-1,13
 340 638 340 638 392 583 c 0,14,15
 470 502 470 502 470 359 c 2,0,-1
136 366 m 2,16,-1
 136 257 l 2,17,18
 136 179 136 179 168 132 c 128,-1,19
 200 85 200 85 253 85 c 128,-1,20
 306 85 306 85 338 132 c 128,-1,21
 370 179 370 179 370 257 c 2,22,-1
 370 366 l 2,23,24
 370 444 370 444 338 491 c 128,-1,25
 306 538 306 538 253 538 c 128,-1,26
 200 538 200 538 168 491 c 128,-1,27
 136 444 136 444 136 366 c 2,16,-1
EndSplineSet
EndChar

StartChar: one
Encoding: 49 49 20
Width: 405
GlyphClass: 2
Flags: W
LayerCount: 2
Fore
SplineSet
252 0 m 1,0,-1
 252 509 l 1,1,-1
 165 486 l 2,2,3
 142 480 142 480 133 480 c 0,4,5
 114 480 114 480 100.5 495 c 128,-1,6
 87 510 87 510 87 532 c 128,-1,7
 87 554 87 554 98.5 564.5 c 128,-1,8
 110 575 110 575 140 583 c 2,9,-1
 352 638 l 1,10,-1
 352 0 l 1,11,-1
 252 0 l 1,0,-1
EndSplineSet
EndChar

StartChar: two
Encoding: 50 50 21
Width: 582
GlyphClass: 2
Flags: W
LayerCount: 2
Fore
SplineSet
515 100 m 1,0,-1
 515 0 l 1,1,-1
 61 0 l 1,2,-1
 61 105 l 1,3,4
 245 257 245 257 293 301 c 0,5,6
 368 369 368 369 389 395.5 c 128,-1,7
 410 422 410 422 410 448 c 0,8,9
 410 486 410 486 377 512 c 128,-1,10
 344 538 344 538 295 538 c 0,11,12
 233 538 233 538 198 497 c 0,13,14
 187 484 187 484 176 451 c 0,15,16
 167 422 167 422 131 422 c 0,17,18
 111 422 111 422 96 436.5 c 128,-1,19
 81 451 81 451 81 470 c 0,20,21
 81 494 81 494 98.5 526.5 c 128,-1,22
 116 559 116 559 141 582 c 0,23,24
 203 638 203 638 297 638 c 0,25,26
 388 638 388 638 449 582.5 c 128,-1,27
 510 527 510 527 510 444 c 0,28,29
 510 395 510 395 485.5 356.5 c 128,-1,30
 461 318 461 318 387 251 c 0,31,32
 361 227 361 227 214 100 c 1,33,-1
 515 100 l 1,0,-1
EndSplineSet
EndChar

StartChar: three
Encoding: 51 51 22
Width: 575
GlyphClass: 2
Flags: W
LayerCount: 2
Fore
SplineSet
261 383 m 2,0,-1
 301 383 l 2,1,2
 338 383 338 383 365 406.5 c 128,-1,3
 392 430 392 430 392 462 c 0,4,5
 392 497 392 497 362 517.5 c 128,-1,6
 332 538 332 538 280 538 c 0,7,8
 239 538 239 538 214 528 c 128,-1,9
 189 518 189 518 165 492 c 0,10,11
 150 477 150 477 129 477 c 0,12,13
 109 477 109 477 94.5 492 c 128,-1,14
 80 507 80 507 80 527 c 0,15,16
 80 570 80 570 143 604 c 128,-1,17
 206 638 206 638 286 638 c 0,18,19
 385 638 385 638 442 580 c 1,20,21
 492 532 492 532 492 464 c 0,22,23
 492 423 492 423 471 392.5 c 128,-1,24
 450 362 450 362 401 333 c 1,25,26
 514 278 514 278 514 182 c 0,27,28
 514 90 514 90 440 32 c 1,29,30
 377 -15 377 -15 256 -15 c 0,31,32
 164 -15 164 -15 107.5 8.5 c 128,-1,33
 51 32 51 32 51 70 c 0,34,35
 51 91 51 91 65.5 105.5 c 128,-1,36
 80 120 80 120 101 120 c 0,37,38
 114 120 114 120 133 108 c 0,39,40
 168 85 168 85 253 85 c 0,41,42
 348 85 348 85 386 119 c 0,43,44
 414 145 414 145 414 183 c 0,45,46
 414 211 414 211 393.5 235.5 c 128,-1,47
 373 260 373 260 338 274 c 0,48,49
 313 285 313 285 261 287 c 0,50,51
 209 290 209 290 209 333 c 0,52,53
 209 355 209 355 223.5 369 c 128,-1,54
 238 383 238 383 261 383 c 2,0,-1
EndSplineSet
EndChar

StartChar: four
Encoding: 52 52 23
Width: 502
GlyphClass: 2
Flags: W
LayerCount: 2
Fore
SplineSet
306 0 m 1,0,-1
 306 138 l 1,1,-1
 34 138 l 1,2,-1
 34 221 l 1,3,-1
 275 622 l 1,4,-1
 406 622 l 1,5,-1
 406 238 l 1,6,7
 467 238 467 238 467 188 c 0,8,9
 467 140 467 140 406 138 c 1,10,-1
 406 0 l 1,11,-1
 306 0 l 1,0,-1
306 238 m 1,12,-1
 306 480 l 1,13,-1
 156 238 l 1,14,-1
 306 238 l 1,12,-1
EndSplineSet
EndChar

StartChar: five
Encoding: 53 53 24
Width: 575
GlyphClass: 2
Flags: W
LayerCount: 2
Fore
SplineSet
212 522 m 1,0,-1
 212 407 l 1,1,2
 268 424 268 424 311 424 c 0,3,4
 402 424 402 424 462 361 c 128,-1,5
 522 298 522 298 522 202 c 0,6,7
 522 113 522 113 467 53 c 0,8,9
 405 -15 405 -15 271 -15 c 0,10,11
 181 -15 181 -15 120 13.5 c 128,-1,12
 59 42 59 42 59 84 c 0,13,14
 59 104 59 104 74 118.5 c 128,-1,15
 89 133 89 133 109 133 c 0,16,17
 126 133 126 133 145 118 c 0,18,19
 168 99 168 99 194.5 92 c 128,-1,20
 221 85 221 85 270 85 c 0,21,22
 348 85 348 85 385 113.5 c 128,-1,23
 422 142 422 142 422 201 c 0,24,25
 422 256 422 256 391 290 c 128,-1,26
 360 324 360 324 310 324 c 0,27,28
 256 324 256 324 190 290 c 0,29,30
 173 282 173 282 162 282 c 0,31,32
 140 282 140 282 126 298 c 128,-1,33
 112 314 112 314 112 338 c 2,34,-1
 112 622 l 1,35,-1
 414 622 l 2,36,37
 446 622 446 622 460 613 c 1,38,39
 480 596 480 596 480 572 c 0,40,41
 480 543 480 543 456 529 c 1,42,43
 446 522 446 522 414 522 c 2,44,-1
 212 522 l 1,0,-1
EndSplineSet
EndChar

StartChar: six
Encoding: 54 54 25
Width: 523
GlyphClass: 2
Flags: W
LayerCount: 2
Fore
SplineSet
150 324 m 1,0,1
 186 362 186 362 217.5 378 c 128,-1,2
 249 394 249 394 287 394 c 0,3,4
 366 394 366 394 421.5 334 c 128,-1,5
 477 274 477 274 477 189 c 0,6,7
 477 101 477 101 425 44 c 0,8,9
 372 -15 372 -15 273 -15 c 0,10,11
 148 -15 148 -15 91 87 c 1,12,13
 47 168 47 168 47 285 c 0,14,15
 47 417 47 417 124 514 c 1,16,17
 225 638 225 638 365 638 c 0,18,19
 418 638 418 638 450 620 c 128,-1,20
 482 602 482 602 482 573 c 0,21,22
 482 552 482 552 467 537 c 128,-1,23
 452 522 452 522 431 522 c 0,24,25
 417 522 417 522 396 530 c 0,26,27
 382 535 382 535 371 535 c 0,28,29
 292 535 292 535 229.5 475.5 c 128,-1,30
 167 416 167 416 150 324 c 1,0,1
160 209 m 1,31,32
 171 144 171 144 199 114.5 c 128,-1,33
 227 85 227 85 276 85 c 0,34,35
 323 85 323 85 350 113 c 128,-1,36
 377 141 377 141 377 190 c 0,37,38
 377 233 377 233 349 263.5 c 128,-1,39
 321 294 321 294 280 294 c 0,40,41
 248 294 248 294 214 270 c 128,-1,42
 180 246 180 246 160 209 c 1,31,32
EndSplineSet
EndChar

StartChar: seven
Encoding: 55 55 26
Width: 545
GlyphClass: 2
Flags: W
LayerCount: 2
Fore
SplineSet
51 522 m 1,0,-1
 51 622 l 1,1,-1
 484 622 l 1,2,-1
 484 523 l 1,3,-1
 325 48 l 2,4,5
 315 21 315 21 303.5 10 c 128,-1,6
 292 -1 292 -1 273 -1 c 0,7,8
 253 -1 253 -1 237.5 13.5 c 128,-1,9
 222 28 222 28 222 47 c 0,10,11
 222 57 222 57 229 81 c 1,12,-1
 379 522 l 1,13,-1
 51 522 l 1,0,-1
EndSplineSet
EndChar

StartChar: eight
Encoding: 56 56 27
Width: 528
GlyphClass: 2
Flags: W
LayerCount: 2
Fore
SplineSet
384 319 m 1,0,1
 481 258 481 258 481 165 c 0,2,3
 481 85 481 85 420.5 35 c 128,-1,4
 360 -15 360 -15 263 -15 c 0,5,6
 167 -15 167 -15 107 35 c 128,-1,7
 47 85 47 85 47 165 c 0,8,9
 47 258 47 258 144 319 c 1,10,11
 56 378 56 378 56 455 c 128,-1,12
 56 532 56 532 116.5 585 c 128,-1,13
 177 638 177 638 264 638 c 0,14,15
 350 638 350 638 411 585 c 128,-1,16
 472 532 472 532 472 457 c 0,17,18
 472 378 472 378 384 319 c 1,0,1
264 538 m 128,-1,20
 216 538 216 538 186 513.5 c 128,-1,21
 156 489 156 489 156 451 c 128,-1,22
 156 413 156 413 186.5 388.5 c 128,-1,23
 217 364 217 364 264 364 c 128,-1,24
 311 364 311 364 341.5 388 c 128,-1,25
 372 412 372 412 372 450 c 0,26,27
 372 489 372 489 342 513.5 c 128,-1,19
 312 538 312 538 264 538 c 128,-1,20
264 263 m 0,28,29
 216 263 216 263 181.5 236.5 c 128,-1,30
 147 210 147 210 147 173 c 0,31,32
 147 135 147 135 180 110 c 128,-1,33
 213 85 213 85 264 85 c 128,-1,34
 315 85 315 85 348 109.5 c 128,-1,35
 381 134 381 134 381 172 c 128,-1,36
 381 210 381 210 347 236.5 c 128,-1,37
 313 263 313 263 264 263 c 0,28,29
EndSplineSet
EndChar

StartChar: nine
Encoding: 57 57 28
Width: 523
GlyphClass: 2
Flags: W
LayerCount: 2
Fore
SplineSet
371 299 m 1,0,1
 305 229 305 229 235 229 c 0,2,3
 156 229 156 229 100 289 c 128,-1,4
 44 349 44 349 44 434 c 0,5,6
 44 522 44 522 96 579 c 0,7,8
 149 638 149 638 248 638 c 0,9,10
 373 638 373 638 430 536 c 0,11,12
 474 456 474 456 474 338 c 0,13,14
 474 206 474 206 397 109 c 1,15,16
 296 -15 296 -15 156 -15 c 0,17,18
 103 -15 103 -15 71 3 c 128,-1,19
 39 21 39 21 39 50 c 0,20,21
 39 71 39 71 54 86 c 128,-1,22
 69 101 69 101 90 101 c 0,23,24
 104 101 104 101 125 93 c 0,25,26
 139 88 139 88 150 88 c 0,27,28
 229 88 229 88 291.5 147.5 c 128,-1,29
 354 207 354 207 371 299 c 1,0,1
361 414 m 1,30,31
 350 479 350 479 322 508.5 c 128,-1,32
 294 538 294 538 245 538 c 0,33,34
 198 538 198 538 171 510 c 128,-1,35
 144 482 144 482 144 433 c 0,36,37
 144 390 144 390 172 359.5 c 128,-1,38
 200 329 200 329 241 329 c 0,39,40
 273 329 273 329 307 353 c 128,-1,41
 341 377 341 377 361 414 c 1,30,31
EndSplineSet
EndChar

StartChar: colon
Encoding: 58 58 29
Width: 322
GlyphClass: 2
Flags: W
LayerCount: 2
Fore
SplineSet
170 -15 m 2,0,-1
 152 -15 l 2,1,2
 125 -15 125 -15 105.5 4.5 c 128,-1,3
 86 24 86 24 86 51 c 128,-1,4
 86 78 86 78 105.5 97.5 c 128,-1,5
 125 117 125 117 152 117 c 2,6,-1
 170 117 l 2,7,8
 198 117 198 117 217 98 c 128,-1,9
 236 79 236 79 236 51 c 128,-1,10
 236 23 236 23 217 4 c 128,-1,11
 198 -15 198 -15 170 -15 c 2,0,-1
170 304 m 2,12,-1
 152 304 l 2,13,14
 125 304 125 304 105.5 323.5 c 128,-1,15
 86 343 86 343 86 370 c 0,16,17
 86 398 86 398 105.5 417.5 c 128,-1,18
 125 437 125 437 152 437 c 2,19,-1
 170 437 l 2,20,21
 198 437 198 437 217 417.5 c 128,-1,22
 236 398 236 398 236 370 c 128,-1,23
 236 342 236 342 217 323 c 128,-1,24
 198 304 198 304 170 304 c 2,12,-1
EndSplineSet
EndChar

StartChar: semicolon
Encoding: 59 59 30
Width: 338
GlyphClass: 2
Flags: W
LayerCount: 2
Fore
SplineSet
120 134 m 1,0,-1
 252 134 l 1,1,-1
 111 -134 l 2,2,3
 99 -158 99 -158 79 -158 c 0,4,5
 66 -158 66 -158 57 -149.5 c 128,-1,6
 48 -141 48 -141 48 -130 c 0,7,8
 48 -122 48 -122 51 -111 c 2,9,-1
 120 134 l 1,0,-1
177 437 m 128,-1,11
 211 437 211 437 231.5 419 c 128,-1,12
 252 401 252 401 252 370 c 0,13,14
 252 340 252 340 231.5 322 c 128,-1,15
 211 304 211 304 177 304 c 128,-1,16
 143 304 143 304 122.5 322.5 c 128,-1,17
 102 341 102 341 102 371 c 0,18,19
 102 400 102 400 122.5 418.5 c 128,-1,10
 143 437 143 437 177 437 c 128,-1,11
EndSplineSet
EndChar

StartChar: less
Encoding: 60 60 31
Width: 664
GlyphClass: 2
Flags: W
LayerCount: 2
Fore
SplineSet
290 279 m 1,0,-1
 551 143 l 2,1,2
 583 126 583 126 583 100 c 0,3,4
 583 93 583 93 578 81 c 2,5,-1
 577 79 l 1,6,7
 566 54 566 54 541 54 c 0,8,9
 527 54 527 54 511 63 c 2,10,-1
 81 280 l 1,11,-1
 511 492 l 2,12,13
 529 501 529 501 541 501 c 0,14,15
 566 501 566 501 577 476 c 1,16,-1
 578 474 l 2,17,18
 583 464 583 464 583 455 c 0,19,20
 583 429 583 429 551 412 c 2,21,-1
 290 279 l 1,0,-1
EndSplineSet
EndChar

StartChar: equal
Encoding: 61 61 32
Width: 678
GlyphClass: 2
Flags: W
LayerCount: 2
Fore
SplineSet
147 422 m 2,0,-1
 531 422 l 2,1,2
 563 422 563 422 576 413 c 0,3,4
 597 397 597 397 597 372 c 0,5,6
 597 343 597 343 573 329 c 0,7,8
 562 322 562 322 531 322 c 2,9,-1
 147 322 l 2,10,11
 113 322 113 322 102 332 c 1,12,13
 81 347 81 347 81 372 c 0,14,15
 81 401 81 401 105 415 c 1,16,17
 115 422 115 422 147 422 c 2,0,-1
147 238 m 2,18,-1
 531 238 l 2,19,20
 563 238 563 238 576 229 c 0,21,22
 597 213 597 213 597 188 c 0,23,24
 597 159 597 159 573 145 c 0,25,26
 562 138 562 138 531 138 c 2,27,-1
 147 138 l 2,28,29
 113 138 113 138 102 148 c 1,30,31
 81 163 81 163 81 188 c 0,32,33
 81 217 81 217 105 231 c 1,34,35
 115 238 115 238 147 238 c 2,18,-1
EndSplineSet
EndChar

StartChar: greater
Encoding: 62 62 33
Width: 664
GlyphClass: 2
Flags: W
LayerCount: 2
Fore
SplineSet
374 275 m 1,0,-1
 113 412 l 1,1,2
 81 427 81 427 81 453 c 0,3,4
 81 461 81 461 86 473 c 2,5,-1
 87 475 l 2,6,7
 91 485 91 485 102 492.5 c 128,-1,8
 113 500 113 500 123 500 c 0,9,10
 137 500 137 500 153 491 c 2,11,-1
 583 274 l 1,12,-1
 153 62 l 2,13,14
 135 53 135 53 123 53 c 0,15,16
 98 53 98 53 87 78 c 1,17,-1
 86 80 l 2,18,19
 81 92 81 92 81 100 c 0,20,21
 81 125 81 125 113 142 c 2,22,-1
 374 275 l 1,0,-1
EndSplineSet
EndChar

StartChar: question
Encoding: 63 63 34
Width: 516
GlyphClass: 2
Flags: W
LayerCount: 2
Fore
SplineSet
53 539 m 1,0,1
 125 574 125 574 167 586 c 128,-1,2
 209 598 209 598 257 598 c 0,3,4
 350 598 350 598 408 545.5 c 128,-1,5
 466 493 466 493 466 409 c 0,6,7
 466 348 466 348 429.5 308 c 128,-1,8
 393 268 393 268 302 228 c 1,9,10
 296 174 296 174 252 174 c 0,11,12
 223 174 223 174 209 198 c 0,13,14
 202 211 202 211 202 240 c 2,15,-1
 202 296 l 1,16,17
 298 333 298 333 332 357.5 c 128,-1,18
 366 382 366 382 366 414 c 0,19,20
 366 451 366 451 336 474.5 c 128,-1,21
 306 498 306 498 258 498 c 0,22,23
 203 498 203 498 153 474 c 1,24,-1
 53 539 l 1,0,1
260 -15 m 2,25,-1
 243 -15 l 2,26,27
 215 -15 215 -15 195.5 4.5 c 128,-1,28
 176 24 176 24 176 51 c 128,-1,29
 176 78 176 78 195.5 97.5 c 128,-1,30
 215 117 215 117 243 117 c 2,31,-1
 260 117 l 2,32,33
 288 117 288 117 307 98 c 128,-1,34
 326 79 326 79 326 51 c 128,-1,35
 326 23 326 23 307 4 c 128,-1,36
 288 -15 288 -15 260 -15 c 2,25,-1
EndSplineSet
EndChar

StartChar: at
Encoding: 64 64 35
Width: 537
GlyphClass: 2
Flags: W
LayerCount: 2
Fore
SplineSet
381 397 m 1,0,-1
 381 429 l 2,1,2
 381 479 381 479 351.5 510 c 128,-1,3
 322 541 322 541 276 541 c 0,4,5
 213 541 213 541 171 477 c 128,-1,6
 129 413 129 413 129 317 c 2,7,-1
 129 161 l 2,8,9
 129 47 129 47 180 -24 c 1,10,11
 214 -74 214 -74 279 -74 c 0,12,13
 352 -74 352 -74 382 -42 c 0,14,15
 399 -25 399 -25 413 -25 c 0,16,17
 430 -25 430 -25 441.5 -37 c 128,-1,18
 453 -49 453 -49 453 -66 c 0,19,20
 453 -101 453 -101 400.5 -126.5 c 128,-1,21
 348 -152 348 -152 276 -152 c 0,22,23
 158 -152 158 -152 97 -45 c 1,24,25
 50 40 50 40 50 154 c 2,26,-1
 50 323 l 2,27,28
 50 452 50 452 113.5 536 c 128,-1,29
 177 620 177 620 275 620 c 0,30,31
 356 620 356 620 408 566 c 128,-1,32
 460 512 460 512 460 429 c 2,33,-1
 460 148 l 1,34,35
 483 138 483 138 483 113 c 0,36,37
 483 72 483 72 428 72 c 2,38,-1
 381 72 l 1,39,-1
 381 75 l 1,40,41
 358 72 358 72 348 72 c 0,42,43
 284 72 284 72 238 118 c 128,-1,44
 192 164 192 164 192 226 c 0,45,46
 192 296 192 296 244.5 343.5 c 128,-1,47
 297 391 297 391 381 397 c 1,0,-1
381 155 m 1,48,-1
 381 316 l 1,49,50
 331 311 331 311 301 286.5 c 128,-1,51
 271 262 271 262 271 225 c 0,52,53
 271 194 271 194 295 173.5 c 128,-1,54
 319 153 319 153 355 153 c 0,55,56
 367 153 367 153 381 155 c 1,48,-1
EndSplineSet
EndChar

StartChar: A
Encoding: 65 65 36
Width: 595
GlyphClass: 2
Flags: W
LayerCount: 2
Fore
SplineSet
3 0 m 1,0,-1
 240 583 l 1,1,-1
 352 583 l 1,2,-1
 592 0 l 1,3,-1
 476 0 l 1,4,-1
 414 158 l 1,5,-1
 176 158 l 1,6,-1
 114 0 l 1,7,-1
 3 0 l 1,0,-1
373 258 m 1,8,-1
 295 450 l 1,9,-1
 216 258 l 1,10,-1
 373 258 l 1,8,-1
EndSplineSet
EndChar

StartChar: B
Encoding: 66 66 37
Width: 601
GlyphClass: 2
Flags: W
LayerCount: 2
Fore
SplineSet
350 0 m 2,0,-1
 70 0 l 1,1,-1
 70 583 l 1,2,-1
 308 583 l 2,3,4
 393 583 393 583 448.5 536 c 128,-1,5
 504 489 504 489 504 418 c 0,6,7
 504 354 504 354 441 305 c 1,8,9
 547 252 547 252 547 160 c 0,10,11
 547 88 547 88 493 44 c 128,-1,12
 439 0 439 0 350 0 c 2,0,-1
170 342 m 1,13,-1
 283 342 l 2,14,15
 337 342 337 342 370.5 363.5 c 128,-1,16
 404 385 404 385 404 419 c 0,17,18
 404 449 404 449 377 466 c 128,-1,19
 350 483 350 483 303 483 c 2,20,-1
 170 483 l 1,21,-1
 170 342 l 1,13,-1
170 100 m 1,22,-1
 345 100 l 2,23,24
 447 100 447 100 447 154 c 0,25,26
 447 194 447 194 404 220 c 0,27,28
 367 242 367 242 305 242 c 2,29,-1
 170 242 l 1,30,-1
 170 100 l 1,22,-1
EndSplineSet
EndChar

StartChar: C
Encoding: 67 67 38
Width: 618
GlyphClass: 2
Flags: W
LayerCount: 2
Fore
SplineSet
545 388 m 0,0,1
 532 367 532 367 504 367 c 0,2,3
 483 367 483 367 469 381 c 0,4,5
 460 390 460 390 455 420 c 0,6,7
 451 438 451 438 441.5 449.5 c 128,-1,8
 432 461 432 461 411 473 c 0,9,10
 368 497 368 497 314 497 c 0,11,12
 238 497 238 497 188 445.5 c 128,-1,13
 138 394 138 394 138 315 c 2,14,-1
 138 251 l 2,15,16
 138 176 138 176 191.5 131 c 128,-1,17
 245 86 245 86 335 86 c 0,18,19
 407 86 407 86 445 109 c 0,20,21
 456 115 456 115 483 143 c 0,22,23
 499 159 499 159 519 159 c 128,-1,24
 539 159 539 159 554 144 c 128,-1,25
 569 129 569 129 569 109 c 0,26,27
 569 73 569 73 516 36 c 1,28,29
 447 -14 447 -14 332 -14 c 0,30,31
 205 -14 205 -14 121.5 60.5 c 128,-1,32
 38 135 38 135 38 249 c 2,33,-1
 38 315 l 2,34,35
 38 435 38 435 116 516 c 128,-1,36
 194 597 194 597 310 597 c 0,37,38
 381 597 381 597 452 563 c 0,39,40
 495 542 495 542 524.5 501 c 128,-1,41
 554 460 554 460 554 423 c 0,42,43
 554 403 554 403 545 388 c 0,0,1
EndSplineSet
EndChar

StartChar: D
Encoding: 68 68 39
Width: 590
GlyphClass: 2
Flags: W
LayerCount: 2
Fore
SplineSet
284 0 m 2,0,-1
 74 0 l 1,1,-1
 74 583 l 1,2,-1
 70 583 l 1,3,4
 70 583 70 583 125.5 583 c 128,-1,5
 181 583 181 583 236 583 c 2,6,-1
 292 583 l 2,7,8
 401 583 401 583 475.5 503 c 128,-1,9
 550 423 550 423 550 305 c 2,10,-1
 550 258 l 2,11,12
 550 148 550 148 480 75 c 0,13,14
 409 0 409 0 284 0 c 2,0,-1
174 100 m 1,15,-1
 285 100 l 2,16,17
 330 100 330 100 358 110 c 128,-1,18
 386 120 386 120 409 144 c 0,19,20
 450 189 450 189 450 261 c 2,21,-1
 450 307 l 2,22,23
 450 379 450 379 405 432 c 0,24,25
 361 483 361 483 284 483 c 2,26,-1
 174 483 l 1,27,-1
 174 100 l 1,15,-1
EndSplineSet
EndChar

StartChar: E
Encoding: 69 69 40
Width: 582
GlyphClass: 2
Flags: W
LayerCount: 2
Fore
SplineSet
504 583 m 1,0,-1
 504 483 l 1,1,-1
 170 483 l 1,2,-1
 170 342 l 1,3,-1
 354 342 l 1,4,-1
 354 243 l 1,5,-1
 170 243 l 1,6,-1
 170 100 l 1,7,-1
 526 100 l 1,8,-1
 526 0 l 1,9,-1
 70 0 l 1,10,-1
 70 583 l 1,11,-1
 504 583 l 1,0,-1
EndSplineSet
EndChar

StartChar: F
Encoding: 70 70 41
Width: 590
GlyphClass: 2
Flags: W
LayerCount: 2
Fore
SplineSet
170 0 m 1,0,-1
 70 0 l 1,1,-1
 70 583 l 1,2,-1
 526 583 l 1,3,-1
 526 483 l 1,4,-1
 170 483 l 1,5,-1
 170 342 l 1,6,-1
 354 342 l 1,7,-1
 354 243 l 1,8,-1
 170 243 l 1,9,-1
 170 0 l 1,0,-1
EndSplineSet
EndChar

StartChar: G
Encoding: 71 71 42
Width: 612
GlyphClass: 2
Flags: W
LayerCount: 2
Fore
SplineSet
343 180 m 1,0,-1
 343 280 l 1,1,-1
 555 279 l 1,2,-1
 555 48 l 1,3,4
 489 13 489 13 442 -0.5 c 128,-1,5
 395 -14 395 -14 336 -14 c 0,6,7
 263 -14 263 -14 202 6.5 c 128,-1,8
 141 27 141 27 104 65 c 0,9,10
 74 97 74 97 56 145.5 c 128,-1,11
 38 194 38 194 38 246 c 2,12,-1
 38 317 l 2,13,14
 38 374 38 374 60.5 427 c 128,-1,15
 83 480 83 480 122 520 c 1,16,17
 201 597 201 597 322 597 c 0,18,19
 405 597 405 597 467 565 c 0,20,21
 495 551 495 551 525.5 517 c 128,-1,22
 556 483 556 483 556 445 c 0,23,24
 556 426 556 426 546 408 c 0,25,26
 535 387 535 387 505 387 c 0,27,28
 484 387 484 387 470 402 c 0,29,30
 464 409 464 409 456 440 c 0,31,32
 449 466 449 466 413.5 481.5 c 128,-1,33
 378 497 378 497 323 497 c 0,34,35
 238 497 238 497 191 450 c 0,36,37
 167 425 167 425 152.5 389.5 c 128,-1,38
 138 354 138 354 138 317 c 2,39,-1
 138 253 l 2,40,41
 138 168 138 168 183 130 c 0,42,43
 235 86 235 86 330 86 c 0,44,45
 400 86 400 86 455 111 c 1,46,-1
 455 180 l 1,47,-1
 343 180 l 1,0,-1
EndSplineSet
EndChar

StartChar: H
Encoding: 72 72 43
Width: 554
GlyphClass: 2
Flags: W
LayerCount: 2
Fore
SplineSet
484 0 m 1,0,-1
 384 0 l 1,1,-1
 384 241 l 1,2,-1
 170 241 l 1,3,-1
 170 0 l 1,4,-1
 70 0 l 1,5,-1
 70 584 l 1,6,-1
 170 584 l 1,7,-1
 170 341 l 1,8,-1
 384 341 l 1,9,-1
 384 584 l 1,10,-1
 484 584 l 1,11,-1
 484 0 l 1,0,-1
EndSplineSet
EndChar

StartChar: I
Encoding: 73 73 44
Width: 241
GlyphClass: 2
Flags: W
LayerCount: 2
Fore
SplineSet
170 0 m 1,0,-1
 70 0 l 1,1,-1
 70 584 l 1,2,-1
 170 584 l 1,3,-1
 170 0 l 1,0,-1
EndSplineSet
EndChar

StartChar: J
Encoding: 74 74 45
Width: 464
GlyphClass: 2
Flags: W
LayerCount: 2
Fore
SplineSet
-43 51 m 1,0,-1
 57 117 l 1,1,2
 126 86 126 86 174 86 c 0,3,4
 231 86 231 86 269 122 c 0,5,6
 285 138 285 138 289 151 c 128,-1,7
 293 164 293 164 293 198 c 2,8,-1
 293 583 l 1,9,-1
 393 583 l 1,10,-1
 393 187 l 2,11,12
 393 138 393 138 378.5 105.5 c 128,-1,13
 364 73 364 73 329 42 c 0,14,15
 264 -14 264 -14 172 -14 c 0,16,17
 88 -14 88 -14 -43 51 c 1,0,-1
EndSplineSet
EndChar

StartChar: K
Encoding: 75 75 46
Width: 497
GlyphClass: 2
Flags: W
LayerCount: 2
Fore
SplineSet
170 0 m 1,0,-1
 70 0 l 1,1,-1
 70 584 l 1,2,-1
 170 584 l 1,3,-1
 170 334 l 1,4,-1
 381 583 l 1,5,6
 381 583 381 583 417 583 c 2,7,8
 417 583 417 583 520 583 c 1,9,-1
 311 330 l 1,10,11
 365 301 365 301 424.5 212 c 128,-1,12
 484 123 484 123 507 0 c 1,13,-1
 402 0 l 1,14,15
 367 107 367 107 321.5 176 c 128,-1,16
 276 245 276 245 230 259 c 1,17,-1
 170 208 l 1,18,-1
 170 0 l 1,0,-1
EndSplineSet
EndChar

StartChar: L
Encoding: 76 76 47
Width: 506
GlyphClass: 2
Flags: W
LayerCount: 2
Fore
SplineSet
70 0 m 1,0,-1
 70 583 l 1,1,-1
 170 583 l 1,2,-1
 170 100 l 1,3,-1
 485 100 l 1,4,-1
 485 0 l 1,5,-1
 70 0 l 1,0,-1
EndSplineSet
EndChar

StartChar: M
Encoding: 77 77 48
Width: 661
GlyphClass: 2
Flags: W
LayerCount: 2
Fore
SplineSet
590 583 m 1,0,-1
 590 0 l 1,1,-1
 490 0 l 1,2,-1
 490 389 l 1,3,-1
 379 138 l 1,4,-1
 288 138 l 1,5,6
 170 388 170 388 170 389 c 2,7,-1
 170 0 l 1,8,-1
 70 0 l 1,9,-1
 70 583 l 1,10,-1
 193 583 l 1,11,-1
 331 286 l 1,12,-1
 466 583 l 1,13,-1
 590 583 l 1,0,-1
EndSplineSet
EndChar

StartChar: N
Encoding: 78 78 49
Width: 598
GlyphClass: 2
Flags: W
LayerCount: 2
Fore
SplineSet
528 583 m 1,0,-1
 528 0 l 1,1,-1
 429 0 l 1,2,-1
 170 394 l 1,3,-1
 170 0 l 1,4,-1
 70 0 l 1,5,-1
 70 583 l 1,6,-1
 170 583 l 1,7,-1
 428 191 l 1,8,-1
 428 583 l 1,9,-1
 528 583 l 1,0,-1
EndSplineSet
EndChar

StartChar: O
Encoding: 79 79 50
Width: 634
GlyphClass: 2
Flags: W
LayerCount: 2
Fore
SplineSet
317 597 m 0,0,1
 420 597 420 597 502 520 c 1,2,3
 596 430 596 430 596 287 c 0,4,5
 596 164 596 164 513.5 75 c 128,-1,6
 431 -14 431 -14 317 -14 c 0,7,8
 201 -14 201 -14 119.5 75.5 c 128,-1,9
 38 165 38 165 38 292 c 0,10,11
 38 418 38 418 120 507.5 c 128,-1,12
 202 597 202 597 317 597 c 0,0,1
317 497 m 0,13,14
 244 497 244 497 191 436.5 c 128,-1,15
 138 376 138 376 138 292 c 0,16,17
 138 207 138 207 190.5 146.5 c 128,-1,18
 243 86 243 86 317 86 c 0,19,20
 390 86 390 86 443 146 c 128,-1,21
 496 206 496 206 496 289 c 0,22,23
 496 375 496 375 443.5 436 c 128,-1,24
 391 497 391 497 317 497 c 0,13,14
EndSplineSet
EndChar

StartChar: P
Encoding: 80 80 51
Width: 536
GlyphClass: 2
Flags: W
LayerCount: 2
Fore
SplineSet
288 583 m 2,0,1
 383 583 383 583 444 530 c 128,-1,2
 505 477 505 477 505 394 c 0,3,4
 505 321 505 321 455 266 c 0,5,6
 422 229 422 229 380 214.5 c 128,-1,7
 338 200 338 200 268 200 c 2,8,-1
 170 200 l 1,9,-1
 170 0 l 1,10,-1
 70 0 l 1,11,-1
 70 583 l 1,12,-1
 288 583 l 2,0,1
170 483 m 1,13,-1
 170 300 l 1,14,-1
 288 300 l 2,15,16
 340 300 340 300 369.5 324.5 c 128,-1,17
 399 349 399 349 399 391 c 0,18,19
 399 434 399 434 369.5 458.5 c 128,-1,20
 340 483 340 483 288 483 c 2,21,-1
 170 483 l 1,13,-1
EndSplineSet
EndChar

StartChar: Q
Encoding: 81 81 52
Width: 634
GlyphClass: 2
Flags: W
LayerCount: 2
Fore
SplineSet
288 -6 m 1,0,-1
 284 -30 l 1,1,2
 314 -25 314 -25 335 -25 c 0,3,4
 373 -25 373 -25 419 -38 c 0,5,6
 446 -45 446 -45 460 -45 c 0,7,8
 479 -45 479 -45 503 -30 c 0,9,10
 529 -13 529 -13 543 -13 c 0,11,12
 565 -13 565 -13 579.5 -27.5 c 128,-1,13
 594 -42 594 -42 594 -63 c 0,14,15
 594 -92 594 -92 556 -114 c 0,16,17
 505 -145 505 -145 461 -145 c 0,18,19
 442 -145 442 -145 431 -142 c 128,-1,20
 420 -139 420 -139 384 -125 c 0,21,22
 362 -117 362 -117 336 -117 c 0,23,24
 292 -117 292 -117 210 -138 c 0,25,26
 190 -143 190 -143 182 -143 c 0,27,28
 163 -143 163 -143 148.5 -127.5 c 128,-1,29
 134 -112 134 -112 134 -91 c 0,30,31
 134 -72 134 -72 154 -53 c 2,32,-1
 216 7 l 1,33,34
 160 39 160 39 131.5 64 c 128,-1,35
 103 89 103 89 82 124 c 0,36,37
 38 201 38 201 38 292 c 0,38,39
 38 418 38 418 120 507.5 c 128,-1,40
 202 597 202 597 317 597 c 128,-1,41
 432 597 432 597 514 508 c 128,-1,42
 596 419 596 419 596 294 c 0,43,44
 596 211 596 211 556.5 140.5 c 128,-1,45
 517 70 517 70 446 27 c 0,46,47
 390 -7 390 -7 306 -7 c 0,48,49
 296 -7 296 -7 288 -6 c 1,0,-1
317 497 m 128,-1,51
 243 497 243 497 190.5 436.5 c 128,-1,52
 138 376 138 376 138 291 c 0,53,54
 138 207 138 207 191 146 c 128,-1,55
 244 85 244 85 317 85 c 128,-1,56
 390 85 390 85 443 145 c 128,-1,57
 496 205 496 205 496 288 c 0,58,59
 496 375 496 375 443.5 436 c 128,-1,50
 391 497 391 497 317 497 c 128,-1,51
EndSplineSet
EndChar

StartChar: R
Encoding: 82 82 53
Width: 581
GlyphClass: 2
Flags: W
LayerCount: 2
Fore
SplineSet
566 0 m 1,0,-1
 450 0 l 1,1,2
 413 72 413 72 355.5 141.5 c 128,-1,3
 298 211 298 211 266 222 c 1,4,-1
 170 222 l 1,5,-1
 170 0 l 1,6,-1
 70 0 l 1,7,-1
 70 583 l 1,8,-1
 278 583 l 2,9,10
 375 583 375 583 436.5 533.5 c 128,-1,11
 498 484 498 484 498 405 c 0,12,13
 498 313 498 313 390 254 c 1,14,15
 449 199 449 199 488 140.5 c 128,-1,16
 527 82 527 82 566 0 c 1,0,-1
170 322 m 1,17,-1
 246 322 l 2,18,19
 309 322 309 322 350.5 346.5 c 128,-1,20
 392 371 392 371 392 408 c 0,21,22
 392 440 392 440 361 461.5 c 128,-1,23
 330 483 330 483 282 483 c 2,24,-1
 170 483 l 1,25,-1
 170 322 l 1,17,-1
EndSplineSet
EndChar

StartChar: S
Encoding: 83 83 54
Width: 587
GlyphClass: 2
Flags: W
LayerCount: 2
Fore
SplineSet
64 179 m 0,0,1
 76 199 76 199 105 199 c 0,2,3
 127 199 127 199 141 185 c 0,4,5
 148 178 148 178 156 151 c 0,6,7
 163 124 163 124 204 105 c 128,-1,8
 245 86 245 86 295 86 c 0,9,10
 351 86 351 86 389 108 c 128,-1,11
 427 130 427 130 427 162 c 0,12,13
 427 195 427 195 391 215 c 0,14,15
 367 228 367 228 286 242 c 0,16,17
 201 256 201 256 157 281 c 0,18,19
 119 303 119 303 97 340 c 128,-1,20
 75 377 75 377 75 420 c 0,21,22
 75 496 75 496 137 546.5 c 128,-1,23
 199 597 199 597 292 597 c 0,24,25
 356 597 356 597 422 564 c 0,26,27
 460 545 460 545 485 507.5 c 128,-1,28
 510 470 510 470 510 434 c 0,29,30
 510 413 510 413 501 397 c 0,31,32
 489 376 489 376 461 376 c 0,33,34
 439 376 439 376 425 390 c 0,35,36
 418 398 418 398 411 430 c 0,37,38
 404 460 404 460 371.5 478.5 c 128,-1,39
 339 497 339 497 292 497 c 128,-1,40
 245 497 245 497 212 475 c 128,-1,41
 179 453 179 453 179 421 c 0,42,43
 179 405 179 405 189.5 389.5 c 128,-1,44
 200 374 200 374 216 366 c 0,45,46
 239 354 239 354 316 340 c 0,47,48
 430 319 430 319 472 285 c 0,49,50
 531 238 531 238 531 160 c 128,-1,51
 531 82 531 82 468 34 c 128,-1,52
 405 -14 405 -14 302 -14 c 0,53,54
 229 -14 229 -14 146 25 c 0,55,56
 111 41 111 41 83 76 c 128,-1,57
 55 111 55 111 55 145 c 0,58,59
 55 163 55 163 64 179 c 0,0,1
EndSplineSet
EndChar

StartChar: T
Encoding: 84 84 55
Width: 523
GlyphClass: 2
Flags: W
LayerCount: 2
Fore
SplineSet
519 584 m 1,0,-1
 519 483 l 1,1,-1
 310 483 l 1,2,-1
 310 0 l 1,3,-1
 210 0 l 1,4,-1
 210 483 l 1,5,-1
 3 483 l 1,6,-1
 3 584 l 1,7,-1
 519 584 l 1,0,-1
EndSplineSet
EndChar

StartChar: U
Encoding: 85 85 56
Width: 598
GlyphClass: 2
Flags: W
LayerCount: 2
Fore
SplineSet
528 583 m 1,0,-1
 528 205 l 2,1,2
 528 98 528 98 444 35 c 0,3,4
 380 -14 380 -14 299 -14 c 128,-1,5
 218 -14 218 -14 154 35 c 0,6,7
 70 100 70 100 70 205 c 2,8,-1
 70 583 l 1,9,-1
 170 583 l 1,10,-1
 170 196 l 2,11,12
 170 150 170 150 208 118 c 128,-1,13
 246 86 246 86 299 86 c 128,-1,14
 352 86 352 86 390 118 c 128,-1,15
 428 150 428 150 428 196 c 2,16,-1
 428 583 l 1,17,-1
 528 583 l 1,0,-1
EndSplineSet
EndChar

StartChar: V
Encoding: 86 86 57
Width: 597
GlyphClass: 2
Flags: W
LayerCount: 2
Fore
SplineSet
594 584 m 1,0,-1
 346 0 l 1,1,-1
 247 0 l 1,2,-1
 3 583 l 1,3,-1
 115 583 l 1,4,-1
 301 144 l 1,5,-1
 488 584 l 1,6,-1
 594 584 l 1,0,-1
EndSplineSet
EndChar

StartChar: W
Encoding: 87 87 58
Width: 600
GlyphClass: 2
Flags: W
LayerCount: 2
Fore
SplineSet
576 583 m 1,0,-1
 503 0 l 1,1,-1
 393 0 l 1,2,-1
 300 277 l 1,3,-1
 209 0 l 1,4,-1
 98 0 l 1,5,-1
 23 583 l 1,6,-1
 126 583 l 1,7,-1
 175 211 l 1,8,-1
 251 437 l 1,9,-1
 355 437 l 1,10,-1
 431 211 l 1,11,-1
 479 583 l 1,12,-1
 576 583 l 1,0,-1
EndSplineSet
EndChar

StartChar: X
Encoding: 88 88 59
Width: 540
GlyphClass: 2
Flags: W
LayerCount: 2
Fore
SplineSet
396 0 m 1,0,-1
 270 220 l 1,1,-1
 144 0 l 1,2,-1
 14 0 l 1,3,-1
 204 298 l 1,4,-1
 19 583 l 1,5,-1
 147 583 l 1,6,-1
 269 375 l 1,7,-1
 387 583 l 1,8,-1
 515 583 l 1,9,-1
 333 297 l 1,10,-1
 525 0 l 1,11,-1
 396 0 l 1,0,-1
EndSplineSet
EndChar

StartChar: Y
Encoding: 89 89 60
Width: 554
GlyphClass: 2
Flags: W
LayerCount: 2
Fore
SplineSet
228 0 m 1,0,-1
 228 245 l 1,1,-1
 -7 583 l 1,2,-1
 113 583 l 1,3,-1
 278 348 l 1,4,-1
 441 583 l 1,5,-1
 561 583 l 1,6,-1
 328 245 l 1,7,-1
 328 0 l 1,8,-1
 228 0 l 1,0,-1
EndSplineSet
EndChar

StartChar: Z
Encoding: 90 90 61
Width: 523
GlyphClass: 2
Flags: W
LayerCount: 2
Fore
SplineSet
489 0 m 1,0,-1
 34 0 l 1,1,-1
 34 100 l 1,2,-1
 336 483 l 1,3,-1
 57 483 l 1,4,-1
 57 583 l 1,5,-1
 465 583 l 1,6,-1
 465 486 l 1,7,-1
 162 100 l 1,8,-1
 489 100 l 1,9,-1
 489 0 l 1,0,-1
EndSplineSet
EndChar

StartChar: bracketleft
Encoding: 91 91 62
Width: 343
GlyphClass: 2
Flags: W
LayerCount: 2
Fore
SplineSet
166 527 m 1,0,-1
 166 -48 l 1,1,-1
 225 -48 l 2,2,3
 257 -48 257 -48 270 -57 c 0,4,5
 291 -73 291 -73 291 -98 c 0,6,7
 291 -125 291 -125 267 -141 c 0,8,9
 256 -148 256 -148 225 -148 c 2,10,-1
 66 -148 l 1,11,-1
 66 627 l 1,12,-1
 224 627 l 2,13,14
 256 627 256 627 270 618 c 1,15,16
 290 603 290 603 290 577 c 0,17,18
 290 548 290 548 266 534 c 0,19,20
 255 527 255 527 224 527 c 2,21,-1
 166 527 l 1,0,-1
EndSplineSet
EndChar

StartChar: backslash
Encoding: 92 92 63
Width: 434
GlyphClass: 2
Flags: W
LayerCount: 2
Fore
SplineSet
101 651 m 2,0,-1
 422 -27 l 2,1,2
 434 -51 434 -51 434 -65 c 0,3,4
 434 -84 434 -84 419 -98.5 c 128,-1,5
 404 -113 404 -113 384 -113 c 0,6,7
 366 -113 366 -113 355 -103.5 c 128,-1,8
 344 -94 344 -94 332 -69 c 2,9,-1
 12 610 l 2,10,11
 0 634 0 634 0 647 c 0,12,13
 0 666 0 666 15 680.5 c 128,-1,14
 30 695 30 695 50 695 c 0,15,16
 68 695 68 695 79 685.5 c 128,-1,17
 90 676 90 676 101 651 c 2,0,-1
EndSplineSet
EndChar

StartChar: bracketright
Encoding: 93 93 64
Width: 343
GlyphClass: 2
Flags: W
LayerCount: 2
Fore
SplineSet
177 -48 m 1,0,-1
 177 527 l 1,1,-1
 118 527 l 2,2,3
 86 527 86 527 73 536 c 0,4,5
 52 552 52 552 52 577 c 0,6,7
 52 604 52 604 76 620 c 0,8,9
 87 627 87 627 118 627 c 2,10,-1
 277 627 l 1,11,-1
 277 -148 l 1,12,-1
 119 -148 l 2,13,14
 87 -148 87 -148 73 -139 c 1,15,16
 53 -124 53 -124 53 -98 c 0,17,18
 53 -69 53 -69 77 -55 c 0,19,20
 88 -48 88 -48 119 -48 c 2,21,-1
 177 -48 l 1,0,-1
EndSplineSet
EndChar

StartChar: asciicircum
Encoding: 94 94 65
Width: 590
GlyphClass: 2
Flags: W
LayerCount: 2
Fore
SplineSet
294 494 m 1,0,-1
 177 356 l 2,1,2
 160 336 160 336 151.5 330.5 c 128,-1,3
 143 325 143 325 128 325 c 0,4,5
 108 325 108 325 93 340 c 128,-1,6
 78 355 78 355 78 375 c 0,7,8
 78 393 78 393 100 419 c 2,9,-1
 294 652 l 1,10,-1
 490 419 l 2,11,12
 512 393 512 393 512 375 c 0,13,14
 512 355 512 355 497 340 c 128,-1,15
 482 325 482 325 462 325 c 0,16,17
 448 325 448 325 438.5 330.5 c 128,-1,18
 429 336 429 336 413 355 c 2,19,-1
 294 494 l 1,0,-1
EndSplineSet
EndChar

StartChar: underscore
Encoding: 95 95 66
Width: 624
GlyphClass: 2
Flags: W
LayerCount: 2
Fore
SplineSet
624 -75 m 1,0,-1
 624 -125 l 1,1,-1
 0 -125 l 1,2,-1
 0 -75 l 1,3,-1
 624 -75 l 1,0,-1
EndSplineSet
EndChar

StartChar: grave
Encoding: 96 96 67
Width: 397
GlyphClass: 2
Flags: W
LayerCount: 2
Fore
SplineSet
104 680 m 2,0,-1
 237 569 l 2,1,2
 260 550 260 550 260 532 c 0,3,4
 260 518 260 518 249 507 c 128,-1,5
 238 496 238 496 223 496 c 0,6,7
 211 496 211 496 191 512 c 2,8,-1
 58 624 l 1,9,10
 35 642 35 642 35 660 c 0,11,12
 35 675 35 675 45.5 685.5 c 128,-1,13
 56 696 56 696 72 696 c 0,14,15
 84 696 84 696 104 680 c 2,0,-1
EndSplineSet
EndChar

StartChar: a
Encoding: 97 97 68
Width: 540
GlyphClass: 2
Flags: W
LayerCount: 2
Fore
SplineSet
379 0 m 1,0,-1
 379 23 l 1,1,2
 304 -16 304 -16 213 -16 c 0,3,4
 139 -16 139 -16 86 23.5 c 128,-1,5
 33 63 33 63 33 119 c 0,6,7
 33 168 33 168 72 212 c 0,8,9
 140 288 140 288 275 288 c 0,10,11
 320 288 320 288 379 278 c 1,12,-1
 379 301 l 2,13,14
 379 350 379 350 286 350 c 0,15,16
 235 350 235 350 170 333 c 0,17,18
 145 327 145 327 130 327 c 0,19,20
 109 327 109 327 95 341.5 c 128,-1,21
 81 356 81 356 81 378 c 0,22,23
 81 410 81 410 111 420 c 0,24,25
 196 450 196 450 283 450 c 0,26,27
 375 450 375 450 427.5 411 c 128,-1,28
 480 372 480 372 480 302 c 2,29,-1
 480 0 l 1,30,-1
 379 0 l 1,0,-1
380 135 m 1,31,-1
 380 185 l 1,32,33
 317 196 317 196 269 196 c 0,34,35
 218 196 218 196 178.5 174 c 128,-1,36
 139 152 139 152 139 123 c 0,37,38
 139 106 139 106 161 95 c 128,-1,39
 183 84 183 84 215 84 c 0,40,41
 297 84 297 84 380 135 c 1,31,-1
EndSplineSet
EndChar

StartChar: b
Encoding: 98 98 69
Width: 595
GlyphClass: 2
Flags: W
LayerCount: 2
Fore
SplineSet
164 624 m 1,0,-1
 164 401 l 1,1,2
 227 451 227 451 314 451 c 0,3,4
 423 451 423 451 491 386 c 0,5,6
 561 319 561 319 561 218 c 0,7,8
 561 119 561 119 491 51 c 0,9,10
 423 -14 423 -14 315 -14 c 0,11,12
 235 -14 235 -14 164 35 c 1,13,-1
 164 0 l 1,14,-1
 64 0 l 1,15,-1
 64 624 l 1,16,-1
 164 624 l 1,0,-1
313 351 m 0,17,18
 243 351 243 351 203 311 c 0,19,20
 164 272 164 272 164 220 c 0,21,22
 164 161 164 161 205.5 123.5 c 128,-1,23
 247 86 247 86 313 86 c 0,24,25
 381 86 381 86 422 126 c 0,26,27
 461 165 461 165 461 219 c 0,28,29
 461 270 461 270 422 311 c 1,30,31
 381 351 381 351 313 351 c 0,17,18
EndSplineSet
EndChar

StartChar: c
Encoding: 99 99 70
Width: 595
GlyphClass: 2
Flags: W
LayerCount: 2
Fore
SplineSet
510 262 m 0,0,1
 497 241 497 241 469 241 c 0,2,3
 447 241 447 241 433 255 c 1,4,5
 424 262 424 262 418 289 c 0,6,7
 413 313 413 313 395 325 c 0,8,9
 354 350 354 350 289 350 c 0,10,11
 215 350 215 350 173 307 c 0,12,13
 133 267 133 267 133 207 c 0,14,15
 133 84 133 84 309 84 c 0,16,17
 375 84 375 84 414 97 c 0,18,19
 433 103 433 103 464 128 c 1,20,21
 477 140 477 140 494 140 c 0,22,23
 514 140 514 140 529 125 c 128,-1,24
 544 110 544 110 544 89 c 0,25,26
 544 49 544 49 480 16 c 1,27,28
 414 -16 414 -16 302 -16 c 0,29,30
 164 -16 164 -16 94 53 c 0,31,32
 33 114 33 114 33 207 c 0,33,34
 33 314 33 314 104.5 382 c 128,-1,35
 176 450 176 450 289 450 c 0,36,37
 369 450 369 450 433 420 c 0,38,39
 468 403 468 403 493.5 367 c 128,-1,40
 519 331 519 331 519 297 c 0,41,42
 519 277 519 277 510 262 c 0,0,1
EndSplineSet
EndChar

StartChar: d
Encoding: 100 100 71
Width: 596
GlyphClass: 2
Flags: W
LayerCount: 2
Fore
SplineSet
432 624 m 1,0,-1
 532 624 l 1,1,-1
 532 0 l 1,2,-1
 432 0 l 1,3,-1
 432 35 l 1,4,5
 360 -14 360 -14 281 -14 c 0,6,7
 172 -14 172 -14 104 51 c 0,8,9
 34 119 34 119 34 219 c 128,-1,10
 34 319 34 319 104 386 c 0,11,12
 172 451 172 451 282 451 c 0,13,14
 369 451 369 451 432 401 c 1,15,-1
 432 624 l 1,0,-1
282 351 m 0,16,17
 213 351 213 351 173 311 c 0,18,19
 134 272 134 272 134 219 c 0,20,21
 134 167 134 167 173 126 c 1,22,23
 214 86 214 86 283 86 c 128,-1,24
 352 86 352 86 393 126 c 0,25,26
 432 165 432 165 432 217 c 0,27,28
 432 272 432 272 393 311 c 0,29,30
 352 351 352 351 282 351 c 0,16,17
EndSplineSet
EndChar

StartChar: e
Encoding: 101 101 72
Width: 587
GlyphClass: 2
Flags: W
LayerCount: 2
Fore
SplineSet
550 172 m 1,0,-1
 142 172 l 1,1,2
 176 84 176 84 306 84 c 0,3,4
 362 84 362 84 469 112 c 0,5,6
 489 117 489 117 502 117 c 0,7,8
 522 117 522 117 536 102.5 c 128,-1,9
 550 88 550 88 550 67 c 0,10,11
 550 38 550 38 515 22 c 0,12,13
 481 7 481 7 415.5 -4.5 c 128,-1,14
 350 -16 350 -16 297 -16 c 0,15,16
 181 -16 181 -16 107 49 c 128,-1,17
 33 114 33 114 33 216 c 0,18,19
 33 315 33 315 107.5 382.5 c 128,-1,20
 182 450 182 450 291 450 c 0,21,22
 403 450 403 450 476.5 382 c 128,-1,23
 550 314 550 314 550 211 c 2,24,-1
 550 172 l 1,0,-1
145 260 m 1,25,-1
 439 260 l 1,26,27
 427 301 427 301 387 325.5 c 128,-1,28
 347 350 347 350 292 350 c 128,-1,29
 237 350 237 350 196.5 325 c 128,-1,30
 156 300 156 300 145 260 c 1,25,-1
EndSplineSet
EndChar

StartChar: f
Encoding: 102 102 73
Width: 493
GlyphClass: 2
Flags: W
LayerCount: 2
Fore
SplineSet
227 0 m 1,0,-1
 127 0 l 1,1,-1
 127 337 l 1,2,-1
 80 337 l 2,3,4
 46 337 46 337 35 347 c 1,5,6
 14 362 14 362 14 387 c 0,7,8
 14 416 14 416 38 430 c 1,9,10
 48 437 48 437 81 437 c 2,11,-1
 127 437 l 1,12,-1
 127 474 l 2,13,14
 127 543 127 543 179 583 c 128,-1,15
 231 623 231 623 320 623 c 0,16,17
 400 623 400 623 457 607 c 0,18,19
 499 596 499 596 499 560 c 0,20,21
 499 538 499 538 485.5 523.5 c 128,-1,22
 472 509 472 509 452 509 c 0,23,24
 442 509 442 509 424 512 c 0,25,26
 362 523 362 523 311 523 c 0,27,28
 227 523 227 523 227 474 c 2,29,-1
 227 437 l 1,30,-1
 378 437 l 2,31,32
 410 437 410 437 423 428 c 0,33,34
 444 412 444 412 444 387 c 0,35,36
 444 360 444 360 420 344 c 0,37,38
 409 337 409 337 378 337 c 2,39,-1
 227 337 l 1,40,-1
 227 0 l 1,0,-1
EndSplineSet
EndChar

StartChar: g
Encoding: 103 103 74
Width: 575
GlyphClass: 2
Flags: W
LayerCount: 2
Fore
SplineSet
511 437 m 1,0,-1
 511 -20 l 2,1,2
 511 -99 511 -99 456.5 -152 c 128,-1,3
 402 -205 402 -205 320 -205 c 2,4,-1
 208 -205 l 2,5,6
 174 -205 174 -205 163 -195 c 1,7,8
 142 -180 142 -180 142 -155 c 0,9,10
 142 -126 142 -126 166 -112 c 1,11,12
 176 -105 176 -105 208 -105 c 2,13,-1
 317 -105 l 2,14,15
 360 -105 360 -105 385.5 -82 c 128,-1,16
 411 -59 411 -59 411 -20 c 2,17,-1
 411 35 l 1,18,19
 345 -14 345 -14 270 -14 c 0,20,21
 169 -14 169 -14 101.5 52.5 c 128,-1,22
 34 119 34 119 34 218 c 0,23,24
 34 318 34 318 101.5 384.5 c 128,-1,25
 169 451 169 451 270 451 c 0,26,27
 352 451 352 451 411 401 c 1,28,-1
 411 437 l 1,29,-1
 511 437 l 1,0,-1
272 351 m 0,30,31
 215 351 215 351 174.5 312.5 c 128,-1,32
 134 274 134 274 134 219 c 128,-1,33
 134 164 134 164 174.5 125 c 128,-1,34
 215 86 215 86 272 86 c 128,-1,35
 329 86 329 86 370 124.5 c 128,-1,36
 411 163 411 163 411 217 c 0,37,38
 411 273 411 273 370.5 312 c 128,-1,39
 330 351 330 351 272 351 c 0,30,31
EndSplineSet
EndChar

StartChar: h
Encoding: 104 104 75
Width: 538
GlyphClass: 2
Flags: W
LayerCount: 2
Fore
SplineSet
65 624 m 1,0,-1
 164 624 l 1,1,-1
 164 389 l 1,2,3
 224 450 224 450 301 450 c 0,4,5
 381 450 381 450 429.5 404.5 c 128,-1,6
 478 359 478 359 478 284 c 2,7,-1
 478 0 l 1,8,-1
 378 0 l 1,9,-1
 378 271 l 2,10,11
 378 297 378 297 374 309 c 128,-1,12
 370 321 370 321 357 331 c 0,13,14
 334 350 334 350 290 350 c 0,15,16
 255 350 255 350 231 337 c 128,-1,17
 207 324 207 324 164 283 c 1,18,-1
 164 0 l 1,19,-1
 64 0 l 1,20,-1
 65 624 l 1,0,-1
EndSplineSet
EndChar

StartChar: i
Encoding: 105 105 76
Width: 246
GlyphClass: 2
Flags: W
LayerCount: 2
Fore
SplineSet
173 437 m 1,0,-1
 173 0 l 1,1,-1
 73 0 l 1,2,-1
 73 436 l 1,3,-1
 173 437 l 1,0,-1
182 623 m 1,4,-1
 182 518 l 1,5,-1
 64 518 l 1,6,-1
 64 623 l 1,7,-1
 182 623 l 1,4,-1
EndSplineSet
EndChar

StartChar: j
Encoding: 106 106 77
Width: 311
GlyphClass: 2
Flags: W
LayerCount: 2
Fore
SplineSet
138 337 m 1,0,-1
 94 337 l 2,1,2
 60 337 60 337 49 347 c 1,3,4
 28 362 28 362 28 387 c 0,5,6
 28 416 28 416 52 430 c 0,7,8
 63 437 63 437 94 437 c 2,9,-1
 238 437 l 1,10,-1
 238 -20 l 2,11,12
 238 -99 238 -99 183.5 -152 c 128,-1,13
 129 -205 129 -205 47 -205 c 2,14,-1
 41 -205 l 2,15,16
 7 -205 7 -205 -4 -195 c 1,17,18
 -25 -180 -25 -180 -25 -155 c 0,19,20
 -25 -127 -25 -127 -1 -112 c 0,21,22
 9 -105 9 -105 41 -105 c 2,23,-1
 44 -105 l 2,24,25
 87 -105 87 -105 112.5 -82 c 128,-1,26
 138 -59 138 -59 138 -20 c 2,27,-1
 138 337 l 1,0,-1
247 623 m 1,28,-1
 247 518 l 1,29,-1
 128 518 l 1,30,-1
 128 623 l 1,31,-1
 247 623 l 1,28,-1
EndSplineSet
EndChar

StartChar: k
Encoding: 107 107 78
Width: 520
GlyphClass: 2
Flags: W
LayerCount: 2
Fore
SplineSet
534 0 m 1,0,-1
 383 0 l 1,1,-1
 182 178 l 1,2,-1
 164 164 l 1,3,-1
 164 0 l 1,4,-1
 64 0 l 1,5,-1
 64 624 l 1,6,-1
 164 624 l 1,7,-1
 164 287 l 1,8,-1
 352 437 l 1,9,-1
 500 437 l 1,10,-1
 260 241 l 1,11,-1
 534 0 l 1,0,-1
EndSplineSet
EndChar

StartChar: l
Encoding: 108 108 79
Width: 303
GlyphClass: 2
Flags: W
LayerCount: 2
Fore
SplineSet
139 0 m 1,0,-1
 139 524 l 1,1,-1
 131 524 l 2,2,3
 96 524 96 524 85 534 c 1,4,5
 64 548 64 548 64 574 c 0,6,7
 64 603 64 603 88 617 c 1,8,9
 98 624 98 624 131 624 c 2,10,-1
 239 624 l 1,11,-1
 239 0 l 1,12,-1
 139 0 l 1,0,-1
EndSplineSet
EndChar

StartChar: m
Encoding: 109 109 80
Width: 648
GlyphClass: 2
Flags: W
LayerCount: 2
Fore
SplineSet
64 437 m 1,0,-1
 165 437 l 1,1,-1
 165 413 l 1,2,3
 211 450 211 450 250 450 c 0,4,5
 307 450 307 450 352 401 c 1,6,7
 397 450 397 450 456 450 c 0,8,9
 512 450 512 450 549.5 412.5 c 128,-1,10
 587 375 587 375 587 319 c 2,11,-1
 587 0 l 1,12,-1
 487 0 l 1,13,-1
 487 311 l 2,14,15
 487 333 487 333 479.5 341.5 c 128,-1,16
 472 350 472 350 452 350 c 128,-1,17
 432 350 432 350 416.5 341 c 128,-1,18
 401 332 401 332 376 305 c 1,19,-1
 376 0 l 1,20,-1
 276 0 l 1,21,-1
 276 311 l 2,22,23
 276 332 276 332 268 341 c 128,-1,24
 260 350 260 350 241 350 c 0,25,26
 205 350 205 350 165 305 c 1,27,-1
 165 0 l 1,28,-1
 64 0 l 1,29,-1
 64 437 l 1,0,-1
EndSplineSet
EndChar

StartChar: n
Encoding: 110 110 81
Width: 538
GlyphClass: 2
Flags: W
LayerCount: 2
Fore
SplineSet
64 437 m 1,0,-1
 163 437 l 1,1,-1
 163 389 l 1,2,3
 199 423 199 423 229 436.5 c 128,-1,4
 259 450 259 450 300 450 c 0,5,6
 368 450 368 450 419 413 c 0,7,8
 478 369 478 369 478 282 c 2,9,-1
 478 0 l 1,10,-1
 378 0 l 1,11,-1
 378 278 l 2,12,13
 378 350 378 350 288 350 c 0,14,15
 253 350 253 350 225.5 335 c 128,-1,16
 198 320 198 320 163 282 c 1,17,-1
 163 0 l 1,18,-1
 64 0 l 1,19,-1
 64 437 l 1,0,-1
EndSplineSet
EndChar

StartChar: o
Encoding: 111 111 82
Width: 582
GlyphClass: 2
Flags: W
LayerCount: 2
Fore
SplineSet
294 450 m 0,0,1
 400 450 400 450 474.5 382 c 128,-1,2
 549 314 549 314 549 217 c 0,3,4
 549 119 549 119 474 51.5 c 128,-1,5
 399 -16 399 -16 291 -16 c 128,-1,6
 183 -16 183 -16 108 51.5 c 128,-1,7
 33 119 33 119 33 217 c 0,8,9
 33 316 33 316 108 383 c 128,-1,10
 183 450 183 450 294 450 c 0,0,1
293 350 m 0,11,12
 225 350 225 350 179 312 c 128,-1,13
 133 274 133 274 133 217 c 0,14,15
 133 161 133 161 178.5 122.5 c 128,-1,16
 224 84 224 84 291 84 c 128,-1,17
 358 84 358 84 403.5 122.5 c 128,-1,18
 449 161 449 161 449 217 c 128,-1,19
 449 273 449 273 403.5 311.5 c 128,-1,20
 358 350 358 350 293 350 c 0,11,12
EndSplineSet
EndChar

StartChar: p
Encoding: 112 112 83
Width: 595
GlyphClass: 2
Flags: W
LayerCount: 2
Fore
SplineSet
64 437 m 1,0,-1
 164 437 l 1,1,-1
 164 392 l 1,2,3
 232 450 232 450 317 450 c 0,4,5
 422 450 422 450 491.5 385.5 c 128,-1,6
 561 321 561 321 561 224 c 0,7,8
 561 132 561 132 492 71 c 128,-1,9
 423 10 423 10 319 10 c 0,10,11
 237 10 237 10 164 66 c 1,12,-1
 164 -205 l 1,13,-1
 64 -205 l 1,14,-1
 64 437 l 1,0,-1
313 350 m 0,15,16
 250 350 250 350 212 321 c 0,17,18
 190 305 190 305 177 280 c 128,-1,19
 164 255 164 255 164 231 c 0,20,21
 164 178 164 178 205.5 144 c 128,-1,22
 247 110 247 110 313 110 c 0,23,24
 378 110 378 110 419.5 144 c 128,-1,25
 461 178 461 178 461 230 c 0,26,27
 461 255 461 255 448 280 c 128,-1,28
 435 305 435 305 413 321 c 0,29,30
 375 350 375 350 313 350 c 0,15,16
EndSplineSet
EndChar

StartChar: q
Encoding: 113 113 84
Width: 596
GlyphClass: 2
Flags: W
LayerCount: 2
Fore
SplineSet
532 437 m 1,0,-1
 532 -205 l 1,1,-1
 432 -205 l 1,2,-1
 432 66 l 1,3,4
 359 10 359 10 276 10 c 0,5,6
 172 10 172 10 103 71 c 128,-1,7
 34 132 34 132 34 224 c 0,8,9
 34 321 34 321 103.5 385.5 c 128,-1,10
 173 450 173 450 278 450 c 0,11,12
 325 450 325 450 360 437 c 128,-1,13
 395 424 395 424 432 392 c 1,14,-1
 432 437 l 1,15,-1
 532 437 l 1,0,-1
282 350 m 0,16,17
 222 350 222 350 182 321 c 0,18,19
 134 285 134 285 134 230 c 128,-1,20
 134 175 134 175 182 139 c 0,21,22
 220 110 220 110 283 110 c 128,-1,23
 346 110 346 110 384 139 c 0,24,25
 406 155 406 155 419 180 c 128,-1,26
 432 205 432 205 432 229 c 0,27,28
 432 282 432 282 390.5 316 c 128,-1,29
 349 350 349 350 282 350 c 0,16,17
EndSplineSet
EndChar

StartChar: r
Encoding: 114 114 85
Width: 459
GlyphClass: 2
Flags: W
LayerCount: 2
Fore
SplineSet
64 437 m 1,0,-1
 164 437 l 1,1,-1
 164 372 l 1,2,3
 224 417 224 417 259 433 c 128,-1,4
 294 449 294 449 331 449 c 0,5,6
 384 449 384 449 429 411 c 0,7,8
 457 388 457 388 457 364 c 0,9,10
 457 343 457 343 442 328 c 128,-1,11
 427 313 427 313 407 313 c 0,12,13
 389 313 389 313 368 331 c 128,-1,14
 347 349 347 349 329 349 c 0,15,16
 305 349 305 349 270.5 327.5 c 128,-1,17
 236 306 236 306 164 247 c 1,18,-1
 164 0 l 1,19,-1
 64 0 l 1,20,-1
 64 437 l 1,0,-1
EndSplineSet
EndChar

StartChar: s
Encoding: 115 115 86
Width: 529
GlyphClass: 2
Flags: W
LayerCount: 2
Fore
SplineSet
49 146 m 0,0,1
 65 167 65 167 90 167 c 0,2,3
 128 167 128 167 141 123 c 1,4,5
 185 84 185 84 266 84 c 0,6,7
 314 84 314 84 348.5 97 c 128,-1,8
 383 110 383 110 383 127 c 0,9,10
 383 149 383 149 349 162 c 0,11,12
 326 171 326 171 257 179 c 0,13,14
 152 190 152 190 105 222 c 128,-1,15
 58 254 58 254 58 313 c 0,16,17
 58 373 58 373 116 411.5 c 128,-1,18
 174 450 174 450 264 450 c 0,19,20
 339 450 339 450 393 424 c 0,21,22
 427 408 427 408 449.5 383.5 c 128,-1,23
 472 359 472 359 472 332 c 0,24,25
 472 316 472 316 463 301 c 1,26,27
 449 281 449 281 422 281 c 0,28,29
 392 281 392 281 375 312 c 2,30,-1
 370 321 l 1,31,32
 329 350 329 350 267 350 c 0,33,34
 229 350 229 350 198.5 339.5 c 128,-1,35
 168 329 168 329 168 315 c 128,-1,36
 168 301 168 301 194 291 c 0,37,38
 209 286 209 286 278 276 c 0,39,40
 380 262 380 262 423 238 c 0,41,42
 456 220 456 220 474.5 190 c 128,-1,43
 493 160 493 160 493 125 c 0,44,45
 493 64 493 64 430 24 c 128,-1,46
 367 -16 367 -16 270 -16 c 0,47,48
 189 -16 189 -16 122 13 c 0,49,50
 86 28 86 28 62.5 58 c 128,-1,51
 39 88 39 88 39 116 c 0,52,53
 39 133 39 133 49 146 c 0,0,1
EndSplineSet
EndChar

StartChar: t
Encoding: 116 116 87
Width: 543
GlyphClass: 2
Flags: W
LayerCount: 2
Fore
SplineSet
211 337 m 1,0,-1
 211 141 l 2,1,2
 211 113 211 113 219 104 c 0,3,4
 237 84 237 84 297 84 c 0,5,6
 376 84 376 84 443 118 c 0,7,8
 464 129 464 129 478 129 c 0,9,10
 498 129 498 129 512 114 c 128,-1,11
 526 99 526 99 526 78 c 0,12,13
 526 60 526 60 515 48.5 c 128,-1,14
 504 37 504 37 476 24 c 0,15,16
 440 7 440 7 387.5 -4.5 c 128,-1,17
 335 -16 335 -16 296 -16 c 0,18,19
 211 -16 211 -16 161 21 c 128,-1,20
 111 58 111 58 111 122 c 2,21,-1
 111 337 l 1,22,-1
 76 337 l 2,23,24
 42 337 42 337 30 347 c 0,25,26
 10 362 10 362 10 387 c 0,27,28
 10 416 10 416 34 430 c 1,29,30
 44 437 44 437 76 437 c 2,31,-1
 111 437 l 1,32,-1
 111 525 l 2,33,34
 111 558 111 558 121 571 c 0,35,36
 136 591 136 591 161 591 c 0,37,38
 190 591 190 591 204 567 c 0,39,40
 211 556 211 556 211 525 c 2,41,-1
 211 437 l 1,42,-1
 392 437 l 2,43,44
 424 437 424 437 438 428 c 1,45,46
 458 411 458 411 458 387 c 0,47,48
 458 358 458 358 434 344 c 0,49,50
 423 337 423 337 392 337 c 2,51,-1
 211 337 l 1,0,-1
EndSplineSet
EndChar

StartChar: u
Encoding: 117 117 88
Width: 539
GlyphClass: 2
Flags: W
LayerCount: 2
Fore
SplineSet
475 0 m 1,0,-1
 375 0 l 1,1,-1
 375 48 l 1,2,3
 338 13 338 13 308.5 0 c 128,-1,4
 279 -13 279 -13 238 -13 c 0,5,6
 168 -13 168 -13 119 24 c 0,7,8
 60 68 60 68 60 156 c 2,9,-1
 60 437 l 1,10,-1
 160 437 l 1,11,-1
 160 159 l 2,12,13
 160 87 160 87 248 87 c 0,14,15
 286 87 286 87 311 100.5 c 128,-1,16
 336 114 336 114 375 155 c 1,17,-1
 375 437 l 1,18,-1
 475 437 l 1,19,-1
 475 0 l 1,0,-1
EndSplineSet
EndChar

StartChar: v
Encoding: 118 118 89
Width: 560
GlyphClass: 2
Flags: W
LayerCount: 2
Fore
SplineSet
11 437 m 1,0,-1
 123 437 l 1,1,-1
 283 122 l 1,2,-1
 440 437 l 1,3,-1
 549 437 l 1,4,-1
 332 0 l 1,5,-1
 228 0 l 1,6,-1
 11 437 l 1,0,-1
EndSplineSet
EndChar

StartChar: w
Encoding: 119 119 90
Width: 597
GlyphClass: 2
Flags: W
LayerCount: 2
Fore
SplineSet
133 437 m 1,0,-1
 197 185 l 1,1,-1
 257 343 l 1,2,-1
 345 343 l 1,3,-1
 406 185 l 1,4,-1
 472 437 l 1,5,-1
 571 437 l 1,6,-1
 462 0 l 1,7,-1
 370 0 l 1,8,-1
 299 181 l 1,9,-1
 231 0 l 1,10,-1
 137 0 l 1,11,-1
 27 437 l 1,12,-1
 133 437 l 1,0,-1
EndSplineSet
EndChar

StartChar: x
Encoding: 120 120 91
Width: 545
GlyphClass: 2
Flags: W
LayerCount: 2
Fore
SplineSet
534 0 m 1,0,-1
 386 0 l 1,1,-1
 268 161 l 1,2,-1
 156 0 l 1,3,-1
 11 0 l 1,4,-1
 189 228 l 1,5,-1
 23 437 l 1,6,-1
 168 437 l 1,7,-1
 268 293 l 1,8,-1
 365 437 l 1,9,-1
 514 437 l 1,10,-1
 342 227 l 1,11,-1
 534 0 l 1,0,-1
EndSplineSet
EndChar

StartChar: y
Encoding: 121 121 92
Width: 583
GlyphClass: 2
Flags: W
LayerCount: 2
Fore
SplineSet
463 437 m 1,0,-1
 570 437 l 1,1,-1
 236 -205 l 1,2,-1
 127 -205 l 1,3,-1
 233 3 l 1,4,-1
 9 437 l 1,5,-1
 124 437 l 1,6,-1
 289 114 l 1,7,-1
 463 437 l 1,0,-1
EndSplineSet
EndChar

StartChar: z
Encoding: 122 122 93
Width: 504
GlyphClass: 2
Flags: W
LayerCount: 2
Fore
SplineSet
46 337 m 1,0,-1
 46 437 l 1,1,-1
 455 437 l 1,2,-1
 455 356 l 1,3,-1
 193 100 l 1,4,-1
 468 100 l 1,5,-1
 468 0 l 1,6,-1
 34 0 l 1,7,-1
 34 83 l 1,8,-1
 295 337 l 1,9,-1
 46 337 l 1,0,-1
EndSplineSet
EndChar

StartChar: braceleft
Encoding: 123 123 94
Width: 458
GlyphClass: 2
Flags: W
LayerCount: 2
Fore
SplineSet
277 485 m 2,0,-1
 277 328 l 2,1,2
 277 296 277 296 271 278.5 c 128,-1,3
 265 261 265 261 248 240 c 1,4,5
 266 218 266 218 271.5 199.5 c 128,-1,6
 277 181 277 181 277 142 c 2,7,-1
 277 -15 l 2,8,9
 277 -35 277 -35 284.5 -42.5 c 128,-1,10
 292 -50 292 -50 313 -52 c 1,11,12
 335 -53 335 -53 348.5 -67.5 c 128,-1,13
 362 -82 362 -82 362 -103 c 0,14,15
 362 -126 362 -126 347 -139.5 c 128,-1,16
 332 -153 332 -153 307 -153 c 0,17,18
 254 -153 254 -153 215.5 -114 c 128,-1,19
 177 -75 177 -75 177 -22 c 2,20,-1
 177 151 l 2,21,22
 177 172 177 172 171 179.5 c 128,-1,23
 165 187 165 187 145 189 c 0,24,25
 96 195 96 195 96 240 c 128,-1,26
 96 285 96 285 145 290 c 0,27,28
 164 292 164 292 170.5 300 c 128,-1,29
 177 308 177 308 177 328 c 2,30,-1
 177 492 l 2,31,32
 177 545 177 545 215.5 584 c 128,-1,33
 254 623 254 623 306 623 c 0,34,35
 331 623 331 623 346.5 609.5 c 128,-1,36
 362 596 362 596 362 573 c 0,37,38
 362 552 362 552 348.5 537.5 c 128,-1,39
 335 523 335 523 313 522 c 0,40,41
 292 521 292 521 284.5 513 c 128,-1,42
 277 505 277 505 277 485 c 2,0,-1
EndSplineSet
EndChar

StartChar: bar
Encoding: 124 124 95
Width: 296
GlyphClass: 2
Flags: W
LayerCount: 2
Fore
SplineSet
198 556 m 2,0,-1
 198 -87 l 2,1,2
 198 -119 198 -119 189 -132 c 0,3,4
 173 -153 173 -153 148 -153 c 0,5,6
 121 -153 121 -153 105 -129 c 0,7,8
 98 -118 98 -118 98 -87 c 2,9,-1
 98 556 l 2,10,11
 98 589 98 589 107 602 c 1,12,13
 124 622 124 622 148 622 c 0,14,15
 177 622 177 622 191 598 c 0,16,17
 198 585 198 585 198 556 c 2,0,-1
EndSplineSet
EndChar

StartChar: braceright
Encoding: 125 125 96
Width: 458
GlyphClass: 2
Flags: W
LayerCount: 2
Fore
SplineSet
181 -15 m 2,0,-1
 181 142 l 2,1,2
 181 174 181 174 187 191.5 c 128,-1,3
 193 209 193 209 210 230 c 1,4,5
 192 252 192 252 186.5 270.5 c 128,-1,6
 181 289 181 289 181 328 c 2,7,-1
 181 485 l 2,8,9
 181 505 181 505 173.5 512.5 c 128,-1,10
 166 520 166 520 145 522 c 1,11,12
 123 523 123 523 109.5 537.5 c 128,-1,13
 96 552 96 552 96 573 c 0,14,15
 96 596 96 596 111 609.5 c 128,-1,16
 126 623 126 623 151 623 c 0,17,18
 204 623 204 623 242.5 584 c 128,-1,19
 281 545 281 545 281 492 c 2,20,-1
 281 319 l 2,21,22
 281 298 281 298 287 290.5 c 128,-1,23
 293 283 293 283 313 281 c 0,24,25
 362 275 362 275 362 230 c 128,-1,26
 362 185 362 185 313 180 c 0,27,28
 294 178 294 178 287.5 170 c 128,-1,29
 281 162 281 162 281 142 c 2,30,-1
 281 -22 l 2,31,32
 281 -75 281 -75 242.5 -114 c 128,-1,33
 204 -153 204 -153 152 -153 c 0,34,35
 127 -153 127 -153 111.5 -139.5 c 128,-1,36
 96 -126 96 -126 96 -103 c 0,37,38
 96 -82 96 -82 109.5 -67.5 c 128,-1,39
 123 -53 123 -53 145 -52 c 0,40,41
 166 -51 166 -51 173.5 -43 c 128,-1,42
 181 -35 181 -35 181 -15 c 2,0,-1
EndSplineSet
EndChar

StartChar: asciitilde
Encoding: 126 126 97
Width: 638
GlyphClass: 2
Flags: W
LayerCount: 2
Fore
SplineSet
507 364 m 0,0,1
 527 364 527 364 542 349 c 128,-1,2
 557 334 557 334 557 314 c 0,3,4
 557 289 557 289 516 241 c 0,5,6
 464 179 464 179 410 179 c 128,-1,7
 356 179 356 179 273 254 c 1,8,9
 241 281 241 281 231 281 c 0,10,11
 218 281 218 281 184 239 c 0,12,13
 164 215 164 215 154.5 208 c 128,-1,14
 145 201 145 201 132 201 c 0,15,16
 112 201 112 201 96.5 216.5 c 128,-1,17
 81 232 81 232 81 252 c 0,18,19
 81 279 81 279 120 322 c 1,20,21
 175 385 175 385 232 385 c 0,22,23
 264 385 264 385 291 369.5 c 128,-1,24
 318 354 318 354 369 307 c 1,25,26
 397 284 397 284 408 284 c 0,27,28
 422 284 422 284 457 330 c 0,29,30
 472 350 472 350 482 357 c 128,-1,31
 492 364 492 364 507 364 c 0,0,1
EndSplineSet
EndChar

StartChar: exclamdown
Encoding: 161 161 98
Width: 377
GlyphClass: 2
Flags: W
LayerCount: 2
Fore
SplineSet
110 -114 m 2,0,-1
 139 183 l 2,1,2
 144 232 144 232 188 232 c 0,3,4
 209 232 209 232 222.5 219 c 128,-1,5
 236 206 236 206 238 183 c 2,6,-1
 267 -114 l 2,7,8
 269 -140 269 -140 269 -147 c 0,9,10
 269 -182 269 -182 246 -204.5 c 128,-1,11
 223 -227 223 -227 188 -227 c 0,12,13
 154 -227 154 -227 131 -204.5 c 128,-1,14
 108 -182 108 -182 108 -147 c 0,15,16
 108 -138 108 -138 110 -114 c 2,0,-1
180 426 m 2,17,-1
 197 426 l 2,18,19
 225 426 225 426 244 407 c 128,-1,20
 263 388 263 388 263 360 c 128,-1,21
 263 332 263 332 244 313 c 128,-1,22
 225 294 225 294 197 294 c 2,23,-1
 180 294 l 2,24,25
 152 294 152 294 132.5 313 c 128,-1,26
 113 332 113 332 113 360 c 128,-1,27
 113 388 113 388 132.5 407 c 128,-1,28
 152 426 152 426 180 426 c 2,17,-1
EndSplineSet
EndChar

StartChar: cent
Encoding: 162 162 99
Width: 580
GlyphClass: 2
Flags: W
LayerCount: 2
Fore
SplineSet
468 354 m 1,0,1
 452 333 452 333 427 333 c 0,2,3
 407 333 407 333 392 346 c 1,4,5
 385 354 385 354 377 384 c 0,6,7
 367 427 367 427 302 427 c 0,8,9
 243 427 243 427 204 393.5 c 128,-1,10
 165 360 165 360 165 310 c 0,11,12
 165 263 165 263 201.5 230 c 128,-1,13
 238 197 238 197 292 197 c 0,14,15
 348 197 348 197 397 233 c 0,16,17
 415 245 415 245 431 245 c 0,18,19
 451 245 451 245 466 229.5 c 128,-1,20
 481 214 481 214 481 194 c 0,21,22
 481 163 481 163 440 136.5 c 128,-1,23
 399 110 399 110 333 99 c 1,24,-1
 333 22 l 2,25,26
 333 -10 333 -10 324 -23 c 0,27,28
 308 -44 308 -44 283 -44 c 0,29,30
 256 -44 256 -44 240 -20 c 0,31,32
 233 -9 233 -9 233 22 c 2,33,-1
 233 103 l 1,34,35
 156 122 156 122 110.5 178.5 c 128,-1,36
 65 235 65 235 65 312 c 0,37,38
 65 385 65 385 112 442 c 128,-1,39
 159 499 159 499 233 517 c 1,40,-1
 233 594 l 2,41,42
 233 628 233 628 243 640 c 1,43,44
 258 661 258 661 283 661 c 0,45,46
 312 661 312 661 326 637 c 0,47,48
 333 626 333 626 333 594 c 2,49,-1
 333 527 l 1,50,51
 375 520 375 520 406 503 c 0,52,53
 434 487 434 487 455.5 454 c 128,-1,54
 477 421 477 421 477 389 c 0,55,56
 477 369 477 369 468 354 c 1,0,1
EndSplineSet
EndChar

StartChar: sterling
Encoding: 163 163 100
Width: 628
GlyphClass: 2
Flags: W
LayerCount: 2
Fore
SplineSet
328 243 m 2,0,-1
 283 243 l 1,1,2
 284 231 284 231 284 216 c 0,3,4
 284 157 284 157 261 100 c 1,5,-1
 464 100 l 1,6,7
 470 146 470 146 513 146 c 0,8,9
 536 146 536 146 550 131 c 128,-1,10
 564 116 564 116 564 90 c 0,11,12
 564 46 564 46 536 23 c 128,-1,13
 508 0 508 0 456 0 c 2,14,-1
 135 0 l 2,15,16
 103 0 103 0 90 10 c 0,17,18
 69 25 69 25 69 51 c 0,19,20
 69 90 69 90 119 100 c 0,21,22
 152 107 152 107 164 132 c 0,23,24
 183 169 183 169 183 224 c 0,25,26
 183 235 183 235 182 243 c 1,27,-1
 113 243 l 2,28,29
 80 243 80 243 68 252 c 0,30,31
 47 268 47 268 47 293 c 0,32,33
 47 322 47 322 71 336 c 0,34,35
 82 343 82 343 113 343 c 2,36,-1
 157 343 l 1,37,38
 140 394 140 394 140 432 c 0,39,40
 140 505 140 505 188.5 551.5 c 128,-1,41
 237 598 237 598 313 598 c 0,42,43
 372 598 372 598 421.5 565.5 c 128,-1,44
 471 533 471 533 471 495 c 0,45,46
 471 474 471 474 456.5 459 c 128,-1,47
 442 444 442 444 422 444 c 0,48,49
 408 444 408 444 400 448.5 c 128,-1,50
 392 453 392 453 375 472 c 0,51,52
 352 498 352 498 312 498 c 0,53,54
 281 498 281 498 260.5 480.5 c 128,-1,55
 240 463 240 463 240 437 c 0,56,57
 240 414 240 414 260 343 c 1,58,-1
 328 343 l 2,59,60
 361 343 361 343 374 334 c 0,61,62
 395 318 395 318 395 293 c 0,63,64
 395 266 395 266 371 250 c 1,65,66
 358 243 358 243 328 243 c 2,0,-1
EndSplineSet
EndChar

StartChar: currency
Encoding: 164 164 101
Width: 508
GlyphClass: 2
Flags: W
LayerCount: 2
Fore
SplineSet
85 388 m 1,0,-1
 52 420 l 2,1,2
 27 445 27 445 27 469 c 0,3,4
 27 489 27 489 42 504 c 128,-1,5
 57 519 57 519 78 519 c 0,6,7
 98 519 98 519 125 493 c 2,8,-1
 157 462 l 1,9,10
 205 488 205 488 254 488 c 0,11,12
 301 488 301 488 351 461 c 1,13,-1
 382 491 l 2,14,15
 408 517 408 517 429 517 c 128,-1,16
 450 517 450 517 465 502 c 128,-1,17
 480 487 480 487 480 466 c 0,18,19
 480 453 480 453 475.5 445 c 128,-1,20
 471 437 471 437 454 420 c 2,21,-1
 423 388 l 1,22,23
 448 339 448 339 448 292 c 0,24,25
 448 244 448 244 422 196 c 1,26,-1
 455 162 l 2,27,28
 481 136 481 136 481 116 c 0,29,30
 481 95 481 95 465.5 79.5 c 128,-1,31
 450 64 450 64 429 64 c 0,32,33
 416 64 416 64 408 68.5 c 128,-1,34
 400 73 400 73 383 90 c 2,35,-1
 349 122 l 1,36,37
 302 97 302 97 254 97 c 128,-1,38
 206 97 206 97 158 123 c 1,39,-1
 125 91 l 2,40,41
 108 74 108 74 99.5 69 c 128,-1,42
 91 64 91 64 78 64 c 0,43,44
 57 64 57 64 42 79 c 128,-1,45
 27 94 27 94 27 115 c 0,46,47
 27 135 27 135 53 162 c 2,48,-1
 85 196 l 1,49,50
 60 245 60 245 60 292 c 0,51,52
 60 341 60 341 85 388 c 1,0,-1
254 388 m 0,53,54
 215 388 215 388 187.5 360.5 c 128,-1,55
 160 333 160 333 160 293 c 0,56,57
 160 254 160 254 188 225.5 c 128,-1,58
 216 197 216 197 254 197 c 128,-1,59
 292 197 292 197 320 225.5 c 128,-1,60
 348 254 348 254 348 292 c 0,61,62
 348 333 348 333 321 360.5 c 128,-1,63
 294 388 294 388 254 388 c 0,53,54
EndSplineSet
EndChar

StartChar: yen
Encoding: 165 165 102
Width: 583
GlyphClass: 2
Flags: W
LayerCount: 2
Fore
SplineSet
240 0 m 1,0,-1
 240 135 l 1,1,-1
 143 135 l 2,2,3
 112 135 112 135 112 163 c 128,-1,4
 112 191 112 191 143 191 c 2,5,-1
 240 191 l 1,6,-1
 240 225 l 1,7,-1
 143 225 l 2,8,9
 112 225 112 225 112 253 c 128,-1,10
 112 281 112 281 143 281 c 2,11,-1
 215 281 l 1,12,-1
 9 580 l 1,13,-1
 129 580 l 1,14,-1
 291 348 l 1,15,-1
 457 580 l 1,16,-1
 574 580 l 1,17,-1
 365 281 l 1,18,-1
 437 281 l 2,19,20
 468 281 468 281 468 253 c 128,-1,21
 468 225 468 225 437 225 c 2,22,-1
 340 225 l 1,23,-1
 340 191 l 1,24,-1
 437 191 l 2,25,26
 468 191 468 191 468 163 c 128,-1,27
 468 135 468 135 437 135 c 2,28,-1
 340 135 l 1,29,-1
 340 0 l 1,30,-1
 240 0 l 1,0,-1
EndSplineSet
EndChar

StartChar: brokenbar
Encoding: 166 166 103
Width: 296
GlyphClass: 2
Flags: W
LayerCount: 2
Fore
SplineSet
198 556 m 2,0,-1
 198 353 l 2,1,2
 198 321 198 321 189 308 c 0,3,4
 173 287 173 287 148 287 c 0,5,6
 119 287 119 287 105 311 c 0,7,8
 98 322 98 322 98 353 c 2,9,-1
 98 556 l 2,10,11
 98 589 98 589 107 601 c 0,12,13
 123 622 123 622 148 622 c 0,14,15
 191 622 191 622 197 577 c 0,16,17
 198 566 198 566 198 556 c 2,0,-1
198 116 m 2,18,-1
 198 -87 l 2,19,20
 198 -119 198 -119 189 -132 c 0,21,22
 173 -153 173 -153 148 -153 c 0,23,24
 121 -153 121 -153 105 -129 c 0,25,26
 98 -118 98 -118 98 -87 c 2,27,-1
 98 116 l 2,28,29
 98 149 98 149 107 162 c 1,30,31
 124 182 124 182 148 182 c 0,32,33
 177 182 177 182 191 158 c 0,34,35
 198 145 198 145 198 116 c 2,18,-1
EndSplineSet
EndChar

StartChar: section
Encoding: 167 167 104
Width: 536
GlyphClass: 2
Flags: W
LayerCount: 2
Fore
SplineSet
488 492 m 1,0,-1
 256 493 l 2,1,2
 227 493 227 493 206.5 477.5 c 128,-1,3
 186 462 186 462 186 440 c 0,4,5
 186 403 186 403 293 342 c 1,6,-1
 385 291 l 2,7,8
 472 242 472 242 502.5 209 c 128,-1,9
 533 176 533 176 533 129 c 0,10,11
 533 83 533 83 506.5 52 c 128,-1,12
 480 21 480 21 431 10 c 1,13,14
 436 -11 436 -11 436 -28 c 0,15,16
 436 -79 436 -79 398 -123 c 1,17,18
 355 -170 355 -170 281 -170 c 2,19,-1
 50 -170 l 1,20,-1
 50 -82 l 1,21,-1
 283 -82 l 2,22,23
 310 -82 310 -82 330 -66 c 128,-1,24
 350 -50 350 -50 350 -29 c 0,25,26
 350 10 350 10 245 69 c 1,27,-1
 139 130 l 2,28,29
 64 173 64 173 34.5 206.5 c 128,-1,30
 5 240 5 240 5 283 c 0,31,32
 5 374 5 374 106 402 c 1,33,34
 101 417 101 417 101 432 c 0,35,36
 101 491 101 491 143 535 c 1,37,38
 187 583 187 583 263 583 c 2,39,-1
 488 583 l 1,40,-1
 488 492 l 1,0,-1
340 214 m 2,41,-1
 241 271 l 2,42,43
 203 292 203 292 161 326 c 1,44,45
 101 326 101 326 101 292 c 0,46,47
 101 255 101 255 187 205 c 1,48,-1
 290 147 l 1,49,50
 355 107 355 107 376 88 c 1,51,-1
 382 88 l 1,52,-1
 393 88 l 1,53,54
 412 89 412 89 424.5 98 c 128,-1,55
 437 107 437 107 437 121 c 0,56,57
 437 158 437 158 340 214 c 2,41,-1
EndSplineSet
EndChar

StartChar: dieresis
Encoding: 168 168 105
Width: 476
GlyphClass: 2
Flags: W
LayerCount: 2
Fore
SplineSet
134 654 m 128,-1,1
 159 654 159 654 176.5 636.5 c 128,-1,2
 194 619 194 619 194 593 c 0,3,4
 194 569 194 569 176.5 551.5 c 128,-1,5
 159 534 159 534 134 534 c 128,-1,6
 109 534 109 534 91.5 551.5 c 128,-1,7
 74 569 74 569 74 594 c 128,-1,8
 74 619 74 619 91.5 636.5 c 128,-1,0
 109 654 109 654 134 654 c 128,-1,1
342 654 m 128,-1,10
 367 654 367 654 384.5 636.5 c 128,-1,11
 402 619 402 619 402 593 c 0,12,13
 402 569 402 569 384.5 551.5 c 128,-1,14
 367 534 367 534 342 534 c 128,-1,15
 317 534 317 534 299.5 551.5 c 128,-1,16
 282 569 282 569 282 594 c 128,-1,17
 282 619 282 619 299.5 636.5 c 128,-1,9
 317 654 317 654 342 654 c 128,-1,10
EndSplineSet
EndChar

StartChar: copyright
Encoding: 169 169 106
Width: 825
GlyphClass: 2
Flags: W
LayerCount: 2
Fore
SplineSet
509 324 m 0,0,1
 480 324 480 324 473 360 c 0,2,3
 471 374 471 374 451 384.5 c 128,-1,4
 431 395 431 395 406 395 c 0,5,6
 368 395 368 395 343.5 369.5 c 128,-1,7
 319 344 319 344 319 304 c 2,8,-1
 319 270 l 2,9,10
 319 233 319 233 345.5 211 c 128,-1,11
 372 189 372 189 416 189 c 0,12,13
 445 189 445 189 459.5 194.5 c 128,-1,14
 474 200 474 200 491 218 c 0,15,16
 502 229 502 229 516 229 c 128,-1,17
 530 229 530 229 541 218 c 128,-1,18
 552 207 552 207 552 193 c 0,19,20
 552 164 552 164 510 141 c 128,-1,21
 468 118 468 118 415 118 c 0,22,23
 343 118 343 118 295.5 161 c 128,-1,24
 248 204 248 204 248 269 c 2,25,-1
 248 305 l 2,26,27
 248 374 248 374 292.5 420 c 128,-1,28
 337 466 337 466 404 466 c 0,29,30
 445 466 445 466 483 447 c 1,31,32
 511 435 511 435 527 410.5 c 128,-1,33
 543 386 543 386 543 363 c 0,34,35
 543 346 543 346 534.5 335 c 128,-1,36
 526 324 526 324 509 324 c 0,0,1
412 598 m 128,-1,38
 539 598 539 598 629 508.5 c 128,-1,39
 719 419 719 419 719 292 c 0,40,41
 719 164 719 164 629 74.5 c 128,-1,42
 539 -15 539 -15 409 -15 c 0,43,44
 285 -15 285 -15 195.5 75.5 c 128,-1,45
 106 166 106 166 106 292 c 0,46,47
 106 419 106 419 195.5 508.5 c 128,-1,37
 285 598 285 598 412 598 c 128,-1,38
413 525 m 0,48,49
 316 525 316 525 247.5 457 c 128,-1,50
 179 389 179 389 179 292 c 0,51,52
 179 196 179 196 247 127 c 128,-1,53
 315 58 315 58 410 58 c 0,54,55
 509 58 509 58 577.5 126 c 128,-1,56
 646 194 646 194 646 292 c 0,57,58
 646 389 646 389 577.5 457 c 128,-1,59
 509 525 509 525 413 525 c 0,48,49
EndSplineSet
EndChar

StartChar: ordfeminine
Encoding: 170 170 107
Width: 488
GlyphClass: 2
Flags: W
LayerCount: 2
Fore
SplineSet
295 284 m 1,0,-1
 295 295 l 1,1,2
 240 273 240 273 187 273 c 128,-1,3
 134 273 134 273 96.5 301 c 128,-1,4
 59 329 59 329 59 369 c 0,5,6
 59 403 59 403 87 434 c 0,7,8
 134 487 134 487 233 487 c 0,9,10
 259 487 259 487 295 482 c 1,11,-1
 295 490 l 2,12,13
 295 517 295 517 237 517 c 0,14,15
 202 517 202 517 158 506 c 0,16,17
 140 501 140 501 130 501 c 0,18,19
 114 501 114 501 103 512.5 c 128,-1,20
 92 524 92 524 92 541 c 0,21,22
 92 565 92 565 116 575 c 1,23,24
 173 595 173 595 233 595 c 0,25,26
 300 595 300 595 336.5 567.5 c 128,-1,27
 373 540 373 540 373 490 c 2,28,-1
 373 362 l 1,29,-1
 379 362 l 2,30,31
 430 362 430 362 430 323 c 128,-1,32
 430 284 430 284 380 284 c 2,33,-1
 295 284 l 1,0,-1
295 383 m 1,34,-1
 295 410 l 1,35,36
 258 417 258 417 229 417 c 0,37,38
 197 417 197 417 173.5 404 c 128,-1,39
 150 391 150 391 150 374 c 0,40,41
 150 364 150 364 162 358 c 128,-1,42
 174 352 174 352 193 352 c 0,43,44
 250 352 250 352 295 383 c 1,34,-1
373 182 m 2,45,-1
 117 182 l 2,46,47
 84 182 84 182 74.5 190 c 128,-1,48
 65 198 65 198 65 227 c 0,49,50
 65 246 65 246 75.5 252.5 c 128,-1,51
 86 259 86 259 117 259 c 2,52,-1
 372 259 l 2,53,54
 424 259 424 259 424 221 c 0,55,56
 424 182 424 182 373 182 c 2,45,-1
EndSplineSet
EndChar

StartChar: guillemotleft
Encoding: 171 171 108
Width: 669
GlyphClass: 2
Flags: W
LayerCount: 2
Fore
SplineSet
201 218 m 1,0,-1
 352 77 l 2,1,2
 368 62 368 62 368 50 c 128,-1,3
 368 38 368 38 358 29 c 128,-1,4
 348 20 348 20 335 20 c 0,5,6
 324 20 324 20 307 33 c 2,7,-1
 59 218 l 1,8,-1
 307 402 l 2,9,10
 324 415 324 415 336 415 c 0,11,12
 349 415 349 415 358.5 406 c 128,-1,13
 368 397 368 397 368 385 c 0,14,15
 368 371 368 371 352 358 c 1,16,-1
 201 218 l 1,0,-1
430 218 m 1,17,-1
 581 77 l 2,18,19
 597 62 597 62 597 50 c 128,-1,20
 597 38 597 38 587 29 c 128,-1,21
 577 20 577 20 564 20 c 0,22,23
 553 20 553 20 536 33 c 2,24,-1
 288 218 l 1,25,-1
 536 402 l 2,26,27
 553 415 553 415 565 415 c 0,28,29
 578 415 578 415 587.5 406 c 128,-1,30
 597 397 597 397 597 385 c 0,31,32
 597 371 597 371 581 358 c 1,33,-1
 430 218 l 1,17,-1
EndSplineSet
EndChar

StartChar: logicalnot
Encoding: 172 172 109
Width: 585
GlyphClass: 2
Flags: W
LayerCount: 2
Fore
SplineSet
504 445 m 1,0,-1
 504 181 l 2,1,2
 504 149 504 149 495 136 c 0,3,4
 479 115 479 115 454 115 c 0,5,6
 425 115 425 115 411 139 c 0,7,8
 404 152 404 152 404 181 c 2,9,-1
 404 345 l 1,10,-1
 147 345 l 2,11,12
 113 345 113 345 102 355 c 1,13,14
 81 370 81 370 81 395 c 0,15,16
 81 424 81 424 105 438 c 1,17,18
 115 445 115 445 147 445 c 2,19,-1
 504 445 l 1,0,-1
EndSplineSet
EndChar

StartChar: registered
Encoding: 174 174 110
Width: 825
GlyphClass: 2
Flags: W
LayerCount: 2
Fore
SplineSet
549 126 m 1,0,-1
 476 126 l 1,1,2
 467 162 467 162 442.5 199 c 128,-1,3
 418 236 418 236 397 246 c 1,4,-1
 382 246 l 1,5,-1
 382 126 l 1,6,-1
 310 126 l 1,7,-1
 310 458 l 1,8,-1
 405 458 l 2,9,10
 461 458 461 458 496.5 429 c 128,-1,11
 532 400 532 400 532 354 c 0,12,13
 532 326 532 326 515.5 302.5 c 128,-1,14
 499 279 499 279 471 266 c 1,15,16
 528 214 528 214 549 126 c 1,0,-1
382 316 m 1,17,-1
 407 316 l 2,18,19
 430 316 430 316 445.5 327 c 128,-1,20
 461 338 461 338 461 355 c 0,21,22
 461 369 461 369 446.5 378 c 128,-1,23
 432 387 432 387 407 387 c 2,24,-1
 382 387 l 1,25,-1
 382 316 l 1,17,-1
413 598 m 0,26,27
 539 598 539 598 629 508.5 c 128,-1,28
 719 419 719 419 719 292 c 0,29,30
 719 164 719 164 629 74.5 c 128,-1,31
 539 -15 539 -15 409 -15 c 0,32,33
 285 -15 285 -15 195.5 75.5 c 128,-1,34
 106 166 106 166 106 292 c 128,-1,35
 106 418 106 418 196 508 c 128,-1,36
 286 598 286 598 413 598 c 0,26,27
413 525 m 0,37,38
 316 525 316 525 247.5 456.5 c 128,-1,39
 179 388 179 388 179 292 c 128,-1,40
 179 196 179 196 247 127 c 128,-1,41
 315 58 315 58 410 58 c 0,42,43
 509 58 509 58 577.5 126 c 128,-1,44
 646 194 646 194 646 292 c 0,45,46
 646 388 646 388 577.5 456.5 c 128,-1,47
 509 525 509 525 413 525 c 0,37,38
EndSplineSet
EndChar

StartChar: macron
Encoding: 175 175 111
Width: 498
GlyphClass: 2
Flags: W
LayerCount: 2
Fore
SplineSet
127 626 m 2,0,-1
 371 626 l 2,1,2
 403 626 403 626 413 615 c 0,3,4
 424 602 424 602 424 586 c 0,5,6
 424 546 424 546 371 546 c 2,7,-1
 127 546 l 2,8,9
 96 546 96 546 85 558 c 1,10,11
 74 573 74 573 74 586 c 0,12,13
 74 626 74 626 127 626 c 2,0,-1
EndSplineSet
EndChar

StartChar: degree
Encoding: 176 176 112
Width: 484
GlyphClass: 2
Flags: W
LayerCount: 2
Fore
SplineSet
242 596 m 128,-1,1
 315 596 315 596 366 544.5 c 128,-1,2
 417 493 417 493 417 420 c 0,3,4
 417 346 417 346 365.5 294.5 c 128,-1,5
 314 243 314 243 240 243 c 0,6,7
 169 243 169 243 118 295 c 128,-1,8
 67 347 67 347 67 420 c 128,-1,9
 67 493 67 493 118 544.5 c 128,-1,0
 169 596 169 596 242 596 c 128,-1,1
242 535 m 128,-1,11
 195 535 195 535 161.5 501 c 128,-1,12
 128 467 128 467 128 420 c 128,-1,13
 128 373 128 373 161.5 338.5 c 128,-1,14
 195 304 195 304 241 304 c 0,15,16
 289 304 289 304 322.5 338 c 128,-1,17
 356 372 356 372 356 420 c 0,18,19
 356 467 356 467 322.5 501 c 128,-1,10
 289 535 289 535 242 535 c 128,-1,11
EndSplineSet
EndChar

StartChar: plusminus
Encoding: 177 177 113
Width: 678
GlyphClass: 2
Flags: W
LayerCount: 2
Fore
SplineSet
389 330 m 1,0,-1
 389 230 l 2,1,2
 389 198 389 198 380 185 c 0,3,4
 364 164 364 164 339 164 c 0,5,6
 311 164 311 164 296 188 c 0,7,8
 289 201 289 201 289 230 c 2,9,-1
 289 330 l 1,10,-1
 147 330 l 2,11,12
 113 330 113 330 102 340 c 1,13,14
 81 355 81 355 81 380 c 0,15,16
 81 408 81 408 105 423 c 0,17,18
 115 430 115 430 147 430 c 2,19,-1
 289 430 l 1,20,-1
 289 558 l 2,21,22
 289 592 289 592 299 603 c 1,23,24
 314 624 314 624 339 624 c 0,25,26
 368 624 368 624 382 600 c 1,27,28
 389 590 389 590 389 558 c 2,29,-1
 389 430 l 1,30,-1
 530 430 l 2,31,32
 563 430 563 430 576 421 c 0,33,34
 597 405 597 405 597 380 c 0,35,36
 597 351 597 351 573 337 c 0,37,38
 562 330 562 330 530 330 c 2,39,-1
 389 330 l 1,0,-1
147 100 m 2,40,-1
 531 100 l 2,41,42
 563 100 563 100 576 91 c 0,43,44
 597 75 597 75 597 50 c 0,45,46
 597 21 597 21 573 7 c 0,47,48
 562 0 562 0 531 0 c 2,49,-1
 147 0 l 2,50,51
 113 0 113 0 102 10 c 1,52,53
 81 25 81 25 81 50 c 0,54,55
 81 78 81 78 105 93 c 0,56,57
 115 100 115 100 147 100 c 2,40,-1
EndSplineSet
EndChar

StartChar: twosuperior
Encoding: 178 178 114
Width: 364
GlyphClass: 2
Flags: W
LayerCount: 2
Fore
SplineSet
321 314 m 1,0,-1
 321 247 l 1,1,-1
 41 247 l 1,2,-1
 41 315 l 1,3,4
 180 430 180 430 215 464.5 c 128,-1,5
 250 499 250 499 250 520 c 128,-1,6
 250 541 250 541 231.5 555.5 c 128,-1,7
 213 570 213 570 185 570 c 0,8,9
 148 570 148 570 129 546 c 0,10,11
 123 539 123 539 117 520 c 0,12,13
 110 500 110 500 87 500 c 0,14,15
 73 500 73 500 63 509.5 c 128,-1,16
 53 519 53 519 53 533 c 0,17,18
 53 548 53 548 63.5 568 c 128,-1,19
 74 588 74 588 90 602 c 0,20,21
 130 637 130 637 186 637 c 128,-1,22
 242 637 242 637 279.5 603 c 128,-1,23
 317 569 317 569 317 517 c 0,24,25
 317 479 317 479 287 443.5 c 128,-1,26
 257 408 257 408 145 314 c 1,27,-1
 321 314 l 1,0,-1
EndSplineSet
EndChar

StartChar: threesuperior
Encoding: 179 179 115
Width: 359
GlyphClass: 2
Flags: W
LayerCount: 2
Fore
SplineSet
162 484 m 2,0,-1
 187 484 l 2,1,2
 207 484 207 484 222.5 497.5 c 128,-1,3
 238 511 238 511 238 528 c 0,4,5
 238 547 238 547 221 558.5 c 128,-1,6
 204 570 204 570 175 570 c 0,7,8
 132 570 132 570 108 543 c 0,9,10
 98 533 98 533 84 533 c 0,11,12
 71 533 71 533 61 543 c 128,-1,13
 51 553 51 553 51 567 c 0,14,15
 51 595 51 595 89.5 616 c 128,-1,16
 128 637 128 637 178 637 c 0,17,18
 233 637 233 637 269 606.5 c 128,-1,19
 305 576 305 576 305 529 c 0,20,21
 305 480 305 480 257 450 c 0,22,23
 255 449 255 449 254 448 c 1,24,25
 318 415 318 415 318 355 c 0,26,27
 318 300 318 300 272 266 c 0,28,29
 234 238 234 238 161 238 c 0,30,31
 102 238 102 238 67.5 252.5 c 128,-1,32
 33 267 33 267 33 292 c 0,33,34
 33 306 33 306 42.5 316 c 128,-1,35
 52 326 52 326 66 326 c 0,36,37
 77 326 77 326 88 318 c 0,38,39
 108 305 108 305 159 305 c 0,40,41
 251 305 251 305 251 357 c 0,42,43
 251 391 251 391 207 411 c 0,44,45
 193 417 193 417 162 418 c 1,46,47
 128 421 128 421 128 451 c 0,48,49
 128 465 128 465 138 474.5 c 128,-1,50
 148 484 148 484 162 484 c 2,0,-1
EndSplineSet
EndChar

StartChar: acute
Encoding: 180 180 116
Width: 397
GlyphClass: 2
Flags: W
LayerCount: 2
Fore
SplineSet
339 624 m 1,0,-1
 206 512 l 2,1,2
 186 496 186 496 174 496 c 0,3,4
 159 496 159 496 148 507 c 128,-1,5
 137 518 137 518 137 532 c 0,6,7
 137 550 137 550 160 569 c 2,8,-1
 293 680 l 2,9,10
 313 696 313 696 325 696 c 0,11,12
 341 696 341 696 351.5 685.5 c 128,-1,13
 362 675 362 675 362 659 c 0,14,15
 362 642 362 642 339 624 c 1,0,-1
EndSplineSet
EndChar

StartChar: paragraph
Encoding: 182 182 117
Width: 622
GlyphClass: 2
Flags: W
LayerCount: 2
Fore
SplineSet
269 -174 m 1,0,-1
 269 185 l 1,1,2
 172 195 172 195 110 244.5 c 128,-1,3
 48 294 48 294 48 361 c 2,4,-1
 48 407 l 2,5,6
 48 480 48 480 123 531.5 c 128,-1,7
 198 583 198 583 304 583 c 2,8,-1
 501 583 l 2,9,10
 555 583 555 583 555 544 c 128,-1,11
 555 505 555 505 501 505 c 2,12,-1
 467 505 l 1,13,-1
 467 -174 l 1,14,-1
 391 -174 l 1,15,-1
 391 505 l 1,16,-1
 347 505 l 1,17,-1
 347 -174 l 1,18,-1
 269 -174 l 1,0,-1
269 266 m 1,19,-1
 269 500 l 1,20,21
 219 489 219 489 190 464 c 128,-1,22
 161 439 161 439 161 405 c 2,23,-1
 161 361 l 2,24,25
 161 327 161 327 190 302 c 128,-1,26
 219 277 219 277 269 266 c 1,19,-1
EndSplineSet
EndChar

StartChar: periodcentered
Encoding: 183 183 118
Width: 306
GlyphClass: 2
Flags: W
LayerCount: 2
Fore
SplineSet
162 214 m 2,0,-1
 144 214 l 2,1,2
 117 214 117 214 97.5 233.5 c 128,-1,3
 78 253 78 253 78 280 c 128,-1,4
 78 307 78 307 97.5 326.5 c 128,-1,5
 117 346 117 346 144 346 c 2,6,-1
 162 346 l 2,7,8
 190 346 190 346 209 327 c 128,-1,9
 228 308 228 308 228 280 c 128,-1,10
 228 252 228 252 209 233 c 128,-1,11
 190 214 190 214 162 214 c 2,0,-1
EndSplineSet
EndChar

StartChar: cedilla
Encoding: 184 184 119
Width: 441
GlyphClass: 2
Flags: W
LayerCount: 2
Fore
SplineSet
180 0 m 1,0,-1
 250 0 l 1,1,-1
 250 -41 l 1,2,3
 325 -57 325 -57 325 -132 c 0,4,5
 325 -175 325 -175 295 -202 c 128,-1,6
 265 -229 265 -229 218 -229 c 0,7,8
 170 -229 170 -229 126 -205 c 0,9,10
 98 -189 98 -189 98 -166 c 0,11,12
 98 -152 98 -152 108.5 -141.5 c 128,-1,13
 119 -131 119 -131 133 -131 c 0,14,15
 142 -131 142 -131 162 -142 c 0,16,17
 193 -159 193 -159 219 -159 c 0,18,19
 255 -159 255 -159 255 -134 c 0,20,21
 255 -100 255 -100 202 -100 c 0,22,23
 193 -100 193 -100 180 -102 c 1,24,-1
 180 0 l 1,0,-1
EndSplineSet
EndChar

StartChar: onesuperior
Encoding: 185 185 120
Width: 255
GlyphClass: 2
Flags: W
LayerCount: 2
Fore
SplineSet
145 247 m 1,0,-1
 145 551 l 1,1,-1
 97 539 l 2,2,3
 82 535 82 535 77 535 c 0,4,5
 64 535 64 535 55 545.5 c 128,-1,6
 46 556 46 556 46 570 c 128,-1,7
 46 584 46 584 53.5 591.5 c 128,-1,8
 61 599 61 599 80 604 c 2,9,-1
 212 638 l 1,10,-1
 212 247 l 1,11,-1
 145 247 l 1,0,-1
EndSplineSet
EndChar

StartChar: ordmasculine
Encoding: 186 186 121
Width: 446
GlyphClass: 2
Flags: W
LayerCount: 2
Fore
SplineSet
223 595 m 0,0,1
 294 595 294 595 343.5 546.5 c 128,-1,2
 393 498 393 498 393 428 c 0,3,4
 393 364 393 364 343 318.5 c 128,-1,5
 293 273 293 273 223 273 c 0,6,7
 152 273 152 273 102.5 319 c 128,-1,8
 53 365 53 365 53 430 c 0,9,10
 53 498 53 498 103 546.5 c 128,-1,11
 153 595 153 595 223 595 c 0,0,1
223 517 m 128,-1,13
 186 517 186 517 159 491 c 128,-1,14
 132 465 132 465 132 430 c 0,15,16
 132 399 132 399 159.5 375 c 128,-1,17
 187 351 187 351 223 351 c 128,-1,18
 259 351 259 351 286.5 375 c 128,-1,19
 314 399 314 399 314 430 c 0,20,21
 314 465 314 465 287 491 c 128,-1,12
 260 517 260 517 223 517 c 128,-1,13
350 182 m 2,22,-1
 96 182 l 2,23,24
 44 182 44 182 44 221 c 0,25,26
 44 242 44 242 62 253 c 0,27,28
 72 259 72 259 96 259 c 2,29,-1
 350 259 l 2,30,31
 402 259 402 259 402 221 c 0,32,33
 402 182 402 182 350 182 c 2,22,-1
EndSplineSet
EndChar

StartChar: guillemotright
Encoding: 187 187 122
Width: 669
GlyphClass: 2
Flags: W
LayerCount: 2
Fore
SplineSet
469 217 m 1,0,-1
 318 358 l 2,1,2
 302 373 302 373 302 385 c 128,-1,3
 302 397 302 397 312 406 c 128,-1,4
 322 415 322 415 335 415 c 0,5,6
 346 415 346 415 363 402 c 2,7,-1
 610 217 l 1,8,-1
 363 33 l 2,9,10
 346 20 346 20 334 20 c 0,11,12
 321 20 321 20 311.5 29 c 128,-1,13
 302 38 302 38 302 50 c 0,14,15
 302 64 302 64 318 77 c 1,16,-1
 469 217 l 1,0,-1
239 217 m 1,17,-1
 88 358 l 2,18,19
 72 373 72 373 72 385 c 128,-1,20
 72 397 72 397 82 406 c 128,-1,21
 92 415 92 415 105 415 c 0,22,23
 116 415 116 415 133 402 c 2,24,-1
 380 217 l 1,25,-1
 133 33 l 2,26,27
 116 20 116 20 104 20 c 0,28,29
 91 20 91 20 81.5 29 c 128,-1,30
 72 38 72 38 72 50 c 0,31,32
 72 64 72 64 88 77 c 1,33,-1
 239 217 l 1,17,-1
EndSplineSet
EndChar

StartChar: onequarter
Encoding: 188 188 123
Width: 758
GlyphClass: 2
Flags: W
LayerCount: 2
Fore
SplineSet
136 247 m 1,0,-1
 136 551 l 1,1,-1
 88 539 l 2,2,3
 73 535 73 535 68 535 c 0,4,5
 55 535 55 535 46 545.5 c 128,-1,6
 37 556 37 556 37 570 c 128,-1,7
 37 584 37 584 44.5 591.5 c 128,-1,8
 52 599 52 599 71 604 c 2,9,-1
 203 638 l 1,10,-1
 203 247 l 1,11,-1
 136 247 l 1,0,-1
542 528 m 2,12,-1
 282 77 l 2,13,14
 267 51 267 51 248 51 c 0,15,16
 235 51 235 51 224.5 61 c 128,-1,17
 214 71 214 71 214 84 c 0,18,19
 214 94 214 94 224 110 c 2,20,-1
 484 561 l 2,21,22
 500 587 500 587 519 587 c 0,23,24
 532 587 532 587 542.5 577 c 128,-1,25
 553 567 553 567 553 555 c 0,26,27
 553 546 553 546 542 528 c 2,12,-1
661 0 m 1,28,-1
 594 0 l 1,29,-1
 594 83 l 1,30,-1
 431 83 l 1,31,-1
 431 138 l 1,32,-1
 577 380 l 1,33,-1
 661 380 l 1,34,-1
 661 150 l 1,35,36
 698 148 698 148 698 117 c 0,37,38
 698 85 698 85 661 83 c 1,39,-1
 661 0 l 1,28,-1
594 150 m 1,40,-1
 594 279 l 1,41,-1
 515 150 l 1,42,-1
 594 150 l 1,40,-1
EndSplineSet
EndChar

StartChar: onehalf
Encoding: 189 189 124
Width: 735
GlyphClass: 2
Flags: W
LayerCount: 2
Fore
SplineSet
136 247 m 1,0,-1
 136 551 l 1,1,-1
 88 539 l 2,2,3
 73 535 73 535 68 535 c 0,4,5
 55 535 55 535 46 545.5 c 128,-1,6
 37 556 37 556 37 570 c 128,-1,7
 37 584 37 584 44.5 591.5 c 128,-1,8
 52 599 52 599 71 604 c 2,9,-1
 203 638 l 1,10,-1
 203 247 l 1,11,-1
 136 247 l 1,0,-1
542 528 m 2,12,-1
 282 77 l 2,13,14
 267 51 267 51 248 51 c 0,15,16
 235 51 235 51 224.5 61 c 128,-1,17
 214 71 214 71 214 84 c 0,18,19
 214 94 214 94 224 110 c 2,20,-1
 484 561 l 2,21,22
 500 587 500 587 519 587 c 0,23,24
 532 587 532 587 542.5 577 c 128,-1,25
 553 567 553 567 553 555 c 0,26,27
 553 546 553 546 542 528 c 2,12,-1
698 67 m 1,28,-1
 698 0 l 1,29,-1
 418 0 l 1,30,-1
 418 68 l 1,31,32
 557 183 557 183 592 217.5 c 128,-1,33
 627 252 627 252 627 273 c 128,-1,34
 627 294 627 294 608.5 308.5 c 128,-1,35
 590 323 590 323 562 323 c 0,36,37
 525 323 525 323 506 299 c 0,38,39
 500 292 500 292 494 273 c 0,40,41
 487 253 487 253 464 253 c 0,42,43
 450 253 450 253 440 262.5 c 128,-1,44
 430 272 430 272 430 286 c 0,45,46
 430 301 430 301 440.5 321 c 128,-1,47
 451 341 451 341 467 355 c 0,48,49
 507 390 507 390 563 390 c 128,-1,50
 619 390 619 390 656.5 356 c 128,-1,51
 694 322 694 322 694 270 c 0,52,53
 694 232 694 232 664 196.5 c 128,-1,54
 634 161 634 161 522 67 c 1,55,-1
 698 67 l 1,28,-1
EndSplineSet
EndChar

StartChar: threequarters
Encoding: 190 190 125
Width: 771
GlyphClass: 2
Flags: W
LayerCount: 2
Fore
SplineSet
674 0 m 1,0,-1
 607 0 l 1,1,-1
 607 83 l 1,2,-1
 444 83 l 1,3,-1
 444 138 l 1,4,-1
 590 380 l 1,5,-1
 674 380 l 1,6,-1
 674 150 l 1,7,8
 711 148 711 148 711 117 c 0,9,10
 711 85 711 85 674 83 c 1,11,-1
 674 0 l 1,0,-1
607 150 m 1,12,-1
 607 279 l 1,13,-1
 528 150 l 1,14,-1
 607 150 l 1,12,-1
168 484 m 2,15,-1
 193 484 l 2,16,17
 213 484 213 484 228.5 497.5 c 128,-1,18
 244 511 244 511 244 528 c 0,19,20
 244 547 244 547 227 558.5 c 128,-1,21
 210 570 210 570 181 570 c 0,22,23
 138 570 138 570 114 543 c 0,24,25
 104 533 104 533 90 533 c 0,26,27
 77 533 77 533 67 543 c 128,-1,28
 57 553 57 553 57 567 c 0,29,30
 57 595 57 595 95.5 616 c 128,-1,31
 134 637 134 637 184 637 c 0,32,33
 239 637 239 637 275 606.5 c 128,-1,34
 311 576 311 576 311 529 c 0,35,36
 311 480 311 480 263 450 c 0,37,38
 261 449 261 449 260 448 c 1,39,40
 324 415 324 415 324 355 c 0,41,42
 324 300 324 300 278 266 c 0,43,44
 240 238 240 238 167 238 c 0,45,46
 108 238 108 238 73.5 252.5 c 128,-1,47
 39 267 39 267 39 292 c 0,48,49
 39 306 39 306 48.5 316 c 128,-1,50
 58 326 58 326 72 326 c 0,51,52
 83 326 83 326 94 318 c 0,53,54
 114 305 114 305 165 305 c 0,55,56
 257 305 257 305 257 357 c 0,57,58
 257 391 257 391 213 411 c 0,59,60
 199 417 199 417 168 418 c 1,61,62
 134 421 134 421 134 451 c 0,63,64
 134 465 134 465 144 474.5 c 128,-1,65
 154 484 154 484 168 484 c 2,15,-1
556 528 m 2,66,-1
 295 77 l 2,67,68
 280 51 280 51 261 51 c 0,69,70
 247 51 247 51 237 61 c 128,-1,71
 227 71 227 71 227 84 c 0,72,73
 227 94 227 94 237 110 c 2,74,-1
 498 561 l 2,75,76
 512 587 512 587 532 587 c 0,77,78
 545 587 545 587 555.5 577 c 128,-1,79
 566 567 566 567 566 555 c 0,80,81
 566 546 566 546 556 528 c 2,66,-1
EndSplineSet
EndChar

StartChar: questiondown
Encoding: 191 191 126
Width: 516
GlyphClass: 2
Flags: W
LayerCount: 2
Fore
SplineSet
466 -168 m 1,0,1
 394 -203 394 -203 352 -215 c 128,-1,2
 310 -227 310 -227 262 -227 c 0,3,4
 169 -227 169 -227 111 -174.5 c 128,-1,5
 53 -122 53 -122 53 -38 c 0,6,7
 53 23 53 23 89.5 63 c 128,-1,8
 126 103 126 103 217 143 c 1,9,10
 223 197 223 197 267 197 c 0,11,12
 296 197 296 197 310 173 c 0,13,14
 317 160 317 160 317 131 c 2,15,-1
 317 75 l 1,16,17
 221 38 221 38 187 13.5 c 128,-1,18
 153 -11 153 -11 153 -43 c 0,19,20
 153 -80 153 -80 183 -103.5 c 128,-1,21
 213 -127 213 -127 261 -127 c 0,22,23
 316 -127 316 -127 366 -103 c 1,24,-1
 466 -168 l 1,0,1
259 386 m 2,25,-1
 276 386 l 2,26,27
 304 386 304 386 323.5 366.5 c 128,-1,28
 343 347 343 347 343 320 c 128,-1,29
 343 293 343 293 323.5 273.5 c 128,-1,30
 304 254 304 254 276 254 c 2,31,-1
 259 254 l 2,32,33
 231 254 231 254 212 273 c 128,-1,34
 193 292 193 292 193 320 c 128,-1,35
 193 348 193 348 212 367 c 128,-1,36
 231 386 231 386 259 386 c 2,25,-1
EndSplineSet
EndChar

StartChar: AE
Encoding: 198 198 133
Width: 647
GlyphClass: 2
Flags: W
LayerCount: 2
Fore
SplineSet
175 583 m 1,0,-1
 570 583 l 1,1,-1
 570 483 l 1,2,-1
 344 483 l 1,3,-1
 344 342 l 1,4,-1
 463 342 l 1,5,-1
 463 243 l 1,6,-1
 344 243 l 1,7,-1
 344 100 l 1,8,-1
 591 100 l 1,9,-1
 591 0 l 1,10,-1
 244 0 l 1,11,-1
 244 158 l 1,12,-1
 151 158 l 1,13,-1
 105 0 l 1,14,-1
 0 0 l 1,15,-1
 175 583 l 1,0,-1
244 259 m 1,16,-1
 244 471 l 1,17,-1
 180 259 l 1,18,-1
 244 259 l 1,16,-1
EndSplineSet
EndChar

StartChar: Ccedilla
Encoding: 199 199 134
Width: 618
GlyphClass: 2
Flags: W
LayerCount: 2
Fore
SplineSet
314 497 m 0,0,1
 240 497 240 497 189 445.5 c 128,-1,2
 138 394 138 394 138 315 c 2,3,-1
 138 251 l 2,4,5
 138 176 138 176 191.5 131 c 128,-1,6
 245 86 245 86 334 86 c 0,7,8
 407 86 407 86 445 109 c 0,9,10
 456 115 456 115 483 143 c 0,11,12
 499 159 499 159 519 159 c 128,-1,13
 539 159 539 159 554 144 c 128,-1,14
 569 129 569 129 569 108 c 0,15,16
 569 88 569 88 549 65 c 128,-1,17
 529 42 529 42 496 23 c 0,18,19
 439 -8 439 -8 342 -14 c 1,20,-1
 342 -42 l 1,21,22
 417 -57 417 -57 417 -132 c 0,23,24
 417 -174 417 -174 387 -201.5 c 128,-1,25
 357 -229 357 -229 312 -229 c 0,26,27
 253 -229 253 -229 208 -199 c 0,28,29
 190 -186 190 -186 190 -166 c 0,30,31
 190 -152 190 -152 200.5 -141.5 c 128,-1,32
 211 -131 211 -131 225 -131 c 0,33,34
 233 -131 233 -131 254 -142 c 1,35,36
 282 -159 282 -159 311 -159 c 0,37,38
 347 -159 347 -159 347 -134 c 0,39,40
 347 -100 347 -100 297 -100 c 0,41,42
 289 -100 289 -100 272 -102 c 1,43,-1
 272 -9 l 1,44,45
 191 8 191 8 142 43 c 1,46,47
 92 80 92 80 65 134 c 128,-1,48
 38 188 38 188 38 249 c 2,49,-1
 38 315 l 2,50,51
 38 435 38 435 116.5 516 c 128,-1,52
 195 597 195 597 310 597 c 0,53,54
 352 597 352 597 381.5 590 c 128,-1,55
 411 583 411 583 452 563 c 0,56,57
 495 542 495 542 524.5 501 c 128,-1,58
 554 460 554 460 554 423 c 0,59,60
 554 403 554 403 545 388 c 0,61,62
 532 367 532 367 504 367 c 0,63,64
 483 367 483 367 469 381 c 0,65,66
 460 390 460 390 455 420 c 0,67,68
 451 438 451 438 441.5 449.5 c 128,-1,69
 432 461 432 461 411 473 c 0,70,71
 368 497 368 497 314 497 c 0,0,1
EndSplineSet
EndChar

StartChar: Igrave
Encoding: 204 204 139
Width: 304
GlyphClass: 2
Flags: W
LayerCount: 2
Fore
SplineSet
207 0 m 1,0,-1
 107 0 l 1,1,-1
 107 584 l 1,2,-1
 207 584 l 1,3,-1
 207 0 l 1,0,-1
77 824 m 2,4,-1
 210 713 l 2,5,6
 233 694 233 694 233 676 c 0,7,8
 233 662 233 662 222 651 c 128,-1,9
 211 640 211 640 196 640 c 0,10,11
 184 640 184 640 164 656 c 2,12,-1
 31 768 l 1,13,14
 8 786 8 786 8 804 c 0,15,16
 8 819 8 819 18.5 829.5 c 128,-1,17
 29 840 29 840 45 840 c 0,18,19
 57 840 57 840 77 824 c 2,4,-1
EndSplineSet
EndChar

StartChar: Iacute
Encoding: 205 205 140
Width: 322
GlyphClass: 2
Flags: W
LayerCount: 2
Fore
SplineSet
170 0 m 1,0,-1
 70 0 l 1,1,-1
 70 584 l 1,2,-1
 170 584 l 1,3,-1
 170 0 l 1,0,-1
272 768 m 1,4,-1
 139 656 l 2,5,6
 119 640 119 640 107 640 c 0,7,8
 92 640 92 640 81 651 c 128,-1,9
 70 662 70 662 70 676 c 0,10,11
 70 694 70 694 93 713 c 2,12,-1
 226 824 l 2,13,14
 246 840 246 840 258 840 c 0,15,16
 274 840 274 840 284.5 829.5 c 128,-1,17
 295 819 295 819 295 803 c 0,18,19
 295 786 295 786 272 768 c 1,4,-1
EndSplineSet
EndChar

StartChar: Icircumflex
Encoding: 206 206 141
Width: 353
GlyphClass: 2
Flags: W
LayerCount: 2
Fore
SplineSet
227 0 m 1,0,-1
 127 0 l 1,1,-1
 127 584 l 1,2,-1
 227 584 l 1,3,-1
 227 0 l 1,0,-1
177 750 m 1,4,-1
 64 653 l 2,5,6
 48 640 48 640 36 640 c 0,7,8
 22 640 22 640 11.5 650.5 c 128,-1,9
 1 661 1 661 1 675 c 0,10,11
 1 686 1 686 5 691.5 c 128,-1,12
 9 697 9 697 25 710 c 2,13,-1
 177 839 l 1,14,-1
 328 710 l 2,15,16
 334 706 334 706 337 703 c 0,17,18
 352 691 352 691 352 675 c 0,19,20
 352 661 352 661 341.5 650.5 c 128,-1,21
 331 640 331 640 318 640 c 128,-1,22
 305 640 305 640 289 653 c 2,23,-1
 177 750 l 1,4,-1
EndSplineSet
EndChar

StartChar: Eth
Encoding: 208 208 143
Width: 601
GlyphClass: 2
Flags: W
LayerCount: 2
Fore
SplineSet
86 243 m 1,0,-1
 78 243 l 2,1,2
 46 243 46 243 33 253 c 0,3,4
 12 268 12 268 12 293 c 0,5,6
 12 322 12 322 36 336 c 1,7,8
 46 343 46 343 79 343 c 2,9,-1
 86 343 l 1,10,-1
 86 483 l 1,11,12
 25 483 25 483 25 533 c 0,13,14
 25 562 25 562 49 576 c 0,15,16
 60 583 60 583 92 583 c 2,17,-1
 304 583 l 2,18,19
 413 583 413 583 487.5 503 c 128,-1,20
 562 423 562 423 562 305 c 2,21,-1
 562 258 l 2,22,23
 562 148 562 148 492 75 c 0,24,25
 421 0 421 0 296 0 c 2,26,-1
 91 0 l 2,27,28
 59 0 59 0 46 10 c 0,29,30
 25 25 25 25 25 50 c 0,31,32
 25 74 25 74 41 87 c 128,-1,33
 57 100 57 100 86 100 c 1,34,-1
 86 243 l 1,0,-1
186 243 m 1,35,-1
 186 100 l 1,36,-1
 297 100 l 2,37,38
 342 100 342 100 370 110 c 128,-1,39
 398 120 398 120 421 144 c 0,40,41
 462 189 462 189 462 261 c 2,42,-1
 462 307 l 2,43,44
 462 379 462 379 417 432 c 0,45,46
 373 483 373 483 296 483 c 2,47,-1
 186 483 l 1,48,-1
 186 343 l 1,49,-1
 260 343 l 2,50,51
 292 343 292 343 305 334 c 0,52,53
 326 319 326 319 326 293 c 0,54,55
 326 243 326 243 260 243 c 2,56,-1
 186 243 l 1,35,-1
EndSplineSet
EndChar

StartChar: multiply
Encoding: 215 215 150
Width: 592
GlyphClass: 2
Flags: W
LayerCount: 2
Fore
SplineSet
296 209 m 1,0,-1
 193 106 l 2,1,2
 166 80 166 80 146 80 c 128,-1,3
 126 80 126 80 111 95 c 128,-1,4
 96 110 96 110 96 131 c 0,5,6
 96 151 96 151 122 177 c 2,7,-1
 225 280 l 1,8,-1
 122 383 l 2,9,10
 96 410 96 410 96 430 c 128,-1,11
 96 450 96 450 111 465 c 128,-1,12
 126 480 126 480 146 480 c 128,-1,13
 166 480 166 480 193 454 c 2,14,-1
 296 351 l 1,15,-1
 399 454 l 2,16,17
 426 480 426 480 446 480 c 128,-1,18
 466 480 466 480 481 465 c 128,-1,19
 496 450 496 450 496 430 c 128,-1,20
 496 410 496 410 470 383 c 2,21,-1
 367 280 l 1,22,-1
 470 177 l 2,23,24
 496 151 496 151 496 130 c 0,25,26
 496 110 496 110 481 95 c 128,-1,27
 466 80 466 80 446 80 c 0,28,29
 425 80 425 80 399 106 c 2,30,-1
 296 209 l 1,0,-1
EndSplineSet
EndChar

StartChar: Oslash
Encoding: 216 216 151
Width: 617
GlyphClass: 2
Flags: W
LayerCount: 2
Fore
SplineSet
166 28 m 1,0,-1
 112 -40 l 2,1,2
 97 -59 97 -59 88 -64.5 c 128,-1,3
 79 -70 79 -70 65 -70 c 0,4,5
 45 -70 45 -70 30.5 -56 c 128,-1,6
 16 -42 16 -42 16 -23 c 0,7,8
 16 -7 16 -7 37 19 c 2,9,-1
 94 92 l 1,10,11
 27 180 27 180 27 292 c 0,12,13
 27 418 27 418 109 507.5 c 128,-1,14
 191 597 191 597 307 597 c 0,15,16
 384 597 384 597 456 549 c 1,17,-1
 502 607 l 2,18,19
 516 626 516 626 525.5 632 c 128,-1,20
 535 638 535 638 549 638 c 0,21,22
 569 638 569 638 583 624 c 128,-1,23
 597 610 597 610 597 590 c 0,24,25
 597 574 597 574 577 548 c 2,26,-1
 525 483 l 1,27,28
 586 403 586 403 586 291 c 0,29,30
 586 165 586 165 504 75.5 c 128,-1,31
 422 -14 422 -14 307 -14 c 0,32,33
 233 -14 233 -14 166 28 c 1,0,-1
459 400 m 1,34,-1
 228 107 l 1,35,36
 265 86 265 86 307 86 c 0,37,38
 380 86 380 86 433 146.5 c 128,-1,39
 486 207 486 207 486 290 c 0,40,41
 486 351 486 351 459 400 c 1,34,-1
159 174 m 1,42,-1
 394 471 l 1,43,44
 350 497 350 497 306 497 c 0,45,46
 233 497 233 497 180 436.5 c 128,-1,47
 127 376 127 376 127 292 c 0,48,49
 127 228 127 228 159 174 c 1,42,-1
EndSplineSet
EndChar

StartChar: Udieresis
Encoding: 220 220 155
Width: 598
GlyphClass: 2
Flags: W
LayerCount: 2
Fore
SplineSet
195 798 m 128,-1,1
 220 798 220 798 237.5 780.5 c 128,-1,2
 255 763 255 763 255 737 c 0,3,4
 255 713 255 713 237.5 695.5 c 128,-1,5
 220 678 220 678 195 678 c 128,-1,6
 170 678 170 678 152.5 695.5 c 128,-1,7
 135 713 135 713 135 738 c 128,-1,8
 135 763 135 763 152.5 780.5 c 128,-1,0
 170 798 170 798 195 798 c 128,-1,1
403 798 m 128,-1,10
 428 798 428 798 445.5 780.5 c 128,-1,11
 463 763 463 763 463 737 c 0,12,13
 463 713 463 713 445.5 695.5 c 128,-1,14
 428 678 428 678 403 678 c 128,-1,15
 378 678 378 678 360.5 695.5 c 128,-1,16
 343 713 343 713 343 738 c 128,-1,17
 343 763 343 763 360.5 780.5 c 128,-1,9
 378 798 378 798 403 798 c 128,-1,10
528 583 m 1,18,-1
 528 205 l 2,19,20
 528 98 528 98 444 35 c 0,21,22
 380 -14 380 -14 299 -14 c 128,-1,23
 218 -14 218 -14 154 35 c 0,24,25
 70 100 70 100 70 205 c 2,26,-1
 70 583 l 1,27,-1
 170 583 l 1,28,-1
 170 196 l 2,29,30
 170 150 170 150 208 118 c 128,-1,31
 246 86 246 86 299 86 c 128,-1,32
 352 86 352 86 390 118 c 128,-1,33
 428 150 428 150 428 196 c 2,34,-1
 428 583 l 1,35,-1
 528 583 l 1,18,-1
EndSplineSet
EndChar

StartChar: Thorn
Encoding: 222 222 157
Width: 533
GlyphClass: 2
Flags: W
LayerCount: 2
Fore
SplineSet
70 0 m 1,0,-1
 70 583 l 1,1,-1
 170 583 l 1,2,-1
 170 443 l 1,3,-1
 268 443 l 2,4,5
 345 443 345 443 388.5 429.5 c 128,-1,6
 432 416 432 416 463 382 c 0,7,8
 498 344 498 344 498 292 c 0,9,10
 498 239 498 239 463 201 c 0,11,12
 432 167 432 167 388.5 153.5 c 128,-1,13
 345 140 345 140 268 140 c 2,14,-1
 170 140 l 1,15,-1
 170 0 l 1,16,-1
 70 0 l 1,0,-1
170 240 m 1,17,-1
 301 240 l 2,18,19
 351 240 351 240 373.5 252 c 128,-1,20
 396 264 396 264 396 291 c 0,21,22
 396 319 396 319 373.5 331 c 128,-1,23
 351 343 351 343 301 343 c 2,24,-1
 170 343 l 1,25,-1
 170 240 l 1,17,-1
EndSplineSet
EndChar

StartChar: germandbls
Encoding: 223 223 158
Width: 531
GlyphClass: 2
Flags: W
LayerCount: 2
Fore
SplineSet
64 0 m 1,0,-1
 64 478 l 2,1,2
 64 542 64 542 112.5 582.5 c 128,-1,3
 161 623 161 623 237 623 c 128,-1,4
 313 623 313 623 364 575 c 128,-1,5
 415 527 415 527 415 456 c 0,6,7
 415 406 415 406 380 365 c 1,8,9
 498 296 498 296 498 165 c 0,10,11
 498 84 498 84 455.5 34 c 128,-1,12
 413 -16 413 -16 343 -16 c 0,13,14
 291 -16 291 -16 257.5 16 c 128,-1,15
 224 48 224 48 224 97 c 0,16,17
 224 125 224 125 237.5 140.5 c 128,-1,18
 251 156 251 156 274 156 c 128,-1,19
 297 156 297 156 309 142 c 0,20,21
 316 134 316 134 321 113 c 0,22,23
 327 84 327 84 351 84 c 0,24,25
 372 84 372 84 385 106 c 128,-1,26
 398 128 398 128 398 164 c 0,27,28
 398 220 398 220 357 259 c 0,29,30
 320 295 320 295 247 303 c 0,31,32
 192 309 192 309 192 353 c 128,-1,33
 192 397 192 397 245 402 c 0,34,35
 277 406 277 406 290 415 c 0,36,37
 315 431 315 431 315 459 c 128,-1,38
 315 487 315 487 293 505 c 128,-1,39
 271 523 271 523 237 523 c 0,40,41
 164 523 164 523 164 461 c 2,42,-1
 164 0 l 1,43,-1
 64 0 l 1,0,-1
EndSplineSet
EndChar

StartChar: ae
Encoding: 230 230 165
Width: 694
GlyphClass: 2
Flags: W
LayerCount: 2
Fore
SplineSet
657 172 m 1,0,-1
 406 172 l 1,1,2
 419 125 419 125 437.5 104.5 c 128,-1,3
 456 84 456 84 487 84 c 0,4,5
 517 84 517 84 555 101 c 1,6,7
 596 118 596 118 612 118 c 0,8,9
 632 118 632 118 645 103 c 128,-1,10
 658 88 658 88 658 66 c 0,11,12
 658 38 658 38 633 22 c 0,13,14
 607 6 607 6 565.5 -5 c 128,-1,15
 524 -16 524 -16 488 -16 c 0,16,17
 435 -16 435 -16 388 16 c 1,18,19
 374 -1 374 -1 351 -1 c 0,20,21
 330 -1 330 -1 315 16 c 1,22,23
 264 -16 264 -16 205 -16 c 0,24,25
 127 -16 127 -16 80 28 c 128,-1,26
 33 72 33 72 33 145 c 0,27,28
 33 178 33 178 46.5 200.5 c 128,-1,29
 60 223 60 223 91 242 c 0,30,31
 121 261 121 261 163 273.5 c 128,-1,32
 205 286 205 286 241 286 c 0,33,34
 258 286 258 286 301 281 c 1,35,-1
 301 301 l 2,36,37
 301 322 301 322 287.5 336 c 128,-1,38
 274 350 274 350 253 350 c 0,39,40
 234 350 234 350 163 329 c 0,41,42
 151 325 151 325 140 325 c 0,43,44
 120 325 120 325 106 340 c 128,-1,45
 92 355 92 355 92 376 c 0,46,47
 92 412 92 412 133 426 c 0,48,49
 207 450 207 450 253 450 c 0,50,51
 319 450 319 450 369 394 c 1,52,53
 421 450 421 450 481 450 c 0,54,55
 555 450 555 450 609 381 c 0,56,57
 657 319 657 319 657 218 c 2,58,-1
 657 172 l 1,0,-1
301 130 m 1,59,-1
 301 189 l 1,60,61
 270 197 270 197 245 197 c 0,62,63
 182 197 182 197 147 171 c 1,64,65
 134 160 134 160 134 142 c 0,66,67
 134 116 134 116 153 100 c 128,-1,68
 172 84 172 84 204 84 c 0,69,70
 247 84 247 84 301 130 c 1,59,-1
408 258 m 1,71,-1
 548 258 l 1,72,73
 542 297 542 297 533 313 c 0,74,75
 514 350 514 350 478 350 c 0,76,77
 461 350 461 350 445 338 c 128,-1,78
 429 326 429 326 421 307 c 0,79,80
 414 291 414 291 408 258 c 1,71,-1
EndSplineSet
EndChar

StartChar: ccedilla
Encoding: 231 231 166
Width: 595
GlyphClass: 2
Flags: W
LayerCount: 2
Fore
SplineSet
297 42 m 0,0,1
 316 41 316 41 336 18 c 0,2,3
 359 -9 359 -9 331 -15 c 0,4,5
 326 -16 326 -16 321 -16 c 1,6,-1
 321 -42 l 1,7,8
 396 -57 396 -57 396 -133 c 0,9,10
 396 -174 396 -174 366 -201.5 c 128,-1,11
 336 -229 336 -229 291 -229 c 0,12,13
 232 -229 232 -229 187 -199 c 0,14,15
 169 -186 169 -186 169 -166 c 0,16,17
 169 -152 169 -152 179.5 -141.5 c 128,-1,18
 190 -131 190 -131 204 -131 c 0,19,20
 213 -131 213 -131 233 -142 c 0,21,22
 264 -159 264 -159 290 -159 c 0,23,24
 326 -159 326 -159 326 -134 c 0,25,26
 326 -100 326 -100 270 -100 c 0,27,28
 269 -100 269 -100 251 -102 c 1,29,-1
 251 -14 l 1,30,31
 216 -10 216 -10 240 14 c 0,32,33
 263 37 263 37 291 42 c 0,34,35
 294 42 294 42 297 42 c 0,0,1
510 262 m 0,36,37
 497 241 497 241 469 241 c 0,38,39
 447 241 447 241 433 255 c 1,40,41
 424 262 424 262 418 289 c 0,42,43
 413 313 413 313 395 325 c 0,44,45
 354 350 354 350 289 350 c 0,46,47
 215 350 215 350 173 307 c 0,48,49
 133 267 133 267 133 207 c 0,50,51
 133 84 133 84 309 84 c 0,52,53
 375 84 375 84 414 97 c 0,54,55
 433 103 433 103 464 128 c 1,56,57
 477 140 477 140 494 140 c 0,58,59
 514 140 514 140 529 125 c 128,-1,60
 544 110 544 110 544 89 c 0,61,62
 544 49 544 49 480 16 c 1,63,64
 414 -16 414 -16 302 -16 c 0,65,66
 164 -16 164 -16 94 53 c 0,67,68
 33 114 33 114 33 207 c 0,69,70
 33 314 33 314 104.5 382 c 128,-1,71
 176 450 176 450 289 450 c 0,72,73
 369 450 369 450 433 420 c 0,74,75
 468 403 468 403 493.5 367 c 128,-1,76
 519 331 519 331 519 297 c 0,77,78
 519 277 519 277 510 262 c 0,36,37
EndSplineSet
EndChar

StartChar: eth
Encoding: 240 240 175
Width: 582
GlyphClass: 2
Flags: W
LayerCount: 2
Fore
SplineSet
408 583 m 1,0,-1
 363 558 l 1,1,2
 460 491 460 491 504.5 412.5 c 128,-1,3
 549 334 549 334 549 233 c 0,4,5
 549 118 549 118 480 55 c 0,6,7
 401 -16 401 -16 291 -16 c 0,8,9
 184 -16 184 -16 108.5 50.5 c 128,-1,10
 33 117 33 117 33 211 c 0,11,12
 33 307 33 307 104.5 375 c 128,-1,13
 176 443 176 443 277 443 c 0,14,15
 315 443 315 443 344.5 433.5 c 128,-1,16
 374 424 374 424 421 396 c 1,17,18
 358 475 358 475 284 518 c 1,19,-1
 192 468 l 2,20,21
 171 456 171 456 160 456 c 0,22,23
 147 456 147 456 138.5 466.5 c 128,-1,24
 130 477 130 477 130 493 c 0,25,26
 130 503 130 503 134 508 c 128,-1,27
 138 513 138 513 154 522 c 2,28,-1
 204 551 l 1,29,30
 186 559 186 559 183 560 c 0,31,32
 173 564 173 564 165 568 c 1,33,-1
 149 573 l 2,34,35
 123 582 123 582 123 604 c 0,36,37
 123 618 123 618 135 629 c 128,-1,38
 147 640 147 640 163 640 c 0,39,40
 197 640 197 640 262 609 c 2,41,-1
 290 596 l 1,42,-1
 367 637 l 2,43,44
 385 646 385 646 400 646 c 0,45,46
 413 646 413 646 422 636.5 c 128,-1,47
 431 627 431 627 431 613 c 0,48,49
 431 594 431 594 408 583 c 1,0,-1
291 350 m 0,50,51
 226 350 226 350 180.5 310 c 128,-1,52
 135 270 135 270 135 212 c 0,53,54
 135 159 135 159 180.5 121.5 c 128,-1,55
 226 84 226 84 291 84 c 0,56,57
 355 84 355 84 401 121 c 128,-1,58
 447 158 447 158 447 210 c 0,59,60
 447 269 447 269 402 309.5 c 128,-1,61
 357 350 357 350 291 350 c 0,50,51
EndSplineSet
EndChar

StartChar: divide
Encoding: 247 247 182
Width: 678
GlyphClass: 2
Flags: W
LayerCount: 2
Fore
SplineSet
147 330 m 2,0,-1
 531 330 l 2,1,2
 563 330 563 330 576 321 c 0,3,4
 597 305 597 305 597 280 c 0,5,6
 597 251 597 251 573 237 c 0,7,8
 562 230 562 230 531 230 c 2,9,-1
 147 230 l 2,10,11
 113 230 113 230 102 240 c 1,12,13
 81 255 81 255 81 280 c 0,14,15
 81 308 81 308 105 323 c 0,16,17
 115 330 115 330 147 330 c 2,0,-1
339 160 m 128,-1,19
 373 160 373 160 393.5 142 c 128,-1,20
 414 124 414 124 414 93 c 0,21,22
 414 64 414 64 393.5 46 c 128,-1,23
 373 28 373 28 339 28 c 128,-1,24
 305 28 305 28 284.5 46.5 c 128,-1,25
 264 65 264 65 264 94 c 128,-1,26
 264 123 264 123 284.5 141.5 c 128,-1,18
 305 160 305 160 339 160 c 128,-1,19
339 532 m 128,-1,28
 373 532 373 532 393.5 514 c 128,-1,29
 414 496 414 496 414 465 c 0,30,31
 414 436 414 436 393.5 418 c 128,-1,32
 373 400 373 400 339 400 c 128,-1,33
 305 400 305 400 284.5 418.5 c 128,-1,34
 264 437 264 437 264 466 c 128,-1,35
 264 495 264 495 284.5 513.5 c 128,-1,27
 305 532 305 532 339 532 c 128,-1,28
EndSplineSet
EndChar

StartChar: oslash
Encoding: 248 248 183
Width: 611
GlyphClass: 2
Flags: W
LayerCount: 2
Fore
SplineSet
554 402 m 1,0,-1
 512 359 l 1,1,2
 564 293 564 293 564 217 c 0,3,4
 564 119 564 119 489 51.5 c 128,-1,5
 414 -16 414 -16 306 -16 c 0,6,7
 240 -16 240 -16 178 14 c 1,8,-1
 122 -44 l 2,9,10
 96 -70 96 -70 77 -70 c 0,11,12
 57 -70 57 -70 43 -56 c 128,-1,13
 29 -42 29 -42 29 -22 c 0,14,15
 29 -3 29 -3 54 22 c 2,16,-1
 102 72 l 1,17,18
 48 139 48 139 48 217 c 0,19,20
 48 314 48 314 122.5 382 c 128,-1,21
 197 450 197 450 304 450 c 0,22,23
 379 450 379 450 438 419 c 1,24,-1
 486 468 l 2,25,26
 512 494 512 494 532 494 c 128,-1,27
 552 494 552 494 565.5 480 c 128,-1,28
 579 466 579 466 579 447 c 0,29,30
 579 426 579 426 554 402 c 1,0,-1
442 286 m 1,31,-1
 253 91 l 1,32,33
 278 84 278 84 305 84 c 0,34,35
 372 84 372 84 418 122.5 c 128,-1,36
 464 161 464 161 464 217 c 0,37,38
 464 251 464 251 442 286 c 1,31,-1
173 145 m 1,39,-1
 363 342 l 1,40,41
 329 350 329 350 306 350 c 0,42,43
 239 350 239 350 193.5 311.5 c 128,-1,44
 148 273 148 273 148 217 c 0,45,46
 148 179 148 179 173 145 c 1,39,-1
EndSplineSet
EndChar

StartChar: thorn
Encoding: 254 254 189
Width: 595
GlyphClass: 2
Flags: W
LayerCount: 2
Fore
SplineSet
64 -205 m 1,0,-1
 64 624 l 1,1,-1
 164 624 l 1,2,-1
 164 392 l 1,3,4
 201 424 201 424 236 437 c 128,-1,5
 271 450 271 450 318 450 c 0,6,7
 422 450 422 450 491.5 385.5 c 128,-1,8
 561 321 561 321 561 224 c 0,9,10
 561 132 561 132 492 71 c 128,-1,11
 423 10 423 10 319 10 c 0,12,13
 237 10 237 10 164 66 c 1,14,-1
 164 -205 l 1,15,-1
 64 -205 l 1,0,-1
313 350 m 0,16,17
 250 350 250 350 212 321 c 0,18,19
 190 305 190 305 177 280 c 128,-1,20
 164 255 164 255 164 231 c 0,21,22
 164 178 164 178 205.5 144 c 128,-1,23
 247 110 247 110 313 110 c 0,24,25
 378 110 378 110 419.5 144 c 128,-1,26
 461 178 461 178 461 230 c 0,27,28
 461 255 461 255 448 280 c 128,-1,29
 435 305 435 305 413 321 c 0,30,31
 375 350 375 350 313 350 c 0,16,17
EndSplineSet
EndChar

StartChar: Amacron
Encoding: 256 256 191
Width: 595
GlyphClass: 2
Flags: W
LayerCount: 2
Fore
SplineSet
176 769 m 2,0,-1
 420 769 l 2,1,2
 452 769 452 769 462 758 c 0,3,4
 473 745 473 745 473 729 c 0,5,6
 473 689 473 689 420 689 c 2,7,-1
 176 689 l 2,8,9
 145 689 145 689 134 701 c 1,10,11
 123 716 123 716 123 729 c 0,12,13
 123 769 123 769 176 769 c 2,0,-1
3 0 m 1,14,-1
 240 583 l 1,15,-1
 352 583 l 1,16,-1
 592 0 l 1,17,-1
 476 0 l 1,18,-1
 414 158 l 1,19,-1
 176 158 l 1,20,-1
 114 0 l 1,21,-1
 3 0 l 1,14,-1
373 258 m 1,22,-1
 295 450 l 1,23,-1
 216 258 l 1,24,-1
 373 258 l 1,22,-1
EndSplineSet
EndChar

StartChar: Aogonek
Encoding: 260 260 195
Width: 618
GlyphClass: 2
Flags: W
LayerCount: 2
Fore
SplineSet
481 0 m 1,0,-1
 475 0 l 1,1,-1
 413 158 l 1,2,-1
 175 158 l 1,3,-1
 112 0 l 1,4,-1
 3 0 l 1,5,-1
 239 583 l 1,6,-1
 351 583 l 1,7,-1
 591 0 l 1,8,9
 579 -2 579 -2 568 -8 c 0,10,11
 529 -31 529 -31 504 -59.5 c 128,-1,12
 479 -88 479 -88 479 -112 c 0,13,14
 479 -132 479 -132 503 -132 c 0,15,16
 518 -132 518 -132 554 -114 c 0,17,18
 566 -108 566 -108 576 -108 c 0,19,20
 592 -108 592 -108 603.5 -119 c 128,-1,21
 615 -130 615 -130 615 -146 c 0,22,23
 615 -173 615 -173 580 -189 c 0,24,25
 537 -208 537 -208 496 -208 c 0,26,27
 452 -208 452 -208 427 -184 c 128,-1,28
 402 -160 402 -160 402 -119 c 0,29,30
 402 -82 402 -82 419.5 -55.5 c 128,-1,31
 437 -29 437 -29 481 0 c 1,0,-1
372 258 m 1,32,-1
 294 450 l 1,33,-1
 215 258 l 1,34,-1
 372 258 l 1,32,-1
EndSplineSet
EndChar

StartChar: aogonek
Encoding: 261 261 196
Width: 573
GlyphClass: 2
Flags: W
LayerCount: 2
Fore
SplineSet
480 0 m 1,0,1
 406 -46 406 -46 386 -80 c 0,2,3
 377 -96 377 -96 377 -112 c 0,4,5
 377 -132 377 -132 401 -132 c 0,6,7
 416 -132 416 -132 452 -114 c 0,8,9
 464 -108 464 -108 474 -108 c 0,10,11
 490 -108 490 -108 501.5 -119 c 128,-1,12
 513 -130 513 -130 513 -146 c 0,13,14
 513 -173 513 -173 478 -189 c 0,15,16
 435 -208 435 -208 394 -208 c 0,17,18
 350 -208 350 -208 325 -184 c 128,-1,19
 300 -160 300 -160 300 -119 c 0,20,21
 300 -82 300 -82 317.5 -55.5 c 128,-1,22
 335 -29 335 -29 379 0 c 1,23,-1
 379 23 l 1,24,25
 304 -16 304 -16 213 -16 c 0,26,27
 139 -16 139 -16 86 23.5 c 128,-1,28
 33 63 33 63 33 119 c 0,29,30
 33 168 33 168 72 212 c 0,31,32
 140 288 140 288 275 288 c 0,33,34
 320 288 320 288 379 278 c 1,35,-1
 379 301 l 2,36,37
 379 350 379 350 286 350 c 0,38,39
 235 350 235 350 170 333 c 0,40,41
 145 327 145 327 130 327 c 0,42,43
 109 327 109 327 95 341.5 c 128,-1,44
 81 356 81 356 81 378 c 0,45,46
 81 410 81 410 111 420 c 0,47,48
 196 450 196 450 283 450 c 0,49,50
 375 450 375 450 427.5 411 c 128,-1,51
 480 372 480 372 480 302 c 2,52,-1
 480 0 l 1,0,1
380 135 m 1,53,-1
 380 185 l 1,54,55
 317 196 317 196 269 196 c 0,56,57
 218 196 218 196 178.5 174 c 128,-1,58
 139 152 139 152 139 123 c 0,59,60
 139 106 139 106 161 95 c 128,-1,61
 183 84 183 84 215 84 c 0,62,63
 297 84 297 84 380 135 c 1,53,-1
EndSplineSet
EndChar

StartChar: Ccircumflex
Encoding: 264 264 199
Width: 618
GlyphClass: 2
Flags: W
LayerCount: 2
Fore
SplineSet
294 710 m 1,0,-1
 185 616 l 2,1,2
 170 604 170 604 158 604 c 0,3,4
 144 604 144 604 134 614.5 c 128,-1,5
 124 625 124 625 124 637 c 0,6,7
 124 648 124 648 127.5 653 c 128,-1,8
 131 658 131 658 147 671 c 2,9,-1
 294 797 l 1,10,-1
 440 671 l 1,11,12
 446 671 446 671 449 664 c 1,13,14
 464 653 464 653 464 637 c 0,15,16
 464 625 464 625 454 614.5 c 128,-1,17
 444 604 444 604 431 604 c 128,-1,18
 418 604 418 604 403 616 c 2,19,-1
 294 710 l 1,0,-1
545 388 m 0,20,21
 532 367 532 367 504 367 c 0,22,23
 483 367 483 367 469 381 c 0,24,25
 460 390 460 390 455 420 c 0,26,27
 451 438 451 438 441.5 449.5 c 128,-1,28
 432 461 432 461 411 473 c 0,29,30
 368 497 368 497 314 497 c 0,31,32
 238 497 238 497 188 445.5 c 128,-1,33
 138 394 138 394 138 315 c 2,34,-1
 138 251 l 2,35,36
 138 176 138 176 191.5 131 c 128,-1,37
 245 86 245 86 335 86 c 0,38,39
 407 86 407 86 445 109 c 0,40,41
 456 115 456 115 483 143 c 0,42,43
 499 159 499 159 519 159 c 128,-1,44
 539 159 539 159 554 144 c 128,-1,45
 569 129 569 129 569 109 c 0,46,47
 569 73 569 73 516 36 c 1,48,49
 447 -14 447 -14 332 -14 c 0,50,51
 205 -14 205 -14 121.5 60.5 c 128,-1,52
 38 135 38 135 38 249 c 2,53,-1
 38 315 l 2,54,55
 38 435 38 435 116 516 c 128,-1,56
 194 597 194 597 310 597 c 0,57,58
 381 597 381 597 452 563 c 0,59,60
 495 542 495 542 524.5 501 c 128,-1,61
 554 460 554 460 554 423 c 0,62,63
 554 403 554 403 545 388 c 0,20,21
EndSplineSet
EndChar

StartChar: ccircumflex
Encoding: 265 265 200
Width: 583
GlyphClass: 2
Flags: W
LayerCount: 2
Fore
SplineSet
278 569 m 1,0,-1
 169 475 l 2,1,2
 154 463 154 463 142 463 c 0,3,4
 128 463 128 463 118 473.5 c 128,-1,5
 108 484 108 484 108 496 c 0,6,7
 108 507 108 507 111.5 512 c 128,-1,8
 115 517 115 517 131 530 c 2,9,-1
 278 656 l 1,10,-1
 424 530 l 1,11,12
 429 530 429 530 433 523 c 1,13,14
 448 512 448 512 448 496 c 0,15,16
 448 484 448 484 438 473.5 c 128,-1,17
 428 463 428 463 415 463 c 128,-1,18
 402 463 402 463 387 475 c 2,19,-1
 278 569 l 1,0,-1
510 262 m 0,20,21
 497 241 497 241 469 241 c 0,22,23
 447 241 447 241 433 255 c 1,24,25
 424 262 424 262 418 289 c 0,26,27
 413 313 413 313 395 325 c 0,28,29
 354 350 354 350 289 350 c 0,30,31
 215 350 215 350 173 307 c 0,32,33
 133 267 133 267 133 207 c 0,34,35
 133 84 133 84 309 84 c 0,36,37
 375 84 375 84 414 97 c 0,38,39
 433 103 433 103 464 128 c 1,40,41
 477 140 477 140 494 140 c 0,42,43
 514 140 514 140 529 125 c 128,-1,44
 544 110 544 110 544 89 c 0,45,46
 544 49 544 49 480 16 c 1,47,48
 414 -16 414 -16 302 -16 c 0,49,50
 164 -16 164 -16 94 53 c 0,51,52
 33 114 33 114 33 207 c 0,53,54
 33 314 33 314 104.5 382 c 128,-1,55
 176 450 176 450 289 450 c 0,56,57
 369 450 369 450 433 420 c 0,58,59
 468 403 468 403 493.5 367 c 128,-1,60
 519 331 519 331 519 297 c 0,61,62
 519 277 519 277 510 262 c 0,20,21
EndSplineSet
EndChar

StartChar: ccaron
Encoding: 269 269 204
Width: 586
GlyphClass: 2
Flags: W
LayerCount: 2
Fore
SplineSet
300 586 m 1,0,-1
 412 682 l 2,1,2
 427 696 427 696 441 696 c 0,3,4
 454 696 454 696 464.5 685 c 128,-1,5
 475 674 475 674 475 660 c 0,6,7
 475 644 475 644 460 632 c 2,8,-1
 451 625 l 1,9,-1
 300 497 l 1,10,-1
 148 625 l 2,11,12
 132 638 132 638 128 644 c 128,-1,13
 124 650 124 650 124 660 c 0,14,15
 124 674 124 674 134.5 685 c 128,-1,16
 145 696 145 696 159 696 c 0,17,18
 170 696 170 696 187 682 c 2,19,-1
 300 586 l 1,0,-1
510 262 m 0,20,21
 497 241 497 241 469 241 c 0,22,23
 447 241 447 241 433 255 c 1,24,25
 424 262 424 262 418 289 c 0,26,27
 413 313 413 313 395 325 c 0,28,29
 354 350 354 350 289 350 c 0,30,31
 215 350 215 350 173 307 c 0,32,33
 133 267 133 267 133 207 c 0,34,35
 133 84 133 84 309 84 c 0,36,37
 375 84 375 84 414 97 c 0,38,39
 433 103 433 103 464 128 c 1,40,41
 477 140 477 140 494 140 c 0,42,43
 514 140 514 140 529 125 c 128,-1,44
 544 110 544 110 544 89 c 0,45,46
 544 49 544 49 480 16 c 1,47,48
 414 -16 414 -16 302 -16 c 0,49,50
 164 -16 164 -16 94 53 c 0,51,52
 33 114 33 114 33 207 c 0,53,54
 33 314 33 314 104.5 382 c 128,-1,55
 176 450 176 450 289 450 c 0,56,57
 369 450 369 450 433 420 c 0,58,59
 468 403 468 403 493.5 367 c 128,-1,60
 519 331 519 331 519 297 c 0,61,62
 519 277 519 277 510 262 c 0,20,21
EndSplineSet
EndChar

StartChar: dcaron
Encoding: 271 271 206
Width: 563
GlyphClass: 2
Flags: W
LayerCount: 2
Fore
SplineSet
532 0 m 1,0,-1
 432 0 l 1,1,-1
 432 35 l 1,2,3
 360 -14 360 -14 281 -14 c 0,4,5
 172 -14 172 -14 104 51 c 0,6,7
 34 119 34 119 34 219 c 128,-1,8
 34 319 34 319 104 386 c 0,9,10
 172 451 172 451 282 451 c 0,11,12
 369 451 369 451 432 401 c 1,13,-1
 432 624 l 1,14,-1
 532 624 l 1,15,-1
 532 495 l 1,16,-1
 608 611 l 2,17,18
 625 637 625 637 646 637 c 0,19,20
 661 637 661 637 671.5 626.5 c 128,-1,21
 682 616 682 616 682 600 c 0,22,23
 682 590 682 590 669 570 c 2,24,-1
 587 445 l 2,25,26
 569 419 569 419 550 419 c 0,27,28
 543 419 543 419 532 423 c 1,29,-1
 532 0 l 1,0,-1
282 351 m 0,30,31
 213 351 213 351 173 311 c 0,32,33
 134 272 134 272 134 219 c 0,34,35
 134 167 134 167 173 126 c 1,36,37
 214 86 214 86 283 86 c 128,-1,38
 352 86 352 86 393 126 c 0,39,40
 432 165 432 165 432 217 c 0,41,42
 432 272 432 272 393 311 c 0,43,44
 352 351 352 351 282 351 c 0,30,31
EndSplineSet
EndChar

StartChar: Dcroat
Encoding: 272 272 207
Width: 601
GlyphClass: 2
Flags: W
LayerCount: 2
Fore
SplineSet
80 243 m 2,0,1
 46 243 46 243 33 253 c 0,2,3
 12 268 12 268 12 293 c 0,4,5
 12 322 12 322 36 336 c 1,6,7
 46 343 46 343 79 343 c 2,8,-1
 260 343 l 2,9,10
 292 343 292 343 305 334 c 0,11,12
 326 319 326 319 326 293 c 0,13,14
 326 243 326 243 260 243 c 2,15,-1
 80 243 l 2,0,1
296 0 m 2,16,-1
 86 0 l 1,17,-1
 86 583 l 1,18,-1
 82 583 l 1,19,-1
 304 583 l 2,20,21
 413 583 413 583 487.5 503 c 128,-1,22
 562 423 562 423 562 305 c 2,23,-1
 562 258 l 2,24,25
 562 148 562 148 492 75 c 0,26,27
 421 0 421 0 296 0 c 2,16,-1
186 100 m 1,28,-1
 297 100 l 2,29,30
 342 100 342 100 370 110 c 128,-1,31
 398 120 398 120 421 144 c 0,32,33
 462 189 462 189 462 261 c 2,34,-1
 462 307 l 2,35,36
 462 379 462 379 417 432 c 0,37,38
 373 483 373 483 296 483 c 2,39,-1
 186 483 l 1,40,-1
 186 100 l 1,28,-1
EndSplineSet
EndChar

StartChar: dcroat
Encoding: 273 273 208
Width: 620
GlyphClass: 2
Flags: W
LayerCount: 2
Fore
SplineSet
532 507 m 1,0,-1
 548 507 l 2,1,2
 580 507 580 507 594 498 c 1,3,4
 614 483 614 483 614 457 c 0,5,6
 614 407 614 407 548 407 c 2,7,-1
 532 407 l 1,8,-1
 532 100 l 1,9,-1
 548 100 l 2,10,11
 581 100 581 100 594 91 c 1,12,13
 614 74 614 74 614 50 c 0,14,15
 614 21 614 21 590 7 c 0,16,17
 579 0 579 0 548 0 c 2,18,-1
 432 0 l 1,19,-1
 432 24 l 1,20,21
 364 -16 364 -16 284 -16 c 0,22,23
 173 -16 173 -16 103.5 46.5 c 128,-1,24
 34 109 34 109 34 209 c 0,25,26
 34 311 34 311 105.5 380.5 c 128,-1,27
 177 450 177 450 282 450 c 0,28,29
 362 450 362 450 432 404 c 1,30,-1
 432 525 l 1,31,-1
 416 525 l 2,32,33
 383 525 383 525 371 534 c 0,34,35
 350 550 350 550 350 575 c 0,36,37
 350 603 350 603 374 617 c 0,38,39
 385 624 385 624 416 624 c 2,40,-1
 532 624 l 1,41,-1
 532 507 l 1,0,-1
283 350 m 0,42,43
 220 350 220 350 177 309 c 128,-1,44
 134 268 134 268 134 207 c 0,45,46
 134 151 134 151 174.5 117.5 c 128,-1,47
 215 84 215 84 283 84 c 128,-1,48
 351 84 351 84 391.5 117 c 128,-1,49
 432 150 432 150 432 206 c 0,50,51
 432 268 432 268 389.5 309 c 128,-1,52
 347 350 347 350 283 350 c 0,42,43
EndSplineSet
EndChar

StartChar: Emacron
Encoding: 274 274 209
Width: 582
GlyphClass: 2
Flags: W
LayerCount: 2
Fore
SplineSet
154 769 m 2,0,-1
 398 769 l 2,1,2
 430 769 430 769 440 758 c 0,3,4
 451 745 451 745 451 729 c 0,5,6
 451 689 451 689 398 689 c 2,7,-1
 154 689 l 2,8,9
 123 689 123 689 112 701 c 1,10,11
 101 716 101 716 101 729 c 0,12,13
 101 769 101 769 154 769 c 2,0,-1
504 583 m 1,14,-1
 504 483 l 1,15,-1
 170 483 l 1,16,-1
 170 342 l 1,17,-1
 354 342 l 1,18,-1
 354 243 l 1,19,-1
 170 243 l 1,20,-1
 170 100 l 1,21,-1
 526 100 l 1,22,-1
 526 0 l 1,23,-1
 70 0 l 1,24,-1
 70 583 l 1,25,-1
 504 583 l 1,14,-1
EndSplineSet
EndChar

StartChar: emacron
Encoding: 275 275 210
Width: 587
GlyphClass: 2
Flags: W
LayerCount: 2
Fore
SplineSet
178 626 m 2,0,-1
 422 626 l 2,1,2
 454 626 454 626 464 615 c 0,3,4
 475 602 475 602 475 586 c 0,5,6
 475 546 475 546 422 546 c 2,7,-1
 178 546 l 2,8,9
 147 546 147 546 136 558 c 1,10,11
 125 573 125 573 125 586 c 0,12,13
 125 626 125 626 178 626 c 2,0,-1
550 172 m 1,14,-1
 142 172 l 1,15,16
 176 84 176 84 306 84 c 0,17,18
 362 84 362 84 469 112 c 0,19,20
 489 117 489 117 502 117 c 0,21,22
 522 117 522 117 536 102.5 c 128,-1,23
 550 88 550 88 550 67 c 0,24,25
 550 38 550 38 515 22 c 0,26,27
 481 7 481 7 415.5 -4.5 c 128,-1,28
 350 -16 350 -16 297 -16 c 0,29,30
 181 -16 181 -16 107 49 c 128,-1,31
 33 114 33 114 33 216 c 0,32,33
 33 315 33 315 107.5 382.5 c 128,-1,34
 182 450 182 450 291 450 c 0,35,36
 403 450 403 450 476.5 382 c 128,-1,37
 550 314 550 314 550 211 c 2,38,-1
 550 172 l 1,14,-1
145 260 m 1,39,-1
 439 260 l 1,40,41
 427 301 427 301 387 325.5 c 128,-1,42
 347 350 347 350 292 350 c 128,-1,43
 237 350 237 350 196.5 325 c 128,-1,44
 156 300 156 300 145 260 c 1,39,-1
EndSplineSet
EndChar

StartChar: Eogonek
Encoding: 280 280 215
Width: 619
GlyphClass: 2
Flags: W
LayerCount: 2
Fore
SplineSet
526 0 m 1,0,1
 472 -37 472 -37 449 -62.5 c 128,-1,2
 426 -88 426 -88 426 -112 c 0,3,4
 426 -132 426 -132 450 -132 c 0,5,6
 467 -132 467 -132 502 -114 c 0,7,8
 514 -108 514 -108 524 -108 c 0,9,10
 540 -108 540 -108 551.5 -119 c 128,-1,11
 563 -130 563 -130 563 -146 c 0,12,13
 563 -173 563 -173 528 -189 c 0,14,15
 485 -208 485 -208 443 -208 c 0,16,17
 399 -208 399 -208 374 -184 c 128,-1,18
 349 -160 349 -160 349 -119 c 0,19,20
 349 -82 349 -82 366.5 -55.5 c 128,-1,21
 384 -29 384 -29 428 0 c 1,22,-1
 70 0 l 1,23,-1
 70 583 l 1,24,-1
 504 583 l 1,25,-1
 504 483 l 1,26,-1
 170 483 l 1,27,-1
 170 342 l 1,28,-1
 354 342 l 1,29,-1
 354 243 l 1,30,-1
 170 243 l 1,31,-1
 170 100 l 1,32,-1
 526 100 l 1,33,-1
 526 0 l 1,0,1
EndSplineSet
EndChar

StartChar: eogonek
Encoding: 281 281 216
Width: 587
GlyphClass: 2
Flags: W
LayerCount: 2
Fore
SplineSet
550 172 m 1,0,-1
 142 172 l 1,1,2
 176 84 176 84 306 84 c 0,3,4
 362 84 362 84 469 112 c 0,5,6
 489 117 489 117 502 117 c 0,7,8
 522 117 522 117 536 102.5 c 128,-1,9
 550 88 550 88 550 67 c 0,10,11
 550 37 550 37 508 19 c 1,12,13
 440 -8 440 -8 400 -43.5 c 128,-1,14
 360 -79 360 -79 360 -112 c 0,15,16
 360 -132 360 -132 384 -132 c 0,17,18
 399 -132 399 -132 435 -114 c 0,19,20
 447 -108 447 -108 457 -108 c 0,21,22
 473 -108 473 -108 484.5 -119 c 128,-1,23
 496 -130 496 -130 496 -146 c 0,24,25
 496 -173 496 -173 461 -189 c 0,26,27
 418 -208 418 -208 377 -208 c 0,28,29
 333 -208 333 -208 308 -184 c 128,-1,30
 283 -160 283 -160 283 -119 c 0,31,32
 283 -57 283 -57 341 -14 c 1,33,34
 321 -16 321 -16 299 -16 c 0,35,36
 181 -16 181 -16 107 48.5 c 128,-1,37
 33 113 33 113 33 216 c 0,38,39
 33 315 33 315 107.5 382.5 c 128,-1,40
 182 450 182 450 291 450 c 0,41,42
 403 450 403 450 476.5 382 c 128,-1,43
 550 314 550 314 550 211 c 2,44,-1
 550 172 l 1,0,-1
145 260 m 1,45,-1
 439 260 l 1,46,47
 427 301 427 301 387 325.5 c 128,-1,48
 347 350 347 350 292 350 c 128,-1,49
 237 350 237 350 196.5 325 c 128,-1,50
 156 300 156 300 145 260 c 1,45,-1
EndSplineSet
EndChar

StartChar: ecaron
Encoding: 283 283 218
Width: 587
GlyphClass: 2
Flags: W
LayerCount: 2
Fore
SplineSet
301 586 m 1,0,-1
 413 682 l 2,1,2
 428 696 428 696 442 696 c 0,3,4
 455 696 455 696 465.5 685 c 128,-1,5
 476 674 476 674 476 660 c 0,6,7
 476 644 476 644 461 632 c 2,8,-1
 452 625 l 1,9,-1
 301 497 l 1,10,-1
 149 625 l 2,11,12
 133 638 133 638 129 644 c 128,-1,13
 125 650 125 650 125 660 c 0,14,15
 125 674 125 674 135.5 685 c 128,-1,16
 146 696 146 696 160 696 c 0,17,18
 171 696 171 696 188 682 c 2,19,-1
 301 586 l 1,0,-1
550 172 m 1,20,-1
 142 172 l 1,21,22
 176 84 176 84 306 84 c 0,23,24
 362 84 362 84 469 112 c 0,25,26
 489 117 489 117 502 117 c 0,27,28
 522 117 522 117 536 102.5 c 128,-1,29
 550 88 550 88 550 67 c 0,30,31
 550 38 550 38 515 22 c 0,32,33
 481 7 481 7 415.5 -4.5 c 128,-1,34
 350 -16 350 -16 297 -16 c 0,35,36
 181 -16 181 -16 107 49 c 128,-1,37
 33 114 33 114 33 216 c 0,38,39
 33 315 33 315 107.5 382.5 c 128,-1,40
 182 450 182 450 291 450 c 0,41,42
 403 450 403 450 476.5 382 c 128,-1,43
 550 314 550 314 550 211 c 2,44,-1
 550 172 l 1,20,-1
145 260 m 1,45,-1
 439 260 l 1,46,47
 427 301 427 301 387 325.5 c 128,-1,48
 347 350 347 350 292 350 c 128,-1,49
 237 350 237 350 196.5 325 c 128,-1,50
 156 300 156 300 145 260 c 1,45,-1
EndSplineSet
EndChar

StartChar: Gcommaaccent
Encoding: 290 290 225
Width: 612
GlyphClass: 2
Flags: W
LayerCount: 2
Fore
SplineSet
343 -126 m 2,0,-1
 261 -252 l 2,1,2
 245 -278 245 -278 225 -278 c 0,3,4
 210 -278 210 -278 199 -267.5 c 128,-1,5
 188 -257 188 -257 188 -243 c 256,6,7
 188 -229 188 -229 200 -211 c 2,8,-1
 282 -85 l 2,9,10
 292 -70 292 -70 300 -64.5 c 128,-1,11
 308 -59 308 -59 320 -59 c 0,12,13
 335 -59 335 -59 345.5 -70 c 128,-1,14
 356 -81 356 -81 356 -96 c 0,15,16
 356 -106 356 -106 343 -126 c 2,0,-1
343 180 m 1,17,-1
 343 280 l 1,18,-1
 555 279 l 1,19,-1
 555 48 l 1,20,21
 489 13 489 13 442 -0.5 c 128,-1,22
 395 -14 395 -14 336 -14 c 0,23,24
 263 -14 263 -14 202 6.5 c 128,-1,25
 141 27 141 27 104 65 c 0,26,27
 74 97 74 97 56 145.5 c 128,-1,28
 38 194 38 194 38 246 c 2,29,-1
 38 317 l 2,30,31
 38 374 38 374 60.5 427 c 128,-1,32
 83 480 83 480 122 520 c 1,33,34
 201 597 201 597 322 597 c 0,35,36
 405 597 405 597 467 565 c 0,37,38
 495 551 495 551 525.5 517 c 128,-1,39
 556 483 556 483 556 445 c 0,40,41
 556 426 556 426 546 408 c 0,42,43
 535 387 535 387 505 387 c 0,44,45
 484 387 484 387 470 402 c 0,46,47
 464 409 464 409 456 440 c 0,48,49
 449 466 449 466 413.5 481.5 c 128,-1,50
 378 497 378 497 323 497 c 0,51,52
 238 497 238 497 191 450 c 0,53,54
 167 425 167 425 152.5 389.5 c 128,-1,55
 138 354 138 354 138 317 c 2,56,-1
 138 253 l 2,57,58
 138 168 138 168 183 130 c 0,59,60
 235 86 235 86 330 86 c 0,61,62
 400 86 400 86 455 111 c 1,63,-1
 455 180 l 1,64,-1
 343 180 l 1,17,-1
EndSplineSet
EndChar

StartChar: gcommaaccent
Encoding: 291 291 226
Width: 575
GlyphClass: 2
Flags: W
LayerCount: 2
Fore
SplineSet
379 654 m 2,0,-1
 297 528 l 2,1,2
 280 502 280 502 261 502 c 0,3,4
 246 502 246 502 235 512.5 c 128,-1,5
 224 523 224 523 224 537 c 128,-1,6
 224 551 224 551 236 569 c 2,7,-1
 318 695 l 2,8,9
 335 721 335 721 356 721 c 0,10,11
 371 721 371 721 381.5 710 c 128,-1,12
 392 699 392 699 392 684 c 0,13,14
 392 674 392 674 379 654 c 2,0,-1
511 437 m 1,15,-1
 511 -20 l 2,16,17
 511 -99 511 -99 456.5 -152 c 128,-1,18
 402 -205 402 -205 320 -205 c 2,19,-1
 208 -205 l 2,20,21
 174 -205 174 -205 163 -195 c 1,22,23
 142 -180 142 -180 142 -155 c 0,24,25
 142 -126 142 -126 166 -112 c 1,26,27
 176 -105 176 -105 208 -105 c 2,28,-1
 317 -105 l 2,29,30
 360 -105 360 -105 385.5 -82 c 128,-1,31
 411 -59 411 -59 411 -20 c 2,32,-1
 411 35 l 1,33,34
 345 -14 345 -14 270 -14 c 0,35,36
 169 -14 169 -14 101.5 52.5 c 128,-1,37
 34 119 34 119 34 218 c 0,38,39
 34 318 34 318 101.5 384.5 c 128,-1,40
 169 451 169 451 270 451 c 0,41,42
 352 451 352 451 411 401 c 1,43,-1
 411 437 l 1,44,-1
 511 437 l 1,15,-1
272 351 m 0,45,46
 215 351 215 351 174.5 312.5 c 128,-1,47
 134 274 134 274 134 219 c 128,-1,48
 134 164 134 164 174.5 125 c 128,-1,49
 215 86 215 86 272 86 c 128,-1,50
 329 86 329 86 370 124.5 c 128,-1,51
 411 163 411 163 411 217 c 0,52,53
 411 273 411 273 370.5 312 c 128,-1,54
 330 351 330 351 272 351 c 0,45,46
EndSplineSet
EndChar

StartChar: Hcircumflex
Encoding: 292 292 227
Width: 554
GlyphClass: 2
Flags: W
LayerCount: 2
Fore
SplineSet
484 0 m 1,0,-1
 384 0 l 1,1,-1
 384 241 l 1,2,-1
 170 241 l 1,3,-1
 170 0 l 1,4,-1
 70 0 l 1,5,-1
 70 566 l 1,6,-1
 170 566 l 1,7,-1
 170 341 l 1,8,-1
 384 341 l 1,9,-1
 384 566 l 1,10,-1
 484 566 l 1,11,-1
 484 0 l 1,0,-1
277 750 m 1,12,-1
 164 653 l 2,13,14
 148 640 148 640 136 640 c 0,15,16
 122 640 122 640 111.5 650.5 c 128,-1,17
 101 661 101 661 101 675 c 0,18,19
 101 686 101 686 105 691.5 c 128,-1,20
 109 697 109 697 125 710 c 2,21,-1
 277 839 l 1,22,-1
 428 710 l 2,23,24
 434 706 434 706 437 703 c 0,25,26
 452 691 452 691 452 675 c 0,27,28
 452 661 452 661 441.5 650.5 c 128,-1,29
 431 640 431 640 418 640 c 128,-1,30
 405 640 405 640 389 653 c 2,31,-1
 277 750 l 1,12,-1
EndSplineSet
EndChar

StartChar: hcircumflex
Encoding: 293 293 228
Width: 467
GlyphClass: 2
Flags: W
LayerCount: 2
Fore
SplineSet
185 750 m 1,0,-1
 76 656 l 2,1,2
 61 644 61 644 49 644 c 0,3,4
 35 644 35 644 25 654.5 c 128,-1,5
 15 665 15 665 15 677 c 0,6,7
 15 688 15 688 18.5 693 c 128,-1,8
 22 698 22 698 38 711 c 2,9,-1
 185 837 l 1,10,-1
 331 711 l 1,11,12
 337 711 337 711 340 704 c 1,13,14
 355 693 355 693 355 677 c 0,15,16
 355 665 355 665 345 654.5 c 128,-1,17
 335 644 335 644 322 644 c 128,-1,18
 309 644 309 644 294 656 c 2,19,-1
 185 750 l 1,0,-1
-6 624 m 1,20,-1
 93 624 l 1,21,-1
 93 389 l 1,22,23
 153 450 153 450 230 450 c 0,24,25
 310 450 310 450 358.5 404.5 c 128,-1,26
 407 359 407 359 407 284 c 2,27,-1
 407 0 l 1,28,-1
 307 0 l 1,29,-1
 307 271 l 2,30,31
 307 297 307 297 303 309 c 128,-1,32
 299 321 299 321 286 331 c 0,33,34
 263 350 263 350 219 350 c 0,35,36
 184 350 184 350 160 337 c 128,-1,37
 136 324 136 324 93 283 c 1,38,-1
 93 0 l 1,39,-1
 -7 0 l 1,40,-1
 -6 624 l 1,20,-1
EndSplineSet
EndChar

StartChar: Imacron
Encoding: 298 298 233
Width: 399
GlyphClass: 2
Flags: W
LayerCount: 2
Fore
SplineSet
77 769 m 2,0,-1
 321 769 l 2,1,2
 353 769 353 769 363 758 c 0,3,4
 374 745 374 745 374 729 c 0,5,6
 374 689 374 689 321 689 c 2,7,-1
 77 689 l 2,8,9
 46 689 46 689 35 701 c 1,10,11
 24 716 24 716 24 729 c 0,12,13
 24 769 24 769 77 769 c 2,0,-1
249 0 m 1,14,-1
 149 0 l 1,15,-1
 149 584 l 1,16,-1
 249 584 l 1,17,-1
 249 0 l 1,14,-1
EndSplineSet
EndChar

StartChar: Iogonek
Encoding: 302 302 237
Width: 287
GlyphClass: 2
Flags: W
LayerCount: 2
Fore
SplineSet
246 0 m 1,0,1
 204 -24 204 -24 175.5 -56.5 c 128,-1,2
 147 -89 147 -89 147 -112 c 0,3,4
 147 -132 147 -132 171 -132 c 0,5,6
 186 -132 186 -132 222 -114 c 0,7,8
 234 -108 234 -108 244 -108 c 0,9,10
 260 -108 260 -108 271.5 -119 c 128,-1,11
 283 -130 283 -130 283 -146 c 0,12,13
 283 -173 283 -173 248 -189 c 0,14,15
 205 -208 205 -208 164 -208 c 0,16,17
 120 -208 120 -208 95 -184 c 128,-1,18
 70 -160 70 -160 70 -119 c 0,19,20
 70 -81 70 -81 86.5 -54.5 c 128,-1,21
 103 -28 103 -28 146 0 c 1,22,-1
 146 584 l 1,23,-1
 246 584 l 1,24,-1
 246 0 l 1,0,1
EndSplineSet
EndChar

StartChar: iogonek
Encoding: 303 303 238
Width: 342
GlyphClass: 2
Flags: W
LayerCount: 2
Fore
SplineSet
309 1 m 1,0,1
 288 -11 288 -11 259.5 -35 c 128,-1,2
 231 -59 231 -59 222 -71 c 1,3,4
 207 -96 207 -96 207 -112 c 0,5,6
 207 -132 207 -132 231 -132 c 0,7,8
 246 -132 246 -132 282 -114 c 0,9,10
 294 -108 294 -108 304 -108 c 0,11,12
 320 -108 320 -108 331.5 -119 c 128,-1,13
 343 -130 343 -130 343 -146 c 0,14,15
 343 -173 343 -173 308 -189 c 0,16,17
 265 -208 265 -208 224 -208 c 0,18,19
 180 -208 180 -208 155 -184 c 128,-1,20
 130 -160 130 -160 130 -119 c 0,21,22
 130 -82 130 -82 147.5 -55.5 c 128,-1,23
 165 -29 165 -29 209 0 c 1,24,-1
 209 337 l 1,25,-1
 131 337 l 2,26,27
 96 337 96 337 85 347 c 1,28,29
 64 362 64 362 64 387 c 0,30,31
 64 416 64 416 88 430 c 0,32,33
 99 437 99 437 131 437 c 2,34,-1
 309 437 l 1,35,-1
 309 1 l 1,0,1
295 623 m 1,36,-1
 295 518 l 1,37,-1
 177 518 l 1,38,-1
 177 623 l 1,39,-1
 295 623 l 1,36,-1
EndSplineSet
EndChar

StartChar: Idotaccent
Encoding: 304 304 239
Width: 261
GlyphClass: 2
Flags: W
LayerCount: 2
Fore
SplineSet
130 798 m 128,-1,1
 155 798 155 798 172.5 780.5 c 128,-1,2
 190 763 190 763 190 737 c 0,3,4
 190 713 190 713 172.5 695.5 c 128,-1,5
 155 678 155 678 130 678 c 128,-1,6
 105 678 105 678 87.5 695.5 c 128,-1,7
 70 713 70 713 70 738 c 128,-1,8
 70 763 70 763 87.5 780.5 c 128,-1,0
 105 798 105 798 130 798 c 128,-1,1
180 0 m 1,9,-1
 80 0 l 1,10,-1
 80 584 l 1,11,-1
 180 584 l 1,12,-1
 180 0 l 1,9,-1
EndSplineSet
EndChar

StartChar: dotlessi
Encoding: 305 305 240
Width: 373
GlyphClass: 2
Flags: W
LayerCount: 2
Fore
SplineSet
209 0 m 1,0,-1
 209 337 l 1,1,-1
 131 337 l 2,2,3
 96 337 96 337 85 347 c 1,4,5
 64 362 64 362 64 387 c 0,6,7
 64 416 64 416 88 430 c 0,8,9
 99 437 99 437 131 437 c 2,10,-1
 309 437 l 1,11,-1
 309 0 l 1,12,-1
 209 0 l 1,0,-1
EndSplineSet
EndChar

StartChar: IJ
Encoding: 306 306 241
Width: 711
GlyphClass: 3
Flags: W
LayerCount: 2
Fore
SplineSet
204 51 m 1,0,-1
 304 117 l 1,1,2
 373 86 373 86 421 86 c 0,3,4
 478 86 478 86 516 122 c 0,5,6
 532 138 532 138 536 151 c 128,-1,7
 540 164 540 164 540 198 c 2,8,-1
 540 583 l 1,9,-1
 640 583 l 1,10,-1
 640 187 l 2,11,12
 640 138 640 138 625.5 105.5 c 128,-1,13
 611 73 611 73 576 42 c 0,14,15
 511 -14 511 -14 419 -14 c 0,16,17
 335 -14 335 -14 204 51 c 1,0,-1
170 0 m 1,18,-1
 70 0 l 1,19,-1
 70 584 l 1,20,-1
 170 584 l 1,21,-1
 170 0 l 1,18,-1
EndSplineSet
Ligature2: "'dlig' Discretionary Ligatures lookup 0 subtable" I J
EndChar

StartChar: ij
Encoding: 307 307 242
Width: 602
GlyphClass: 3
Flags: W
LayerCount: 2
Fore
SplineSet
209 0 m 1,0,-1
 209 337 l 1,1,-1
 131 337 l 2,2,3
 96 337 96 337 85 347 c 1,4,5
 64 362 64 362 64 387 c 0,6,7
 64 416 64 416 88 430 c 1,8,9
 98 437 98 437 131 437 c 2,10,-1
 309 437 l 1,11,-1
 309 0 l 1,12,-1
 209 0 l 1,0,-1
295 623 m 1,13,-1
 295 518 l 1,14,-1
 177 518 l 1,15,-1
 177 623 l 1,16,-1
 295 623 l 1,13,-1
537 423 m 1,17,-1
 537 -19 l 2,18,19
 537 -96 537 -96 484 -147 c 128,-1,20
 431 -198 431 -198 352 -198 c 2,21,-1
 241 -198 l 2,22,23
 208 -198 208 -198 197 -189 c 0,24,25
 177 -174 177 -174 177 -150 c 0,26,27
 177 -124 177 -124 200 -108 c 0,28,29
 210 -102 210 -102 241 -102 c 2,30,-1
 349 -102 l 2,31,32
 390 -102 390 -102 415 -79.5 c 128,-1,33
 440 -57 440 -57 440 -19 c 2,34,-1
 440 424 l 1,35,-1
 537 423 l 1,17,-1
538 626 m 1,36,-1
 538 524 l 1,37,-1
 422 524 l 1,38,-1
 422 626 l 1,39,-1
 538 626 l 1,36,-1
EndSplineSet
Ligature2: "'dlig' Discretionary Ligatures lookup 0 subtable" i j
EndChar

StartChar: Jcircumflex
Encoding: 308 308 243
Width: 519
GlyphClass: 2
Flags: W
LayerCount: 2
Fore
SplineSet
-43 51 m 1,0,-1
 57 117 l 1,1,2
 126 86 126 86 174 86 c 0,3,4
 231 86 231 86 269 122 c 0,5,6
 285 138 285 138 289 151 c 128,-1,7
 293 164 293 164 293 198 c 2,8,-1
 293 583 l 1,9,-1
 393 583 l 1,10,-1
 393 187 l 2,11,12
 393 138 393 138 378.5 105.5 c 128,-1,13
 364 73 364 73 329 42 c 0,14,15
 264 -14 264 -14 172 -14 c 0,16,17
 88 -14 88 -14 -43 51 c 1,0,-1
343 750 m 1,18,-1
 230 653 l 2,19,20
 214 640 214 640 202 640 c 0,21,22
 188 640 188 640 177.5 650.5 c 128,-1,23
 167 661 167 661 167 675 c 0,24,25
 167 686 167 686 171 691.5 c 128,-1,26
 175 697 175 697 191 710 c 2,27,-1
 343 839 l 1,28,-1
 494 710 l 2,29,30
 500 706 500 706 503 703 c 0,31,32
 518 691 518 691 518 675 c 0,33,34
 518 661 518 661 507.5 650.5 c 128,-1,35
 497 640 497 640 484 640 c 128,-1,36
 471 640 471 640 455 653 c 2,37,-1
 343 750 l 1,18,-1
EndSplineSet
EndChar

StartChar: jcircumflex
Encoding: 309 309 244
Width: 326
GlyphClass: 2
Flags: W
LayerCount: 2
Fore
SplineSet
238 326 m 1,0,-1
 42 326 l 2,1,2
 12 326 12 326 -2 336 c 0,3,4
 -22 350 -22 350 -22 375 c 0,5,6
 -22 403 -22 403 2 417 c 0,7,8
 12 423 12 423 42 423 c 2,9,-1
 335 423 l 1,10,-1
 335 -19 l 2,11,12
 335 -96 335 -96 282 -147 c 128,-1,13
 229 -198 229 -198 150 -198 c 2,14,-1
 39 -198 l 2,15,16
 6 -198 6 -198 -5 -189 c 0,17,18
 -25 -174 -25 -174 -25 -150 c 0,19,20
 -25 -124 -25 -124 -2 -108 c 0,21,22
 8 -102 8 -102 39 -102 c 2,23,-1
 147 -102 l 2,24,25
 188 -102 188 -102 213 -79.5 c 128,-1,26
 238 -57 238 -57 238 -19 c 2,27,-1
 238 326 l 1,0,-1
156 686 m 1,28,-1
 47 591 l 1,29,30
 29 580 29 580 18 580 c 0,31,32
 5 580 5 580 -5 590 c 128,-1,33
 -15 600 -15 600 -15 613 c 0,34,35
 -15 623 -15 623 -11.5 628 c 128,-1,36
 -8 633 -8 633 8 646 c 2,37,-1
 156 772 l 1,38,-1
 302 646 l 2,39,40
 304 645 304 645 307 643 c 128,-1,41
 310 641 310 641 312 640 c 0,42,43
 325 630 325 630 325 613 c 0,44,45
 325 600 325 600 315 590 c 128,-1,46
 305 580 305 580 292 580 c 0,47,48
 278 580 278 580 264 591 c 2,49,-1
 156 686 l 1,28,-1
EndSplineSet
EndChar

StartChar: Kcommaaccent
Encoding: 310 310 245
Width: 577
GlyphClass: 2
Flags: W
LayerCount: 2
Fore
SplineSet
170 0 m 1,0,-1
 70 0 l 1,1,-1
 70 584 l 1,2,-1
 170 584 l 1,3,-1
 170 334 l 1,4,-1
 461 583 l 1,5,6
 461 583 461 583 497 583 c 2,7,8
 497 583 497 583 600 583 c 1,9,-1
 311 330 l 1,10,11
 365 301 365 301 424.5 212 c 128,-1,12
 484 123 484 123 507 0 c 1,13,-1
 402 0 l 1,14,15
 367 107 367 107 321.5 176 c 128,-1,16
 276 245 276 245 230 259 c 1,17,-1
 170 208 l 1,18,-1
 170 0 l 1,0,-1
314 -126 m 2,19,-1
 232 -252 l 2,20,21
 215 -278 215 -278 196 -278 c 0,22,23
 181 -278 181 -278 170 -267.5 c 128,-1,24
 159 -257 159 -257 159 -243 c 128,-1,25
 159 -229 159 -229 171 -211 c 2,26,-1
 253 -85 l 2,27,28
 270 -59 270 -59 291 -59 c 0,29,30
 306 -59 306 -59 316.5 -70 c 128,-1,31
 327 -81 327 -81 327 -96 c 0,32,33
 327 -106 327 -106 314 -126 c 2,19,-1
EndSplineSet
EndChar

StartChar: Ldot
Encoding: 319 319 254
Width: 506
GlyphClass: 3
Flags: W
LayerCount: 2
Fore
SplineSet
289 219 m 2,0,-1
 272 219 l 2,1,2
 246 219 246 219 227 237.5 c 128,-1,3
 208 256 208 256 208 282 c 128,-1,4
 208 308 208 308 227 327 c 128,-1,5
 246 346 246 346 272 346 c 2,6,-1
 289 346 l 2,7,8
 316 346 316 346 334.5 327.5 c 128,-1,9
 353 309 353 309 353 282 c 0,10,11
 353 256 353 256 334.5 237.5 c 128,-1,12
 316 219 316 219 289 219 c 2,0,-1
70 0 m 1,13,-1
 70 583 l 1,14,-1
 170 583 l 1,15,-1
 170 100 l 1,16,-1
 485 100 l 1,17,-1
 485 0 l 1,18,-1
 70 0 l 1,13,-1
EndSplineSet
Ligature2: "'liga' Standard Ligatures in Latin lookup 1 subtable" L periodcentered
EndChar

StartChar: ldot
Encoding: 320 320 255
Width: 485
GlyphClass: 3
Flags: W
LayerCount: 2
Fore
SplineSet
365 208 m 2,0,-1
 348 208 l 2,1,2
 322 208 322 208 303 226.5 c 128,-1,3
 284 245 284 245 284 271 c 128,-1,4
 284 297 284 297 303 316 c 128,-1,5
 322 335 322 335 348 335 c 2,6,-1
 365 335 l 2,7,8
 392 335 392 335 410.5 316.5 c 128,-1,9
 429 298 429 298 429 271 c 0,10,11
 429 245 429 245 410.5 226.5 c 128,-1,12
 392 208 392 208 365 208 c 2,0,-1
139 0 m 1,13,-1
 139 524 l 1,14,-1
 131 524 l 2,15,16
 96 524 96 524 85 534 c 1,17,18
 64 548 64 548 64 574 c 0,19,20
 64 603 64 603 88 617 c 1,21,22
 98 624 98 624 131 624 c 2,23,-1
 239 624 l 1,24,-1
 239 0 l 1,25,-1
 139 0 l 1,13,-1
EndSplineSet
Ligature2: "'liga' Standard Ligatures in Latin lookup 1 subtable" l periodcentered
EndChar

StartChar: Lslash
Encoding: 321 321 256
Width: 545
GlyphClass: 2
Flags: W
LayerCount: 2
Fore
SplineSet
210 359 m 1,0,-1
 298 411 l 2,1,2
 323 426 323 426 339 426 c 0,3,4
 358 426 358 426 372 411 c 128,-1,5
 386 396 386 396 386 376 c 0,6,7
 386 358 386 358 378 347.5 c 128,-1,8
 370 337 370 337 347 325 c 2,9,-1
 110 203 l 1,10,-1
 56 171 l 2,11,12
 31 156 31 156 14 156 c 0,13,14
 -5 156 -5 156 -19.5 171.5 c 128,-1,15
 -34 187 -34 187 -34 207 c 0,16,17
 -34 224 -34 224 -26 235 c 128,-1,18
 -18 246 -18 246 6 258 c 2,19,-1
 210 359 l 1,0,-1
110 0 m 1,20,-1
 110 583 l 1,21,-1
 210 583 l 1,22,-1
 210 100 l 1,23,-1
 525 100 l 1,24,-1
 525 0 l 1,25,-1
 110 0 l 1,20,-1
EndSplineSet
EndChar

StartChar: lslash
Encoding: 322 322 257
Width: 339
GlyphClass: 2
Flags: W
LayerCount: 2
Fore
SplineSet
129 0 m 1,0,-1
 129 243 l 1,1,-1
 95 223 l 2,2,3
 71 209 71 209 55 209 c 0,4,5
 36 209 36 209 21 224.5 c 128,-1,6
 6 240 6 240 6 260 c 0,7,8
 6 277 6 277 14.5 288 c 128,-1,9
 23 299 23 299 46 312 c 2,10,-1
 129 359 l 1,11,-1
 129 524 l 1,12,-1
 54 524 l 2,13,14
 19 524 19 524 8 534 c 1,15,16
 -13 549 -13 549 -13 574 c 0,17,18
 -13 603 -13 603 11 617 c 1,19,20
 21 624 21 624 54 624 c 2,21,-1
 229 624 l 1,22,-1
 229 399 l 1,23,-1
 264 419 l 2,24,25
 290 435 290 435 304 435 c 0,26,27
 324 435 324 435 338.5 419.5 c 128,-1,28
 353 404 353 404 353 383 c 0,29,30
 353 367 353 367 344.5 355.5 c 128,-1,31
 336 344 336 344 314 332 c 2,32,-1
 229 283 l 1,33,-1
 229 0 l 1,34,-1
 129 0 l 1,0,-1
EndSplineSet
EndChar

StartChar: Nacute
Encoding: 323 323 258
Width: 598
GlyphClass: 2
Flags: W
LayerCount: 2
Fore
SplineSet
449 767 m 2,0,-1
 316 656 l 2,1,2
 297 640 297 640 284 640 c 0,3,4
 269 640 269 640 258 651 c 128,-1,5
 247 662 247 662 247 676 c 0,6,7
 247 695 247 695 270 712 c 1,8,-1
 403 824 l 2,9,10
 422 839 422 839 435 839 c 0,11,12
 451 839 451 839 461.5 828.5 c 128,-1,13
 472 818 472 818 472 803 c 0,14,15
 472 785 472 785 449 767 c 2,0,-1
528 583 m 1,16,-1
 528 0 l 1,17,-1
 429 0 l 1,18,-1
 170 394 l 1,19,-1
 170 0 l 1,20,-1
 70 0 l 1,21,-1
 70 583 l 1,22,-1
 170 583 l 1,23,-1
 428 191 l 1,24,-1
 428 583 l 1,25,-1
 528 583 l 1,16,-1
EndSplineSet
EndChar

StartChar: nacute
Encoding: 324 324 259
Width: 538
GlyphClass: 2
Flags: W
LayerCount: 2
Fore
SplineSet
420 624 m 1,0,-1
 287 512 l 2,1,2
 267 496 267 496 255 496 c 0,3,4
 240 496 240 496 229 507 c 128,-1,5
 218 518 218 518 218 532 c 0,6,7
 218 550 218 550 241 569 c 2,8,-1
 374 680 l 2,9,10
 394 696 394 696 406 696 c 0,11,12
 422 696 422 696 432.5 685.5 c 128,-1,13
 443 675 443 675 443 659 c 0,14,15
 443 642 443 642 420 624 c 1,0,-1
64 437 m 1,16,-1
 163 437 l 1,17,-1
 163 389 l 1,18,19
 199 423 199 423 229 436.5 c 128,-1,20
 259 450 259 450 300 450 c 0,21,22
 368 450 368 450 419 413 c 0,23,24
 478 369 478 369 478 282 c 2,25,-1
 478 0 l 1,26,-1
 378 0 l 1,27,-1
 378 278 l 2,28,29
 378 350 378 350 288 350 c 0,30,31
 253 350 253 350 225.5 335 c 128,-1,32
 198 320 198 320 163 282 c 1,33,-1
 163 0 l 1,34,-1
 64 0 l 1,35,-1
 64 437 l 1,16,-1
EndSplineSet
EndChar

StartChar: ncaron
Encoding: 328 328 263
Width: 538
GlyphClass: 2
Flags: W
LayerCount: 2
Fore
SplineSet
269 586 m 1,0,-1
 381 682 l 2,1,2
 396 696 396 696 410 696 c 0,3,4
 423 696 423 696 433.5 685 c 128,-1,5
 444 674 444 674 444 660 c 0,6,7
 444 644 444 644 429 632 c 2,8,-1
 420 625 l 1,9,-1
 269 497 l 1,10,-1
 117 625 l 2,11,12
 101 638 101 638 97 644 c 128,-1,13
 93 650 93 650 93 660 c 0,14,15
 93 674 93 674 103.5 685 c 128,-1,16
 114 696 114 696 128 696 c 0,17,18
 139 696 139 696 156 682 c 2,19,-1
 269 586 l 1,0,-1
64 437 m 1,20,-1
 163 437 l 1,21,-1
 163 389 l 1,22,23
 199 423 199 423 229 436.5 c 128,-1,24
 259 450 259 450 300 450 c 0,25,26
 368 450 368 450 419 413 c 0,27,28
 478 369 478 369 478 282 c 2,29,-1
 478 0 l 1,30,-1
 378 0 l 1,31,-1
 378 278 l 2,32,33
 378 350 378 350 288 350 c 0,34,35
 253 350 253 350 225.5 335 c 128,-1,36
 198 320 198 320 163 282 c 1,37,-1
 163 0 l 1,38,-1
 64 0 l 1,39,-1
 64 437 l 1,20,-1
EndSplineSet
EndChar

StartChar: Omacron
Encoding: 332 332 267
Width: 634
GlyphClass: 2
Flags: W
LayerCount: 2
Fore
SplineSet
195 769 m 2,0,-1
 439 769 l 2,1,2
 471 769 471 769 481 758 c 0,3,4
 492 745 492 745 492 729 c 0,5,6
 492 689 492 689 439 689 c 2,7,-1
 195 689 l 2,8,9
 164 689 164 689 153 701 c 1,10,11
 142 716 142 716 142 729 c 0,12,13
 142 769 142 769 195 769 c 2,0,-1
317 597 m 0,14,15
 420 597 420 597 502 520 c 1,16,17
 596 430 596 430 596 287 c 0,18,19
 596 164 596 164 513.5 75 c 128,-1,20
 431 -14 431 -14 317 -14 c 0,21,22
 201 -14 201 -14 119.5 75.5 c 128,-1,23
 38 165 38 165 38 292 c 0,24,25
 38 418 38 418 120 507.5 c 128,-1,26
 202 597 202 597 317 597 c 0,14,15
317 497 m 0,27,28
 244 497 244 497 191 436.5 c 128,-1,29
 138 376 138 376 138 292 c 0,30,31
 138 207 138 207 190.5 146.5 c 128,-1,32
 243 86 243 86 317 86 c 0,33,34
 390 86 390 86 443 146 c 128,-1,35
 496 206 496 206 496 289 c 0,36,37
 496 375 496 375 443.5 436 c 128,-1,38
 391 497 391 497 317 497 c 0,27,28
EndSplineSet
EndChar

StartChar: omacron
Encoding: 333 333 268
Width: 582
GlyphClass: 2
Flags: W
LayerCount: 2
Fore
SplineSet
169 626 m 2,0,-1
 413 626 l 2,1,2
 445 626 445 626 455 615 c 0,3,4
 466 602 466 602 466 586 c 0,5,6
 466 546 466 546 413 546 c 2,7,-1
 169 546 l 2,8,9
 138 546 138 546 127 558 c 1,10,11
 116 573 116 573 116 586 c 0,12,13
 116 626 116 626 169 626 c 2,0,-1
294 450 m 0,14,15
 400 450 400 450 474.5 382 c 128,-1,16
 549 314 549 314 549 217 c 0,17,18
 549 119 549 119 474 51.5 c 128,-1,19
 399 -16 399 -16 291 -16 c 128,-1,20
 183 -16 183 -16 108 51.5 c 128,-1,21
 33 119 33 119 33 217 c 0,22,23
 33 316 33 316 108 383 c 128,-1,24
 183 450 183 450 294 450 c 0,14,15
293 350 m 0,25,26
 225 350 225 350 179 312 c 128,-1,27
 133 274 133 274 133 217 c 0,28,29
 133 161 133 161 178.5 122.5 c 128,-1,30
 224 84 224 84 291 84 c 128,-1,31
 358 84 358 84 403.5 122.5 c 128,-1,32
 449 161 449 161 449 217 c 128,-1,33
 449 273 449 273 403.5 311.5 c 128,-1,34
 358 350 358 350 293 350 c 0,25,26
EndSplineSet
EndChar

StartChar: obreve
Encoding: 335 335 270
Width: 582
GlyphClass: 2
Flags: W
LayerCount: 2
Fore
SplineSet
145 642 m 128,-1,1
 159 642 159 642 166 633.5 c 128,-1,2
 173 625 173 625 178 603 c 0,3,4
 185 569 185 569 213 549.5 c 128,-1,5
 241 530 241 530 282 530 c 0,6,7
 322 530 322 530 349.5 549.5 c 128,-1,8
 377 569 377 569 385 603 c 0,9,10
 390 626 390 626 397 634 c 128,-1,11
 404 642 404 642 418 642 c 128,-1,12
 432 642 432 642 441.5 631.5 c 128,-1,13
 451 621 451 621 451 605 c 0,14,15
 451 549 451 549 400 506 c 128,-1,16
 349 463 349 463 282 463 c 128,-1,17
 215 463 215 463 163.5 506 c 128,-1,18
 112 549 112 549 112 605 c 0,19,20
 112 621 112 621 121.5 631.5 c 128,-1,0
 131 642 131 642 145 642 c 128,-1,1
294 450 m 0,21,22
 400 450 400 450 474.5 382 c 128,-1,23
 549 314 549 314 549 217 c 0,24,25
 549 119 549 119 474 51.5 c 128,-1,26
 399 -16 399 -16 291 -16 c 128,-1,27
 183 -16 183 -16 108 51.5 c 128,-1,28
 33 119 33 119 33 217 c 0,29,30
 33 316 33 316 108 383 c 128,-1,31
 183 450 183 450 294 450 c 0,21,22
293 350 m 0,32,33
 225 350 225 350 179 312 c 128,-1,34
 133 274 133 274 133 217 c 0,35,36
 133 161 133 161 178.5 122.5 c 128,-1,37
 224 84 224 84 291 84 c 128,-1,38
 358 84 358 84 403.5 122.5 c 128,-1,39
 449 161 449 161 449 217 c 128,-1,40
 449 273 449 273 403.5 311.5 c 128,-1,41
 358 350 358 350 293 350 c 0,32,33
EndSplineSet
EndChar

StartChar: OE
Encoding: 338 338 273
Width: 726
GlyphClass: 2
Flags: W
LayerCount: 2
Fore
SplineSet
542 243 m 1,0,-1
 424 243 l 1,1,-1
 424 100 l 1,2,-1
 670 100 l 1,3,-1
 670 0 l 1,4,-1
 317 0 l 2,5,6
 195 0 195 0 116.5 82.5 c 128,-1,7
 38 165 38 165 38 292 c 128,-1,8
 38 419 38 419 116.5 501 c 128,-1,9
 195 583 195 583 317 583 c 2,10,-1
 651 583 l 1,11,-1
 649 483 l 1,12,-1
 424 483 l 1,13,-1
 424 342 l 1,14,-1
 542 342 l 1,15,-1
 542 243 l 1,0,-1
324 100 m 1,16,-1
 324 483 l 1,17,18
 253 482 253 482 213 452 c 0,19,20
 179 427 179 427 158.5 382.5 c 128,-1,21
 138 338 138 338 138 291 c 0,22,23
 138 241 138 241 162 194 c 128,-1,24
 186 147 186 147 224 124 c 0,25,26
 264 100 264 100 324 100 c 1,16,-1
EndSplineSet
EndChar

StartChar: oe
Encoding: 339 339 274
Width: 694
GlyphClass: 2
Flags: W
LayerCount: 2
Fore
SplineSet
656 171 m 1,0,-1
 404 171 l 1,1,2
 424 84 424 84 488 84 c 0,3,4
 520 84 520 84 584 112 c 0,5,6
 597 117 597 117 608 117 c 0,7,8
 628 117 628 117 642.5 102 c 128,-1,9
 657 87 657 87 657 65 c 0,10,11
 657 33 657 33 620 14 c 0,12,13
 595 2 595 2 553.5 -7 c 128,-1,14
 512 -16 512 -16 482 -16 c 0,15,16
 399 -16 399 -16 347 58 c 1,17,18
 293 -16 293 -16 215 -16 c 0,19,20
 139 -16 139 -16 86 50.5 c 128,-1,21
 33 117 33 117 33 212 c 0,22,23
 33 312 33 312 85.5 381 c 128,-1,24
 138 450 138 450 214 450 c 0,25,26
 291 450 291 450 347 370 c 1,27,28
 400 450 400 450 480 450 c 0,29,30
 548 450 548 450 601 389 c 1,31,32
 656 328 656 328 656 216 c 2,33,-1
 656 171 l 1,0,-1
216 349 m 0,34,35
 182 349 182 349 157.5 310 c 128,-1,36
 133 271 133 271 133 216 c 0,37,38
 133 162 133 162 157.5 123 c 128,-1,39
 182 84 182 84 216 84 c 0,40,41
 251 84 251 84 275.5 122.5 c 128,-1,42
 300 161 300 161 300 215 c 0,43,44
 300 271 300 271 275.5 310 c 128,-1,45
 251 349 251 349 216 349 c 0,34,35
407 257 m 1,46,-1
 548 257 l 1,47,48
 542 288 542 288 532 310 c 1,49,50
 512 349 512 349 478 349 c 0,51,52
 441 349 441 349 422 306 c 0,53,54
 414 288 414 288 407 257 c 1,46,-1
EndSplineSet
EndChar

StartChar: Sacute
Encoding: 346 346 281
Width: 587
GlyphClass: 2
Flags: W
LayerCount: 2
Fore
SplineSet
445 767 m 2,0,-1
 312 656 l 2,1,2
 293 640 293 640 280 640 c 0,3,4
 265 640 265 640 254 651 c 128,-1,5
 243 662 243 662 243 676 c 0,6,7
 243 695 243 695 266 712 c 1,8,-1
 399 824 l 2,9,10
 418 839 418 839 431 839 c 0,11,12
 447 839 447 839 457.5 828.5 c 128,-1,13
 468 818 468 818 468 803 c 0,14,15
 468 785 468 785 445 767 c 2,0,-1
64 179 m 0,16,17
 76 199 76 199 105 199 c 0,18,19
 127 199 127 199 141 185 c 0,20,21
 148 178 148 178 156 151 c 0,22,23
 163 124 163 124 204 105 c 128,-1,24
 245 86 245 86 295 86 c 0,25,26
 351 86 351 86 389 108 c 128,-1,27
 427 130 427 130 427 162 c 0,28,29
 427 195 427 195 391 215 c 0,30,31
 367 228 367 228 286 242 c 0,32,33
 201 256 201 256 157 281 c 0,34,35
 119 303 119 303 97 340 c 128,-1,36
 75 377 75 377 75 420 c 0,37,38
 75 496 75 496 137 546.5 c 128,-1,39
 199 597 199 597 292 597 c 0,40,41
 356 597 356 597 422 564 c 0,42,43
 460 545 460 545 485 507.5 c 128,-1,44
 510 470 510 470 510 434 c 0,45,46
 510 413 510 413 501 397 c 0,47,48
 489 376 489 376 461 376 c 0,49,50
 439 376 439 376 425 390 c 0,51,52
 418 398 418 398 411 430 c 0,53,54
 404 460 404 460 371.5 478.5 c 128,-1,55
 339 497 339 497 292 497 c 128,-1,56
 245 497 245 497 212 475 c 128,-1,57
 179 453 179 453 179 421 c 0,58,59
 179 405 179 405 189.5 389.5 c 128,-1,60
 200 374 200 374 216 366 c 0,61,62
 239 354 239 354 316 340 c 0,63,64
 430 319 430 319 472 285 c 0,65,66
 531 238 531 238 531 160 c 128,-1,67
 531 82 531 82 468 34 c 128,-1,68
 405 -14 405 -14 302 -14 c 0,69,70
 229 -14 229 -14 146 25 c 0,71,72
 111 41 111 41 83 76 c 128,-1,73
 55 111 55 111 55 145 c 0,74,75
 55 163 55 163 64 179 c 0,16,17
EndSplineSet
EndChar

StartChar: scircumflex
Encoding: 349 349 284
Width: 529
GlyphClass: 2
Flags: W
LayerCount: 2
Fore
SplineSet
257 569 m 1,0,-1
 148 475 l 2,1,2
 133 463 133 463 121 463 c 0,3,4
 107 463 107 463 97 473.5 c 128,-1,5
 87 484 87 484 87 496 c 0,6,7
 87 507 87 507 90.5 512 c 128,-1,8
 94 517 94 517 110 530 c 2,9,-1
 257 656 l 1,10,-1
 403 530 l 1,11,12
 409 530 409 530 412 523 c 1,13,14
 427 512 427 512 427 496 c 0,15,16
 427 484 427 484 417 473.5 c 128,-1,17
 407 463 407 463 394 463 c 128,-1,18
 381 463 381 463 366 475 c 2,19,-1
 257 569 l 1,0,-1
49 146 m 0,20,21
 65 167 65 167 90 167 c 0,22,23
 128 167 128 167 141 123 c 1,24,25
 185 84 185 84 266 84 c 0,26,27
 314 84 314 84 348.5 97 c 128,-1,28
 383 110 383 110 383 127 c 0,29,30
 383 149 383 149 349 162 c 0,31,32
 326 171 326 171 257 179 c 0,33,34
 152 190 152 190 105 222 c 128,-1,35
 58 254 58 254 58 313 c 0,36,37
 58 373 58 373 116 411.5 c 128,-1,38
 174 450 174 450 264 450 c 0,39,40
 339 450 339 450 393 424 c 0,41,42
 427 408 427 408 449.5 383.5 c 128,-1,43
 472 359 472 359 472 332 c 0,44,45
 472 316 472 316 463 301 c 1,46,47
 449 281 449 281 422 281 c 0,48,49
 392 281 392 281 375 312 c 2,50,-1
 370 321 l 1,51,52
 329 350 329 350 267 350 c 0,53,54
 229 350 229 350 198.5 339.5 c 128,-1,55
 168 329 168 329 168 315 c 128,-1,56
 168 301 168 301 194 291 c 0,57,58
 209 286 209 286 278 276 c 0,59,60
 380 262 380 262 423 238 c 0,61,62
 456 220 456 220 474.5 190 c 128,-1,63
 493 160 493 160 493 125 c 0,64,65
 493 64 493 64 430 24 c 128,-1,66
 367 -16 367 -16 270 -16 c 0,67,68
 189 -16 189 -16 122 13 c 0,69,70
 86 28 86 28 62.5 58 c 128,-1,71
 39 88 39 88 39 116 c 0,72,73
 39 133 39 133 49 146 c 0,20,21
EndSplineSet
EndChar

StartChar: Scedilla
Encoding: 350 350 285
Width: 587
GlyphClass: 2
Flags: W
LayerCount: 2
Fore
SplineSet
64 179 m 0,0,1
 76 199 76 199 105 199 c 0,2,3
 127 199 127 199 141 185 c 0,4,5
 148 178 148 178 155 151 c 0,6,7
 163 124 163 124 204 105 c 128,-1,8
 245 86 245 86 294 86 c 0,9,10
 350 86 350 86 388.5 108 c 128,-1,11
 427 130 427 130 427 162 c 0,12,13
 427 195 427 195 391 215 c 1,14,15
 365 228 365 228 286 242 c 0,16,17
 201 256 201 256 157 281 c 0,18,19
 119 303 119 303 97 340 c 128,-1,20
 75 377 75 377 75 420 c 0,21,22
 75 494 75 494 141 545.5 c 128,-1,23
 207 597 207 597 291 597 c 0,24,25
 335 597 335 597 357.5 590.5 c 128,-1,26
 380 584 380 584 421 564 c 0,27,28
 459 545 459 545 484 507.5 c 128,-1,29
 509 470 509 470 509 434 c 0,30,31
 509 413 509 413 500 397 c 0,32,33
 488 376 488 376 460 376 c 0,34,35
 438 376 438 376 424 390 c 0,36,37
 417 398 417 398 410 430 c 0,38,39
 404 458 404 458 370 477.5 c 128,-1,40
 336 497 336 497 296 497 c 0,41,42
 294 497 294 497 291 497 c 0,43,44
 249 495 249 495 213.5 473.5 c 128,-1,45
 178 452 178 452 178 421 c 0,46,47
 178 405 178 405 188.5 389.5 c 128,-1,48
 199 374 199 374 215 366 c 0,49,50
 238 355 238 355 315 340 c 0,51,52
 428 319 428 319 472 285 c 0,53,54
 531 238 531 238 531 160 c 0,55,56
 531 86 531 86 476 40 c 128,-1,57
 421 -6 421 -6 325 -13 c 1,58,-1
 325 -42 l 1,59,60
 400 -57 400 -57 400 -132 c 0,61,62
 400 -175 400 -175 369.5 -202 c 128,-1,63
 339 -229 339 -229 292 -229 c 128,-1,64
 245 -229 245 -229 201 -205 c 0,65,66
 173 -189 173 -189 173 -166 c 0,67,68
 173 -152 173 -152 183.5 -141.5 c 128,-1,69
 194 -131 194 -131 208 -131 c 0,70,71
 216 -131 216 -131 237 -142 c 0,72,73
 268 -159 268 -159 294 -159 c 0,74,75
 330 -159 330 -159 330 -134 c 0,76,77
 330 -100 330 -100 277 -100 c 0,78,79
 267 -100 267 -100 255 -102 c 1,80,-1
 255 -11 l 1,81,82
 209 -5 209 -5 146 25 c 0,83,84
 113 41 113 41 84 75.5 c 128,-1,85
 55 110 55 110 55 145 c 0,86,87
 55 163 55 163 64 179 c 0,0,1
EndSplineSet
EndChar

StartChar: scedilla
Encoding: 351 351 286
Width: 529
GlyphClass: 2
Flags: W
LayerCount: 2
Fore
SplineSet
272 42 m 0,0,1
 294 42 294 42 328 22 c 1,2,3
 370 -1 370 -1 327 -11 c 0,4,5
 316 -14 316 -14 298 -15 c 1,6,-1
 298 -42 l 1,7,8
 373 -57 373 -57 373 -132 c 0,9,10
 373 -175 373 -175 343 -202 c 128,-1,11
 313 -229 313 -229 266 -229 c 0,12,13
 218 -229 218 -229 174 -205 c 0,14,15
 146 -189 146 -189 146 -166 c 0,16,17
 146 -152 146 -152 156.5 -141.5 c 128,-1,18
 167 -131 167 -131 181 -131 c 0,19,20
 189 -131 189 -131 210 -142 c 0,21,22
 241 -159 241 -159 267 -159 c 0,23,24
 303 -159 303 -159 303 -134 c 0,25,26
 303 -100 303 -100 250 -100 c 0,27,28
 240 -100 240 -100 228 -102 c 1,29,-1
 228 -14 l 1,30,31
 204 -12 204 -12 223 12 c 0,32,33
 244 38 244 38 268 42 c 0,34,35
 270 42 270 42 272 42 c 0,0,1
49 146 m 0,36,37
 65 167 65 167 90 167 c 0,38,39
 128 167 128 167 141 123 c 1,40,41
 185 84 185 84 266 84 c 0,42,43
 314 84 314 84 348.5 97 c 128,-1,44
 383 110 383 110 383 127 c 0,45,46
 383 149 383 149 349 162 c 0,47,48
 326 171 326 171 257 179 c 0,49,50
 152 190 152 190 105 222 c 128,-1,51
 58 254 58 254 58 313 c 0,52,53
 58 373 58 373 116 411.5 c 128,-1,54
 174 450 174 450 264 450 c 0,55,56
 339 450 339 450 393 424 c 0,57,58
 427 408 427 408 449.5 383.5 c 128,-1,59
 472 359 472 359 472 332 c 0,60,61
 472 316 472 316 463 301 c 1,62,63
 449 281 449 281 422 281 c 0,64,65
 392 281 392 281 375 312 c 2,66,-1
 370 321 l 1,67,68
 329 350 329 350 267 350 c 0,69,70
 229 350 229 350 198.5 339.5 c 128,-1,71
 168 329 168 329 168 315 c 128,-1,72
 168 301 168 301 194 291 c 0,73,74
 209 286 209 286 278 276 c 0,75,76
 380 262 380 262 423 238 c 0,77,78
 456 220 456 220 474.5 190 c 128,-1,79
 493 160 493 160 493 125 c 0,80,81
 493 64 493 64 430 24 c 128,-1,82
 367 -16 367 -16 270 -16 c 0,83,84
 189 -16 189 -16 122 13 c 0,85,86
 86 28 86 28 62.5 58 c 128,-1,87
 39 88 39 88 39 116 c 0,88,89
 39 133 39 133 49 146 c 0,36,37
EndSplineSet
EndChar

StartChar: Tcommaaccent
Encoding: 354 354 289
Width: 523
GlyphClass: 2
Flags: W
LayerCount: 2
Fore
SplineSet
221 0 m 1,0,-1
 289 0 l 1,1,-1
 289 -40 l 1,2,3
 361 -55 361 -55 361 -128 c 0,4,5
 361 -169 361 -169 331.5 -195.5 c 128,-1,6
 302 -222 302 -222 258 -222 c 0,7,8
 211 -222 211 -222 169 -198 c 0,9,10
 141 -183 141 -183 141 -161 c 0,11,12
 141 -148 141 -148 151.5 -137.5 c 128,-1,13
 162 -127 162 -127 175 -127 c 0,14,15
 184 -127 184 -127 203 -138 c 1,16,17
 235 -154 235 -154 258 -154 c 0,18,19
 293 -154 293 -154 293 -129 c 0,20,21
 293 -97 293 -97 242 -97 c 0,22,23
 234 -97 234 -97 221 -99 c 1,24,-1
 221 0 l 1,0,-1
519 584 m 1,25,-1
 519 483 l 1,26,-1
 310 483 l 1,27,-1
 310 0 l 1,28,-1
 210 0 l 1,29,-1
 210 483 l 1,30,-1
 3 483 l 1,31,-1
 3 584 l 1,32,-1
 519 584 l 1,25,-1
EndSplineSet
EndChar

StartChar: tcommaaccent
Encoding: 355 355 290
Width: 543
GlyphClass: 2
Flags: W
LayerCount: 2
Fore
SplineSet
229 10 m 1,0,-1
 297 10 l 1,1,-1
 297 -56 l 1,2,3
 369 -71 369 -71 369 -144 c 0,4,5
 369 -185 369 -185 339.5 -211.5 c 128,-1,6
 310 -238 310 -238 266 -238 c 0,7,8
 219 -238 219 -238 177 -214 c 0,9,10
 149 -199 149 -199 149 -177 c 0,11,12
 149 -164 149 -164 159.5 -153.5 c 128,-1,13
 170 -143 170 -143 183 -143 c 0,14,15
 192 -143 192 -143 211 -154 c 1,16,17
 243 -170 243 -170 266 -170 c 0,18,19
 301 -170 301 -170 301 -145 c 0,20,21
 301 -113 301 -113 250 -113 c 0,22,23
 242 -113 242 -113 229 -115 c 1,24,-1
 229 10 l 1,0,-1
211 337 m 1,25,-1
 211 141 l 2,26,27
 211 113 211 113 219 104 c 0,28,29
 237 84 237 84 297 84 c 0,30,31
 376 84 376 84 443 118 c 0,32,33
 464 129 464 129 478 129 c 0,34,35
 498 129 498 129 512 114 c 128,-1,36
 526 99 526 99 526 78 c 0,37,38
 526 60 526 60 515 48.5 c 128,-1,39
 504 37 504 37 476 24 c 0,40,41
 440 7 440 7 387.5 -4.5 c 128,-1,42
 335 -16 335 -16 296 -16 c 0,43,44
 211 -16 211 -16 161 21 c 128,-1,45
 111 58 111 58 111 122 c 2,46,-1
 111 337 l 1,47,-1
 76 337 l 2,48,49
 42 337 42 337 30 347 c 0,50,51
 10 362 10 362 10 387 c 0,52,53
 10 416 10 416 34 430 c 1,54,55
 44 437 44 437 76 437 c 2,56,-1
 111 437 l 1,57,-1
 111 525 l 2,58,59
 111 558 111 558 121 571 c 0,60,61
 136 591 136 591 161 591 c 0,62,63
 190 591 190 591 204 567 c 0,64,65
 211 556 211 556 211 525 c 2,66,-1
 211 437 l 1,67,-1
 392 437 l 2,68,69
 424 437 424 437 438 428 c 1,70,71
 458 411 458 411 458 387 c 0,72,73
 458 358 458 358 434 344 c 0,74,75
 423 337 423 337 392 337 c 2,76,-1
 211 337 l 1,25,-1
EndSplineSet
EndChar

StartChar: tcaron
Encoding: 357 357 292
Width: 505
GlyphClass: 2
Flags: W
LayerCount: 2
Fore
SplineSet
424 434 m 0,0,1
 407 420 407 420 387 420.5 c 128,-1,2
 367 421 367 421 363 437 c 1,3,4
 360 437 360 437 359 439 c 128,-1,5
 358 441 358 441 358 443 c 128,-1,6
 358 445 358 445 358.5 448.5 c 128,-1,7
 359 452 359 452 359 453 c 0,8,9
 359 466 359 466 371 486 c 2,10,-1
 453 611 l 2,11,12
 471 637 471 637 491 637 c 0,13,14
 506 637 506 637 516.5 626.5 c 128,-1,15
 527 616 527 616 527 600 c 0,16,17
 527 591 527 591 514 570 c 2,18,-1
 432 445 l 2,19,20
 426 435 426 435 424 434 c 0,0,1
211 337 m 1,21,-1
 211 141 l 2,22,23
 211 113 211 113 219 104 c 0,24,25
 237 84 237 84 297 84 c 0,26,27
 376 84 376 84 443 118 c 0,28,29
 464 129 464 129 478 129 c 0,30,31
 498 129 498 129 512 114 c 128,-1,32
 526 99 526 99 526 78 c 0,33,34
 526 60 526 60 515 48.5 c 128,-1,35
 504 37 504 37 476 24 c 0,36,37
 440 7 440 7 387.5 -4.5 c 128,-1,38
 335 -16 335 -16 296 -16 c 0,39,40
 211 -16 211 -16 161 21 c 128,-1,41
 111 58 111 58 111 122 c 2,42,-1
 111 337 l 1,43,-1
 76 337 l 2,44,45
 42 337 42 337 30 347 c 0,46,47
 10 362 10 362 10 387 c 0,48,49
 10 416 10 416 34 430 c 1,50,51
 44 437 44 437 76 437 c 2,52,-1
 111 437 l 1,53,-1
 111 525 l 2,54,55
 111 558 111 558 121 571 c 0,56,57
 136 591 136 591 161 591 c 0,58,59
 190 591 190 591 204 567 c 0,60,61
 211 556 211 556 211 525 c 2,62,-1
 211 437 l 1,63,-1
 392 437 l 2,64,65
 424 437 424 437 438 428 c 1,66,67
 458 411 458 411 458 387 c 0,68,69
 458 358 458 358 434 344 c 0,70,71
 423 337 423 337 392 337 c 2,72,-1
 211 337 l 1,21,-1
EndSplineSet
EndChar

StartChar: Uring
Encoding: 366 366 301
Width: 598
GlyphClass: 2
Flags: W
LayerCount: 2
Fore
SplineSet
299 871 m 0,0,1
 350 871 350 871 386 835 c 128,-1,2
 422 799 422 799 422 749 c 0,3,4
 422 701 422 701 385.5 665.5 c 128,-1,5
 349 630 349 630 299 630 c 128,-1,6
 249 630 249 630 212.5 666 c 128,-1,7
 176 702 176 702 176 751 c 128,-1,8
 176 800 176 800 212.5 835.5 c 128,-1,9
 249 871 249 871 299 871 c 0,0,1
299 818 m 0,10,11
 271 818 271 818 250 798 c 128,-1,12
 229 778 229 778 229 751 c 128,-1,13
 229 724 229 724 250 704 c 128,-1,14
 271 684 271 684 299 684 c 128,-1,15
 327 684 327 684 348 704 c 128,-1,16
 369 724 369 724 369 750 c 0,17,18
 369 778 369 778 348.5 798 c 128,-1,19
 328 818 328 818 299 818 c 0,10,11
528 583 m 1,20,-1
 528 205 l 2,21,22
 528 98 528 98 444 35 c 0,23,24
 380 -14 380 -14 299 -14 c 128,-1,25
 218 -14 218 -14 154 35 c 0,26,27
 70 100 70 100 70 205 c 2,28,-1
 70 583 l 1,29,-1
 170 583 l 1,30,-1
 170 196 l 2,31,32
 170 150 170 150 208 118 c 128,-1,33
 246 86 246 86 299 86 c 128,-1,34
 352 86 352 86 390 118 c 128,-1,35
 428 150 428 150 428 196 c 2,36,-1
 428 583 l 1,37,-1
 528 583 l 1,20,-1
EndSplineSet
EndChar

StartChar: uring
Encoding: 367 367 302
Width: 539
GlyphClass: 2
Flags: W
LayerCount: 2
Fore
SplineSet
265 727 m 0,0,1
 316 727 316 727 352 691 c 128,-1,2
 388 655 388 655 388 605 c 0,3,4
 388 557 388 557 351.5 521.5 c 128,-1,5
 315 486 315 486 265 486 c 128,-1,6
 215 486 215 486 178.5 522 c 128,-1,7
 142 558 142 558 142 607 c 128,-1,8
 142 656 142 656 178.5 691.5 c 128,-1,9
 215 727 215 727 265 727 c 0,0,1
265 674 m 0,10,11
 237 674 237 674 216 654 c 128,-1,12
 195 634 195 634 195 607 c 128,-1,13
 195 580 195 580 216 560 c 128,-1,14
 237 540 237 540 265 540 c 128,-1,15
 293 540 293 540 314 560 c 128,-1,16
 335 580 335 580 335 606 c 0,17,18
 335 634 335 634 314.5 654 c 128,-1,19
 294 674 294 674 265 674 c 0,10,11
475 0 m 1,20,-1
 375 0 l 1,21,-1
 375 48 l 1,22,23
 338 13 338 13 308.5 0 c 128,-1,24
 279 -13 279 -13 238 -13 c 0,25,26
 168 -13 168 -13 119 24 c 0,27,28
 60 68 60 68 60 156 c 2,29,-1
 60 437 l 1,30,-1
 160 437 l 1,31,-1
 160 159 l 2,32,33
 160 87 160 87 248 87 c 0,34,35
 286 87 286 87 311 100.5 c 128,-1,36
 336 114 336 114 375 155 c 1,37,-1
 375 437 l 1,38,-1
 475 437 l 1,39,-1
 475 0 l 1,20,-1
EndSplineSet
EndChar

StartChar: Uhungarumlaut
Encoding: 368 368 303
Width: 598
GlyphClass: 2
Flags: W
LayerCount: 2
Fore
SplineSet
330 765 m 2,0,-1
 228 656 l 2,1,2
 213 639 213 639 199 639 c 0,3,4
 186 639 186 639 175 650.5 c 128,-1,5
 164 662 164 662 164 676 c 0,6,7
 164 685 164 685 167 690.5 c 128,-1,8
 170 696 170 696 185 712 c 2,9,-1
 287 822 l 2,10,11
 303 838 303 838 316 838 c 0,12,13
 330 838 330 838 340 827 c 128,-1,14
 350 816 350 816 350 801 c 128,-1,15
 350 786 350 786 330 765 c 2,0,-1
494 765 m 2,16,-1
 392 656 l 2,17,18
 377 639 377 639 363 639 c 0,19,20
 350 639 350 639 339 650.5 c 128,-1,21
 328 662 328 662 328 676 c 0,22,23
 328 685 328 685 331 689.5 c 128,-1,24
 334 694 334 694 349 712 c 1,25,-1
 451 822 l 2,26,27
 467 838 467 838 480 838 c 0,28,29
 494 838 494 838 504 827 c 128,-1,30
 514 816 514 816 514 801 c 128,-1,31
 514 786 514 786 494 765 c 2,16,-1
528 583 m 1,32,-1
 528 205 l 2,33,34
 528 98 528 98 444 35 c 0,35,36
 380 -14 380 -14 299 -14 c 128,-1,37
 218 -14 218 -14 154 35 c 0,38,39
 70 100 70 100 70 205 c 2,40,-1
 70 583 l 1,41,-1
 170 583 l 1,42,-1
 170 196 l 2,43,44
 170 150 170 150 208 118 c 128,-1,45
 246 86 246 86 299 86 c 128,-1,46
 352 86 352 86 390 118 c 128,-1,47
 428 150 428 150 428 196 c 2,48,-1
 428 583 l 1,49,-1
 528 583 l 1,32,-1
EndSplineSet
EndChar

StartChar: uhungarumlaut
Encoding: 369 369 304
Width: 539
GlyphClass: 2
Flags: W
LayerCount: 2
Fore
SplineSet
475 0 m 1,0,-1
 375 0 l 1,1,-1
 375 48 l 1,2,3
 338 13 338 13 308.5 0 c 128,-1,4
 279 -13 279 -13 238 -13 c 0,5,6
 168 -13 168 -13 119 24 c 0,7,8
 60 68 60 68 60 156 c 2,9,-1
 60 437 l 1,10,-1
 160 437 l 1,11,-1
 160 159 l 2,12,13
 160 87 160 87 248 87 c 0,14,15
 286 87 286 87 311 100.5 c 128,-1,16
 336 114 336 114 375 155 c 1,17,-1
 375 437 l 1,18,-1
 475 437 l 1,19,-1
 475 0 l 1,0,-1
276 622 m 2,20,-1
 174 512 l 2,21,22
 160 496 160 496 145 496 c 0,23,24
 132 496 132 496 121 507.5 c 128,-1,25
 110 519 110 519 110 533 c 0,26,27
 110 545 110 545 131 569 c 2,28,-1
 233 679 l 2,29,30
 248 694 248 694 262 694 c 0,31,32
 275 694 275 694 285.5 683 c 128,-1,33
 296 672 296 672 296 658 c 0,34,35
 296 643 296 643 276 622 c 2,20,-1
440 622 m 2,36,-1
 338 512 l 2,37,38
 322 496 322 496 309 496 c 128,-1,39
 296 496 296 496 285 507.5 c 128,-1,40
 274 519 274 519 274 533 c 0,41,42
 274 545 274 545 295 569 c 2,43,-1
 397 679 l 2,44,45
 411 694 411 694 426 694 c 0,46,47
 439 694 439 694 449.5 683 c 128,-1,48
 460 672 460 672 460 658 c 0,49,50
 460 643 460 643 440 622 c 2,36,-1
EndSplineSet
EndChar

StartChar: Uogonek
Encoding: 370 370 305
Width: 598
GlyphClass: 2
Flags: W
LayerCount: 2
Fore
SplineSet
428 583 m 1,0,-1
 528 583 l 1,1,-1
 528 205 l 2,2,3
 528 150 528 150 509 111.5 c 128,-1,4
 490 73 490 73 440 26 c 0,5,6
 354 -54 354 -54 354 -113 c 0,7,8
 354 -132 354 -132 378 -132 c 0,9,10
 394 -132 394 -132 429 -114 c 0,11,12
 440 -108 440 -108 451 -108 c 0,13,14
 467 -108 467 -108 478 -119 c 128,-1,15
 489 -130 489 -130 489 -146 c 0,16,17
 489 -166 489 -166 472 -178 c 0,18,19
 431 -208 431 -208 370 -208 c 0,20,21
 326 -208 326 -208 301 -184 c 128,-1,22
 276 -160 276 -160 276 -119 c 0,23,24
 276 -87 276 -87 289 -64 c 128,-1,25
 302 -41 302 -41 337 -11 c 1,26,27
 314 -15 314 -15 299 -15 c 0,28,29
 232 -15 232 -15 178 18 c 0,30,31
 70 83 70 83 70 205 c 2,32,-1
 70 583 l 1,33,-1
 170 583 l 1,34,-1
 170 196 l 2,35,36
 170 150 170 150 208 117.5 c 128,-1,37
 246 85 246 85 299 85 c 128,-1,38
 352 85 352 85 390 117.5 c 128,-1,39
 428 150 428 150 428 196 c 2,40,-1
 428 583 l 1,0,-1
EndSplineSet
EndChar

StartChar: uogonek
Encoding: 371 371 306
Width: 533
GlyphClass: 2
Flags: W
LayerCount: 2
Fore
SplineSet
60 437 m 1,0,-1
 160 437 l 1,1,-1
 160 159 l 2,2,3
 160 87 160 87 248 87 c 0,4,5
 286 87 286 87 311 100.5 c 128,-1,6
 336 114 336 114 375 155 c 1,7,-1
 375 437 l 1,8,-1
 475 437 l 1,9,-1
 475 100 l 1,10,11
 536 100 536 100 536 50 c 0,12,13
 536 33 536 33 528.5 23 c 128,-1,14
 521 13 521 13 499 1 c 0,15,16
 459 -21 459 -21 429 -55 c 128,-1,17
 399 -89 399 -89 399 -112 c 0,18,19
 399 -132 399 -132 423 -132 c 0,20,21
 438 -132 438 -132 474 -114 c 0,22,23
 486 -108 486 -108 496 -108 c 0,24,25
 512 -108 512 -108 523.5 -119 c 128,-1,26
 535 -130 535 -130 535 -146 c 0,27,28
 535 -173 535 -173 500 -189 c 0,29,30
 457 -208 457 -208 416 -208 c 0,31,32
 372 -208 372 -208 347 -184 c 128,-1,33
 322 -160 322 -160 322 -119 c 0,34,35
 322 -82 322 -82 339.5 -55.5 c 128,-1,36
 357 -29 357 -29 401 0 c 1,37,-1
 375 0 l 1,38,-1
 375 48 l 1,39,40
 338 13 338 13 308.5 0 c 128,-1,41
 279 -13 279 -13 238 -13 c 0,42,43
 168 -13 168 -13 119 24 c 0,44,45
 60 68 60 68 60 156 c 2,46,-1
 60 437 l 1,0,-1
EndSplineSet
EndChar

StartChar: Wcircumflex
Encoding: 372 372 307
Width: 600
GlyphClass: 2
Flags: W
LayerCount: 2
Fore
SplineSet
291 710 m 1,0,-1
 182 616 l 2,1,2
 167 604 167 604 155 604 c 0,3,4
 141 604 141 604 131 614.5 c 128,-1,5
 121 625 121 625 121 637 c 0,6,7
 121 648 121 648 124.5 653 c 128,-1,8
 128 658 128 658 144 671 c 2,9,-1
 291 797 l 1,10,-1
 437 671 l 1,11,12
 443 671 443 671 446 664 c 1,13,14
 461 653 461 653 461 637 c 0,15,16
 461 625 461 625 451 614.5 c 128,-1,17
 441 604 441 604 428 604 c 128,-1,18
 415 604 415 604 400 616 c 2,19,-1
 291 710 l 1,0,-1
576 583 m 1,20,-1
 503 0 l 1,21,-1
 393 0 l 1,22,-1
 300 277 l 1,23,-1
 209 0 l 1,24,-1
 98 0 l 1,25,-1
 23 583 l 1,26,-1
 126 583 l 1,27,-1
 175 211 l 1,28,-1
 251 437 l 1,29,-1
 355 437 l 1,30,-1
 431 211 l 1,31,-1
 479 583 l 1,32,-1
 576 583 l 1,20,-1
EndSplineSet
EndChar

StartChar: wcircumflex
Encoding: 373 373 308
Width: 597
GlyphClass: 2
Flags: W
LayerCount: 2
Fore
SplineSet
289 569 m 1,0,-1
 180 475 l 2,1,2
 165 463 165 463 153 463 c 0,3,4
 139 463 139 463 129 473.5 c 128,-1,5
 119 484 119 484 119 496 c 0,6,7
 119 507 119 507 122.5 512 c 128,-1,8
 126 517 126 517 142 530 c 2,9,-1
 289 656 l 1,10,-1
 435 530 l 1,11,12
 441 530 441 530 444 523 c 1,13,14
 459 512 459 512 459 496 c 0,15,16
 459 484 459 484 449 473.5 c 128,-1,17
 439 463 439 463 426 463 c 128,-1,18
 413 463 413 463 398 475 c 2,19,-1
 289 569 l 1,0,-1
133 437 m 1,20,-1
 197 185 l 1,21,-1
 257 343 l 1,22,-1
 345 343 l 1,23,-1
 406 185 l 1,24,-1
 472 437 l 1,25,-1
 571 437 l 1,26,-1
 462 0 l 1,27,-1
 370 0 l 1,28,-1
 299 181 l 1,29,-1
 231 0 l 1,30,-1
 137 0 l 1,31,-1
 27 437 l 1,32,-1
 133 437 l 1,20,-1
EndSplineSet
EndChar

StartChar: ycircumflex
Encoding: 375 375 310
Width: 583
GlyphClass: 2
Flags: W
LayerCount: 2
Fore
SplineSet
463 437 m 1,0,-1
 570 437 l 1,1,-1
 236 -205 l 1,2,-1
 127 -205 l 1,3,-1
 233 3 l 1,4,-1
 9 437 l 1,5,-1
 124 437 l 1,6,-1
 289 114 l 1,7,-1
 463 437 l 1,0,-1
282 569 m 1,8,-1
 173 475 l 2,9,10
 158 463 158 463 146 463 c 0,11,12
 132 463 132 463 122 473.5 c 128,-1,13
 112 484 112 484 112 496 c 0,14,15
 112 507 112 507 115.5 512 c 128,-1,16
 119 517 119 517 135 530 c 2,17,-1
 282 656 l 1,18,-1
 428 530 l 1,19,20
 433 530 433 530 437 523 c 1,21,22
 452 512 452 512 452 496 c 0,23,24
 452 484 452 484 442 473.5 c 128,-1,25
 432 463 432 463 419 463 c 128,-1,26
 406 463 406 463 391 475 c 2,27,-1
 282 569 l 1,8,-1
EndSplineSet
EndChar

StartChar: Ydieresis
Encoding: 376 376 311
Width: 554
GlyphClass: 2
Flags: W
LayerCount: 2
Fore
SplineSet
174 798 m 128,-1,1
 199 798 199 798 216.5 780.5 c 128,-1,2
 234 763 234 763 234 737 c 0,3,4
 234 713 234 713 216.5 695.5 c 128,-1,5
 199 678 199 678 174 678 c 128,-1,6
 149 678 149 678 131.5 695.5 c 128,-1,7
 114 713 114 713 114 738 c 128,-1,8
 114 763 114 763 131.5 780.5 c 128,-1,0
 149 798 149 798 174 798 c 128,-1,1
382 798 m 128,-1,10
 407 798 407 798 424.5 780.5 c 128,-1,11
 442 763 442 763 442 737 c 0,12,13
 442 713 442 713 424.5 695.5 c 128,-1,14
 407 678 407 678 382 678 c 128,-1,15
 357 678 357 678 339.5 695.5 c 128,-1,16
 322 713 322 713 322 738 c 128,-1,17
 322 763 322 763 339.5 780.5 c 128,-1,9
 357 798 357 798 382 798 c 128,-1,10
228 0 m 1,18,-1
 228 245 l 1,19,-1
 -7 583 l 1,20,-1
 113 583 l 1,21,-1
 278 348 l 1,22,-1
 441 583 l 1,23,-1
 561 583 l 1,24,-1
 328 245 l 1,25,-1
 328 0 l 1,26,-1
 228 0 l 1,18,-1
EndSplineSet
EndChar

StartChar: longs
Encoding: 383 383 318
Width: 489
GlyphClass: 2
Flags: W
LayerCount: 2
Fore
SplineSet
231 97 m 1,0,-1
 366 97 l 2,1,2
 398 97 398 97 410 88 c 1,3,4
 429 71 429 71 429 48 c 0,5,6
 429 21 429 21 407 7 c 0,7,8
 396 0 396 0 366 0 c 2,9,-1
 77 0 l 2,10,11
 45 0 45 0 33 9 c 1,12,13
 14 26 14 26 14 48 c 0,14,15
 14 76 14 76 38 90 c 1,16,17
 46 97 46 97 77 97 c 2,18,-1
 134 97 l 1,19,-1
 134 326 l 1,20,-1
 88 326 l 2,21,22
 58 326 58 326 45 336 c 1,23,24
 25 349 25 349 25 375 c 0,25,26
 25 403 25 403 48 417 c 0,27,28
 58 423 58 423 89 423 c 2,29,-1
 134 423 l 1,30,-1
 134 460 l 2,31,32
 134 527 134 527 184 565.5 c 128,-1,33
 234 604 234 604 321 604 c 0,34,35
 405 604 405 604 453 588 c 1,36,37
 495 577 495 577 495 542 c 0,38,39
 495 522 495 522 481.5 507 c 128,-1,40
 468 492 468 492 449 492 c 0,41,42
 445 492 445 492 421 496 c 0,43,44
 362 507 362 507 312 507 c 0,45,46
 231 507 231 507 231 460 c 2,47,-1
 231 97 l 1,0,-1
EndSplineSet
EndChar

StartChar: florin
Encoding: 402 402 319
Width: 441
GlyphClass: 2
Flags: W
LayerCount: 2
Fore
SplineSet
253 404 m 1,0,-1
 310 404 l 2,1,2
 345 404 345 404 356 395 c 0,3,4
 377 379 377 379 377 354 c 0,5,6
 377 325 377 325 353 311 c 0,7,8
 342 304 342 304 310 304 c 2,9,-1
 253 304 l 1,10,-1
 253 66 l 2,11,12
 253 -14 253 -14 202.5 -68.5 c 128,-1,13
 152 -123 152 -123 78 -123 c 0,14,15
 20 -123 20 -123 -12 -106 c 128,-1,16
 -44 -89 -44 -89 -44 -59 c 0,17,18
 -44 -39 -44 -39 -29.5 -24 c 128,-1,19
 -15 -9 -15 -9 4 -9 c 0,20,21
 10 -9 10 -9 27 -15 c 0,22,23
 53 -23 53 -23 75 -23 c 0,24,25
 110 -23 110 -23 131.5 1.5 c 128,-1,26
 153 26 153 26 153 66 c 2,27,-1
 153 304 l 1,28,-1
 96 304 l 2,29,30
 62 304 62 304 50 313 c 0,31,32
 29 329 29 329 29 354 c 0,33,34
 29 383 29 383 53 397 c 1,35,36
 63 404 63 404 96 404 c 2,37,-1
 153 404 l 1,38,-1
 153 459 l 2,39,40
 153 533 153 533 204 585.5 c 128,-1,41
 255 638 255 638 327 638 c 0,42,43
 383 638 383 638 415 622 c 128,-1,44
 447 606 447 606 447 577 c 0,45,46
 447 555 447 555 433 539.5 c 128,-1,47
 419 524 419 524 399 524 c 0,48,49
 390 524 390 524 375 529 c 0,50,51
 351 538 351 538 326 538 c 0,52,53
 296 538 296 538 274.5 514 c 128,-1,54
 253 490 253 490 253 456 c 2,55,-1
 253 404 l 1,0,-1
EndSplineSet
EndChar

StartChar: Ohorn
Encoding: 416 416 320
Width: 613
GlyphClass: 2
Flags: W
LayerCount: 2
Fore
SplineSet
319 597 m 0,0,1
 406 597 406 597 479 541 c 1,2,3
 517 556 517 556 517 592 c 0,4,5
 517 601 517 601 516 603 c 1,6,-1
 503 603 l 2,7,8
 459 603 459 603 459 642 c 128,-1,9
 459 681 459 681 503 681 c 2,10,-1
 544 681 l 1,11,12
 563 669 563 669 578.5 645 c 128,-1,13
 594 621 594 621 594 595 c 0,14,15
 594 526 594 526 535 485 c 1,16,17
 598 404 598 404 598 287 c 0,18,19
 598 164 598 164 515.5 75 c 128,-1,20
 433 -14 433 -14 319 -14 c 0,21,22
 203 -14 203 -14 121.5 75.5 c 128,-1,23
 40 165 40 165 40 292 c 0,24,25
 40 418 40 418 122 507.5 c 128,-1,26
 204 597 204 597 319 597 c 0,0,1
319 497 m 0,27,28
 246 497 246 497 193 436.5 c 128,-1,29
 140 376 140 376 140 292 c 0,30,31
 140 207 140 207 192.5 146.5 c 128,-1,32
 245 86 245 86 319 86 c 0,33,34
 392 86 392 86 445 146 c 128,-1,35
 498 206 498 206 498 289 c 0,36,37
 498 375 498 375 445.5 436 c 128,-1,38
 393 497 393 497 319 497 c 0,27,28
EndSplineSet
EndChar

StartChar: ohorn
Encoding: 417 417 321
Width: 562
GlyphClass: 2
Flags: W
LayerCount: 2
Fore
SplineSet
296 450 m 0,0,1
 389 450 389 450 461 394 c 1,2,3
 501 409 501 409 501 446 c 0,4,5
 501 455 501 455 500 457 c 1,6,-1
 487 457 l 2,7,8
 443 457 443 457 443 496 c 128,-1,9
 443 535 443 535 487 535 c 2,10,-1
 528 535 l 1,11,12
 547 523 547 523 562.5 499 c 128,-1,13
 578 475 578 475 578 449 c 0,14,15
 578 377 578 377 515 336 c 1,16,17
 551 281 551 281 551 217 c 0,18,19
 551 119 551 119 476 51.5 c 128,-1,20
 401 -16 401 -16 293 -16 c 128,-1,21
 185 -16 185 -16 110 51.5 c 128,-1,22
 35 119 35 119 35 217 c 0,23,24
 35 316 35 316 110 383 c 128,-1,25
 185 450 185 450 296 450 c 0,0,1
295 350 m 0,26,27
 227 350 227 350 181 312 c 128,-1,28
 135 274 135 274 135 217 c 0,29,30
 135 161 135 161 180.5 122.5 c 128,-1,31
 226 84 226 84 293 84 c 128,-1,32
 360 84 360 84 405.5 122.5 c 128,-1,33
 451 161 451 161 451 217 c 128,-1,34
 451 273 451 273 405.5 311.5 c 128,-1,35
 360 350 360 350 295 350 c 0,26,27
EndSplineSet
EndChar

StartChar: Uhorn
Encoding: 431 431 322
Width: 725
GlyphClass: 2
Flags: W
LayerCount: 2
Fore
SplineSet
454 583 m 2,0,-1
 589 583 l 1,1,-1
 589 537 l 1,2,3
 610 538 610 538 628.5 554 c 128,-1,4
 647 570 647 570 647 592 c 0,5,6
 647 601 647 601 646 603 c 1,7,-1
 633 603 l 2,8,9
 589 603 589 603 589 642 c 128,-1,10
 589 681 589 681 633 681 c 2,11,-1
 674 681 l 1,12,13
 693 669 693 669 708.5 645 c 128,-1,14
 724 621 724 621 724 595 c 0,15,16
 724 536 724 536 681 498 c 128,-1,17
 638 460 638 460 589 459 c 1,18,-1
 589 205 l 2,19,20
 589 98 589 98 505 35 c 0,21,22
 441 -14 441 -14 360 -14 c 128,-1,23
 279 -14 279 -14 215 35 c 0,24,25
 131 100 131 100 131 205 c 2,26,-1
 131 483 l 1,27,28
 70 485 70 485 70 533 c 0,29,30
 70 562 70 562 94 576 c 1,31,32
 104 583 104 583 136 583 c 2,33,-1
 266 583 l 2,34,35
 300 583 300 583 312 574 c 0,36,37
 332 557 332 557 332 533 c 0,38,39
 332 504 332 504 308 490 c 0,40,41
 297 483 297 483 266 483 c 2,42,-1
 231 483 l 1,43,-1
 231 196 l 2,44,45
 231 150 231 150 269 118 c 128,-1,46
 307 86 307 86 360 86 c 128,-1,47
 413 86 413 86 451 118 c 128,-1,48
 489 150 489 150 489 196 c 2,49,-1
 489 483 l 1,50,-1
 454 483 l 2,51,52
 421 483 421 483 409 492 c 0,53,54
 388 508 388 508 388 533 c 0,55,56
 388 562 388 562 412 576 c 1,57,58
 422 583 422 583 454 583 c 2,0,-1
EndSplineSet
EndChar

StartChar: uhorn
Encoding: 432 432 323
Width: 674
GlyphClass: 2
Flags: W
LayerCount: 2
Fore
SplineSet
555 437 m 1,0,-1
 555 391 l 1,1,2
 576 392 576 392 594.5 408 c 128,-1,3
 613 424 613 424 613 446 c 0,4,5
 613 455 613 455 612 457 c 1,6,-1
 599 457 l 2,7,8
 555 457 555 457 555 496 c 128,-1,9
 555 535 555 535 599 535 c 2,10,-1
 640 535 l 1,11,12
 659 523 659 523 674.5 499 c 128,-1,13
 690 475 690 475 690 449 c 0,14,15
 690 390 690 390 647 352 c 128,-1,16
 604 314 604 314 555 313 c 1,17,-1
 555 100 l 1,18,19
 616 100 616 100 616 50 c 0,20,21
 616 23 616 23 592 7 c 0,22,23
 581 0 581 0 550 0 c 2,24,-1
 455 0 l 1,25,-1
 455 48 l 1,26,27
 418 13 418 13 388.5 0 c 128,-1,28
 359 -13 359 -13 318 -13 c 0,29,30
 248 -13 248 -13 199 24 c 0,31,32
 140 68 140 68 140 156 c 2,33,-1
 140 338 l 1,34,-1
 124 338 l 1,35,-1
 113 337 l 2,36,37
 91 336 91 336 74.5 350.5 c 128,-1,38
 58 365 58 365 58 387 c 0,39,40
 58 416 58 416 82 430 c 0,41,42
 93 437 93 437 124 437 c 2,43,-1
 240 437 l 1,44,-1
 240 159 l 2,45,46
 240 87 240 87 328 87 c 0,47,48
 366 87 366 87 391 100.5 c 128,-1,49
 416 114 416 114 455 155 c 1,50,-1
 455 337 l 1,51,-1
 420 337 l 2,52,53
 386 337 386 337 375 347 c 1,54,55
 354 362 354 362 354 387 c 0,56,57
 354 416 354 416 378 430 c 0,58,59
 389 437 389 437 420 437 c 2,60,-1
 555 437 l 1,0,-1
EndSplineSet
EndChar

StartChar: circumflex
Encoding: 710 710 326
Width: 451
GlyphClass: 2
Flags: W
LayerCount: 2
Fore
SplineSet
226 607 m 1,0,-1
 113 510 l 2,1,2
 97 497 97 497 85 497 c 0,3,4
 71 497 71 497 60.5 507.5 c 128,-1,5
 50 518 50 518 50 532 c 0,6,7
 50 543 50 543 54 548.5 c 128,-1,8
 58 554 58 554 74 567 c 2,9,-1
 226 696 l 1,10,-1
 377 567 l 2,11,12
 383 563 383 563 386 560 c 0,13,14
 401 548 401 548 401 532 c 0,15,16
 401 518 401 518 390.5 507.5 c 128,-1,17
 380 497 380 497 367 497 c 128,-1,18
 354 497 354 497 338 510 c 2,19,-1
 226 607 l 1,0,-1
EndSplineSet
EndChar

StartChar: caron
Encoding: 711 711 327
Width: 451
GlyphClass: 2
Flags: W
LayerCount: 2
Fore
SplineSet
226 586 m 1,0,-1
 338 682 l 2,1,2
 353 696 353 696 367 696 c 0,3,4
 380 696 380 696 390.5 685 c 128,-1,5
 401 674 401 674 401 660 c 0,6,7
 401 644 401 644 386 632 c 2,8,-1
 377 625 l 1,9,-1
 226 497 l 1,10,-1
 74 625 l 2,11,12
 58 638 58 638 54 644 c 128,-1,13
 50 650 50 650 50 660 c 0,14,15
 50 674 50 674 60.5 685 c 128,-1,16
 71 696 71 696 85 696 c 0,17,18
 96 696 96 696 113 682 c 2,19,-1
 226 586 l 1,0,-1
EndSplineSet
EndChar

StartChar: breve
Encoding: 728 728 328
Width: 482
GlyphClass: 2
Flags: W
LayerCount: 2
Fore
SplineSet
100 687 m 128,-1,1
 115 687 115 687 122 678.5 c 128,-1,2
 129 670 129 670 134 647 c 0,3,4
 142 612 142 612 171 591.5 c 128,-1,5
 200 571 200 571 241 571 c 128,-1,6
 282 571 282 571 311 591.5 c 128,-1,7
 340 612 340 612 348 647 c 0,8,9
 353 670 353 670 360 678.5 c 128,-1,10
 367 687 367 687 382 687 c 128,-1,11
 397 687 397 687 406.5 676.5 c 128,-1,12
 416 666 416 666 416 649 c 0,13,14
 416 592 416 592 363 547.5 c 128,-1,15
 310 503 310 503 241 503 c 128,-1,16
 172 503 172 503 119 547.5 c 128,-1,17
 66 592 66 592 66 649 c 0,18,19
 66 666 66 666 75.5 676.5 c 128,-1,0
 85 687 85 687 100 687 c 128,-1,1
EndSplineSet
EndChar

StartChar: dotaccent
Encoding: 729 729 329
Width: 402
GlyphClass: 2
Flags: W
LayerCount: 2
Fore
SplineSet
201 654 m 128,-1,1
 226 654 226 654 243.5 636.5 c 128,-1,2
 261 619 261 619 261 593 c 0,3,4
 261 569 261 569 243.5 551.5 c 128,-1,5
 226 534 226 534 201 534 c 128,-1,6
 176 534 176 534 158.5 551.5 c 128,-1,7
 141 569 141 569 141 594 c 128,-1,8
 141 619 141 619 158.5 636.5 c 128,-1,0
 176 654 176 654 201 654 c 128,-1,1
EndSplineSet
EndChar

StartChar: ring
Encoding: 730 730 330
Width: 416
GlyphClass: 2
Flags: W
LayerCount: 2
Fore
SplineSet
208 727 m 0,0,1
 259 727 259 727 295 691 c 128,-1,2
 331 655 331 655 331 605 c 0,3,4
 331 557 331 557 294.5 521.5 c 128,-1,5
 258 486 258 486 208 486 c 128,-1,6
 158 486 158 486 121.5 522 c 128,-1,7
 85 558 85 558 85 607 c 128,-1,8
 85 656 85 656 121.5 691.5 c 128,-1,9
 158 727 158 727 208 727 c 0,0,1
208 674 m 0,10,11
 180 674 180 674 159 654 c 128,-1,12
 138 634 138 634 138 607 c 128,-1,13
 138 580 138 580 159 560 c 128,-1,14
 180 540 180 540 208 540 c 128,-1,15
 236 540 236 540 257 560 c 128,-1,16
 278 580 278 580 278 606 c 0,17,18
 278 634 278 634 257.5 654 c 128,-1,19
 237 674 237 674 208 674 c 0,10,11
EndSplineSet
EndChar

StartChar: ogonek
Encoding: 731 731 331
Width: 436
GlyphClass: 2
Flags: W
LayerCount: 2
Fore
SplineSet
207 0 m 1,0,-1
 305 0 l 1,1,2
 251 -37 251 -37 228 -62.5 c 128,-1,3
 205 -88 205 -88 205 -112 c 0,4,5
 205 -132 205 -132 229 -132 c 0,6,7
 243 -132 243 -132 280 -114 c 0,8,9
 292 -108 292 -108 302 -108 c 0,10,11
 318 -108 318 -108 329.5 -119 c 128,-1,12
 341 -130 341 -130 341 -146 c 0,13,14
 341 -173 341 -173 306 -189 c 0,15,16
 263 -208 263 -208 222 -208 c 0,17,18
 178 -208 178 -208 153 -184 c 128,-1,19
 128 -160 128 -160 128 -119 c 0,20,21
 128 -82 128 -82 146 -54.5 c 128,-1,22
 164 -27 164 -27 207 0 c 1,0,-1
EndSplineSet
EndChar

StartChar: tilde
Encoding: 732 732 332
Width: 492
GlyphClass: 2
Flags: W
LayerCount: 2
Fore
SplineSet
399 656 m 0,0,1
 412 656 412 656 421.5 647.5 c 128,-1,2
 431 639 431 639 431 628 c 0,3,4
 431 608 431 608 402 571 c 0,5,6
 364 523 364 523 322 523 c 0,7,8
 288 523 288 523 223 566 c 0,9,10
 192 587 192 587 173 587 c 0,11,12
 160 587 160 587 150 578.5 c 128,-1,13
 140 570 140 570 118 541 c 0,14,15
 107 526 107 526 92 526 c 0,16,17
 79 526 79 526 70 535 c 128,-1,18
 61 544 61 544 61 556 c 0,19,20
 61 578 61 578 88 611 c 1,21,22
 127 656 127 656 171 656 c 0,23,24
 200 656 200 656 261 618 c 1,25,26
 305 592 305 592 319 592 c 0,27,28
 330 592 330 592 336.5 597.5 c 128,-1,29
 343 603 343 603 360 626 c 0,30,31
 381 656 381 656 399 656 c 0,0,1
EndSplineSet
EndChar

StartChar: hungarumlaut
Encoding: 733 733 333
Width: 438
GlyphClass: 2
Flags: W
LayerCount: 2
Fore
SplineSet
238 622 m 2,0,-1
 136 512 l 2,1,2
 122 496 122 496 107 496 c 0,3,4
 94 496 94 496 83 507.5 c 128,-1,5
 72 519 72 519 72 533 c 0,6,7
 72 545 72 545 93 569 c 2,8,-1
 195 679 l 2,9,10
 210 694 210 694 224 694 c 0,11,12
 237 694 237 694 247.5 683 c 128,-1,13
 258 672 258 672 258 658 c 0,14,15
 258 643 258 643 238 622 c 2,0,-1
402 622 m 2,16,-1
 300 512 l 2,17,18
 284 496 284 496 271 496 c 128,-1,19
 258 496 258 496 247 507.5 c 128,-1,20
 236 519 236 519 236 533 c 0,21,22
 236 545 236 545 257 569 c 2,23,-1
 359 679 l 2,24,25
 373 694 373 694 388 694 c 0,26,27
 401 694 401 694 411.5 683 c 128,-1,28
 422 672 422 672 422 658 c 0,29,30
 422 643 422 643 402 622 c 2,16,-1
EndSplineSet
EndChar

StartChar: uni031B
Encoding: 795 795 334
Width: 600
GlyphClass: 2
Flags: W
LayerCount: 2
Fore
SplineSet
510 313 m 2,0,-1
 460 311 l 1,1,-1
 460 391 l 1,2,-1
 510 391 l 1,3,4
 531 392 531 392 549.5 408 c 128,-1,5
 568 424 568 424 568 446 c 0,6,7
 568 455 568 455 567 457 c 1,8,-1
 554 457 l 2,9,10
 510 457 510 457 510 496 c 128,-1,11
 510 535 510 535 554 535 c 2,12,-1
 595 535 l 1,13,14
 614 523 614 523 629.5 499 c 128,-1,15
 645 475 645 475 645 449 c 0,16,17
 645 390 645 390 602 352 c 128,-1,18
 559 314 559 314 510 313 c 2,0,-1
EndSplineSet
EndChar

StartChar: Delta
Encoding: 916 916 335
Width: 570
GlyphClass: 2
Flags: W
LayerCount: 2
Fore
SplineSet
0 0 m 1,0,-1
 248 583 l 1,1,-1
 323 583 l 1,2,-1
 570 0 l 1,3,-1
 0 0 l 1,0,-1
149 100 m 1,4,-1
 421 100 l 1,5,-1
 285 421 l 1,6,-1
 149 100 l 1,4,-1
EndSplineSet
EndChar

StartChar: mu
Encoding: 956 956 336
Width: 504
GlyphClass: 2
Flags: W
LayerCount: 2
Fore
SplineSet
480 0 m 1,0,-1
 380 0 l 1,1,-1
 380 22 l 1,2,3
 301 -16 301 -16 223 -16 c 0,4,5
 195 -16 195 -16 165 -7 c 1,6,-1
 165 -87 l 2,7,8
 165 -119 165 -119 156 -132 c 0,9,10
 140 -153 140 -153 115 -153 c 0,11,12
 88 -153 88 -153 72 -129 c 0,13,14
 65 -118 65 -118 65 -87 c 2,15,-1
 65 437 l 1,16,-1
 165 437 l 1,17,-1
 165 144 l 2,18,19
 165 112 165 112 180 98 c 128,-1,20
 195 84 195 84 230 84 c 0,21,22
 291 84 291 84 380 138 c 1,23,-1
 380 437 l 1,24,-1
 480 437 l 1,25,-1
 480 0 l 1,0,-1
EndSplineSet
EndChar

StartChar: uni0400
Encoding: 1024 1024 337
Width: 596
GlyphClass: 2
Flags: W
LayerCount: 2
Fore
SplineSet
187 824 m 2,0,-1
 320 712 l 2,1,2
 343 693 343 693 343 676 c 0,3,4
 343 662 343 662 332 651 c 128,-1,5
 321 640 321 640 306 640 c 0,6,7
 293 640 293 640 274 656 c 2,8,-1
 141 767 l 2,9,10
 118 786 118 786 118 803 c 0,11,12
 118 818 118 818 128.5 828.5 c 128,-1,13
 139 839 139 839 155 839 c 0,14,15
 168 839 168 839 187 824 c 2,0,-1
504 583 m 1,16,-1
 504 483 l 1,17,-1
 170 483 l 1,18,-1
 170 342 l 1,19,-1
 354 342 l 1,20,-1
 354 243 l 1,21,-1
 170 243 l 1,22,-1
 170 100 l 1,23,-1
 526 100 l 1,24,-1
 526 0 l 1,25,-1
 70 0 l 1,26,-1
 70 583 l 1,27,-1
 504 583 l 1,16,-1
EndSplineSet
EndChar

StartChar: afii10051
Encoding: 1026 1026 339
Width: 600
GlyphClass: 2
Flags: W
LayerCount: 2
Fore
SplineSet
549 118 m 1,0,-1
 549 -4 l 2,1,2
 549 -24 549 -24 547.5 -37 c 128,-1,3
 546 -50 546 -50 540.5 -68.5 c 128,-1,4
 535 -87 535 -87 522.5 -99 c 128,-1,5
 510 -111 510 -111 490 -122.5 c 128,-1,6
 470 -134 470 -134 436.5 -139.5 c 128,-1,7
 403 -145 403 -145 359 -145 c 1,8,-1
 359 -49 l 1,9,10
 402 -49 402 -49 426.5 -32.5 c 128,-1,11
 451 -16 451 -16 451 13 c 2,12,-1
 451 117 l 1,13,-1
 451 172 l 2,14,15
 451 202 451 202 421.5 217.5 c 128,-1,16
 392 233 392 233 356 233 c 0,17,18
 318 233 318 233 283.5 217.5 c 128,-1,19
 249 202 249 202 249 172 c 2,20,-1
 249 0 l 1,21,-1
 151 0 l 1,22,-1
 151 468 l 1,23,-1
 0 468 l 1,24,-1
 0 565 l 1,25,-1
 401 565 l 1,26,-1
 401 468 l 1,27,-1
 249 468 l 1,28,-1
 249 291 l 1,29,30
 294 329 294 329 362 329 c 0,31,32
 393 329 393 329 416.5 326.5 c 128,-1,33
 440 324 440 324 466 316 c 128,-1,34
 492 308 492 308 509.5 294.5 c 128,-1,35
 527 281 527 281 538 256.5 c 128,-1,36
 549 232 549 232 549 198 c 2,37,-1
 549 118 l 1,0,-1
EndSplineSet
EndChar

StartChar: afii10053
Encoding: 1028 1028 341
Width: 600
GlyphClass: 2
Flags: W
LayerCount: 2
Fore
SplineSet
434 546 m 0,0,1
 453 533 453 533 466 521 c 128,-1,2
 479 509 479 509 493 488 c 128,-1,3
 507 467 507 467 511.5 459 c 128,-1,4
 516 451 516 451 533 419 c 0,5,6
 544 398 544 398 525 376 c 1,7,8
 510 356 510 356 484 356 c 0,9,10
 466 356 466 356 451 369 c 1,11,12
 443 378 443 378 437 407 c 1,13,14
 432 438 432 438 395 458 c 0,15,16
 352 482 352 482 299 482 c 0,17,18
 233 482 233 482 186.5 439.5 c 128,-1,19
 140 397 140 397 132 330 c 1,20,-1
 339 330 l 2,21,22
 369 330 369 330 380 324 c 0,23,24
 403 310 403 310 403 282 c 0,25,26
 403 259 403 259 384 242 c 1,27,28
 373 234 373 234 339 234 c 2,29,-1
 129 234 l 1,30,31
 134 165 134 165 186 124.5 c 128,-1,32
 238 84 238 84 322 84 c 0,33,34
 393 84 393 84 428 105 c 1,35,36
 437 112 437 112 466 139 c 1,37,38
 478 154 478 154 500 154 c 0,39,40
 519 154 519 154 534 139.5 c 128,-1,41
 549 125 549 125 549 105 c 0,42,43
 549 70 549 70 496 35 c 1,44,45
 427 -15 427 -15 318 -15 c 0,46,47
 194 -15 194 -15 113.5 58 c 128,-1,48
 33 131 33 131 33 241 c 2,49,-1
 33 306 l 2,50,51
 33 422 33 422 108.5 500 c 128,-1,52
 184 578 184 578 296 578 c 0,53,54
 327 578 327 578 345.5 576.5 c 128,-1,55
 364 575 364 575 388 568 c 128,-1,56
 412 561 412 561 434 546 c 0,0,1
EndSplineSet
EndChar

StartChar: afii10058
Encoding: 1033 1033 346
Width: 600
GlyphClass: 2
Flags: W
LayerCount: 2
Fore
SplineSet
146 565 m 1,0,-1
 432 565 l 1,1,-1
 432 345 l 1,2,3
 504 345 504 345 539.5 335 c 128,-1,4
 575 325 575 325 605 289 c 1,5,6
 654 235 654 235 654 170 c 0,7,8
 654 91 654 91 596 45.5 c 128,-1,9
 538 0 538 0 445 0 c 2,10,-1
 335 0 l 1,11,-1
 335 468 l 1,12,-1
 242 468 l 1,13,-1
 242 126 l 2,14,15
 242 59 242 59 201.5 29.5 c 128,-1,16
 161 0 161 0 96 0 c 0,17,18
 39 0 39 0 -1.5 35 c 128,-1,19
 -42 70 -42 70 -42 126 c 0,20,21
 -42 165 -42 165 -34 177 c 0,22,23
 -18 198 -18 198 7 198 c 128,-1,24
 32 198 32 198 48 174 c 0,25,26
 55 164 55 164 55 136 c 0,27,28
 55 116 55 116 68.5 106.5 c 128,-1,29
 82 97 82 97 102 97 c 0,30,31
 119 97 119 97 132.5 108.5 c 128,-1,32
 146 120 146 120 146 136 c 2,33,-1
 146 565 l 1,0,-1
432 97 m 1,34,-1
 445 97 l 2,35,36
 551 97 551 97 551 173 c 0,37,38
 551 248 551 248 445 248 c 2,39,-1
 432 248 l 1,40,-1
 432 97 l 1,34,-1
EndSplineSet
EndChar

StartChar: afii10059
Encoding: 1034 1034 347
Width: 600
GlyphClass: 2
Flags: W
LayerCount: 2
Fore
SplineSet
60 0 m 1,0,-1
 -37 0 l 1,1,-1
 -37 565 l 1,2,-1
 60 565 l 1,3,-1
 60 341 l 1,4,-1
 267 341 l 1,5,-1
 267 565 l 1,6,-1
 364 565 l 1,7,-1
 364 345 l 1,8,-1
 402 345 l 2,9,10
 475 345 475 345 513.5 334.5 c 128,-1,11
 552 324 552 324 581 289 c 1,12,13
 630 235 630 235 630 170 c 0,14,15
 630 91 630 91 572 45.5 c 128,-1,16
 514 0 514 0 421 0 c 2,17,-1
 267 0 l 1,18,-1
 267 245 l 1,19,-1
 60 245 l 1,20,-1
 60 0 l 1,0,-1
364 97 m 1,21,-1
 421 97 l 2,22,23
 527 97 527 97 527 173 c 0,24,25
 527 248 527 248 421 248 c 2,26,-1
 364 248 l 1,27,-1
 364 97 l 1,21,-1
EndSplineSet
EndChar

StartChar: afii10060
Encoding: 1035 1035 348
Width: 600
GlyphClass: 2
Flags: W
LayerCount: 2
Fore
SplineSet
151 0 m 1,0,-1
 151 468 l 1,1,-1
 0 468 l 1,2,-1
 0 565 l 1,3,-1
 401 565 l 1,4,-1
 401 468 l 1,5,-1
 249 468 l 1,6,-1
 249 291 l 1,7,8
 294 329 294 329 362 329 c 0,9,10
 393 329 393 329 416.5 326.5 c 128,-1,11
 440 324 440 324 466 316 c 128,-1,12
 492 308 492 308 509.5 294.5 c 128,-1,13
 527 281 527 281 538 256.5 c 128,-1,14
 549 232 549 232 549 198 c 2,15,-1
 549 0 l 1,16,-1
 451 0 l 1,17,-1
 451 172 l 2,18,19
 451 202 451 202 421.5 217.5 c 128,-1,20
 392 233 392 233 356 233 c 0,21,22
 318 233 318 233 283.5 217.5 c 128,-1,23
 249 202 249 202 249 172 c 2,24,-1
 249 0 l 1,25,-1
 151 0 l 1,0,-1
EndSplineSet
EndChar

StartChar: uni040D
Encoding: 1037 1037 350
Width: 600
GlyphClass: 2
Flags: W
LayerCount: 2
Fore
SplineSet
249 782 m 2,0,-1
 378 675 l 2,1,2
 400 657 400 657 400 639 c 0,3,4
 400 625 400 625 389.5 614.5 c 128,-1,5
 379 604 379 604 364 604 c 0,6,7
 353 604 353 604 332 620 c 1,8,-1
 205 728 l 1,9,10
 182 746 182 746 182 761 c 0,11,12
 182 777 182 777 192.5 787 c 128,-1,13
 203 797 203 797 218 797 c 0,14,15
 230 797 230 797 249 782 c 2,0,-1
90 0 m 1,16,-1
 90 565 l 1,17,-1
 187 565 l 1,18,-1
 187 248 l 1,19,-1
 394 427 l 1,20,-1
 394 565 l 1,21,-1
 491 565 l 1,22,-1
 491 0 l 1,23,-1
 394 0 l 1,24,-1
 394 316 l 1,25,-1
 187 136 l 1,26,-1
 187 0 l 1,27,-1
 90 0 l 1,16,-1
EndSplineSet
EndChar

StartChar: afii10145
Encoding: 1039 1039 352
Width: 600
GlyphClass: 2
Flags: W
LayerCount: 2
Fore
SplineSet
90 0 m 1,0,-1
 90 565 l 1,1,-1
 187 565 l 1,2,-1
 187 97 l 1,3,-1
 394 97 l 1,4,-1
 394 565 l 1,5,-1
 491 565 l 1,6,-1
 491 0 l 1,7,-1
 340 0 l 1,8,-1
 340 -73 l 2,9,10
 340 -107 340 -107 333 -116 c 0,11,12
 318 -136 318 -136 293 -136 c 0,13,14
 265 -136 265 -136 250 -113 c 0,15,16
 244 -103 244 -103 244 -73 c 2,17,-1
 244 0 l 1,18,-1
 90 0 l 1,0,-1
EndSplineSet
EndChar

StartChar: afii10018
Encoding: 1041 1041 354
Width: 600
GlyphClass: 2
Flags: W
LayerCount: 2
Fore
SplineSet
541 468 m 1,0,-1
 195 468 l 1,1,-1
 195 332 l 1,2,-1
 369 332 l 2,3,4
 465 332 465 332 513 286.5 c 128,-1,5
 561 241 561 241 561 170 c 0,6,7
 561 0 561 0 370 0 c 2,8,-1
 99 0 l 1,9,-1
 99 565 l 1,10,-1
 541 565 l 1,11,-1
 541 468 l 1,0,-1
195 97 m 1,12,-1
 361 97 l 2,13,14
 411 97 411 97 436 114.5 c 128,-1,15
 461 132 461 132 460 169 c 1,16,17
 460 234 460 234 360 234 c 2,18,-1
 195 234 l 1,19,-1
 195 97 l 1,12,-1
EndSplineSet
EndChar

StartChar: afii10020
Encoding: 1043 1043 356
Width: 600
GlyphClass: 2
Flags: W
LayerCount: 2
Fore
SplineSet
205 0 m 1,0,-1
 108 0 l 1,1,-1
 108 565 l 1,2,-1
 550 565 l 1,3,-1
 550 468 l 1,4,-1
 205 468 l 1,5,-1
 205 0 l 1,0,-1
EndSplineSet
EndChar

StartChar: afii10021
Encoding: 1044 1044 357
Width: 600
GlyphClass: 2
Flags: W
LayerCount: 2
Fore
SplineSet
480 565 m 1,0,-1
 480 97 l 1,1,-1
 581 97 l 1,2,-1
 581 -73 l 2,3,4
 581 -102 581 -102 572 -116 c 1,5,6
 557 -136 557 -136 532 -136 c 0,7,8
 505 -136 505 -136 490 -113 c 0,9,10
 484 -103 484 -103 484 -73 c 2,11,-1
 484 0 l 1,12,-1
 102 0 l 1,13,-1
 102 -73 l 2,14,15
 102 -102 102 -102 95 -113 c 0,16,17
 81 -136 81 -136 53 -136 c 0,18,19
 27 -136 27 -136 15 -116 c 1,20,21
 5 -105 5 -105 5 -73 c 2,22,-1
 5 97 l 1,23,-1
 104 97 l 2,24,25
 126 97 126 97 139 118.5 c 128,-1,26
 152 140 152 140 152 164 c 2,27,-1
 152 565 l 1,28,-1
 480 565 l 1,0,-1
231 98 m 1,29,-1
 381 97 l 1,30,-1
 381 468 l 1,31,-1
 249 468 l 1,32,-1
 249 155 l 2,33,34
 249 112 249 112 231 98 c 1,29,-1
EndSplineSet
EndChar

StartChar: afii10024
Encoding: 1046 1046 359
Width: 600
GlyphClass: 2
Flags: W
LayerCount: 2
Fore
SplineSet
530 0 m 1,0,-1
 453 0 l 1,1,2
 453 113 453 113 424.5 182.5 c 128,-1,3
 396 252 396 252 339 252 c 1,4,-1
 339 0 l 1,5,-1
 242 0 l 1,6,-1
 242 252 l 1,7,8
 185 252 185 252 156.5 183 c 128,-1,9
 128 114 128 114 126 0 c 1,10,-1
 49 0 l 1,11,-1
 50 97 l 2,12,13
 51 181 51 181 75 239 c 128,-1,14
 99 297 99 297 143 319 c 1,15,-1
 -43 565 l 1,16,-1
 56 565 l 1,17,-1
 242 326 l 1,18,-1
 242 565 l 1,19,-1
 339 565 l 1,20,-1
 339 326 l 1,21,-1
 525 565 l 1,22,-1
 624 565 l 1,23,-1
 437 319 l 1,24,25
 481 298 481 298 504.5 239.5 c 128,-1,26
 528 181 528 181 530 97 c 1,27,-1
 530 0 l 1,0,-1
EndSplineSet
EndChar

StartChar: afii10025
Encoding: 1047 1047 360
Width: 600
GlyphClass: 2
Flags: W
LayerCount: 2
Fore
SplineSet
148 24 m 0,0,1
 117 43 117 43 99.5 65 c 128,-1,2
 82 87 82 87 60 129 c 0,3,4
 49 151 49 151 70 172 c 1,5,6
 82 193 82 193 108 193 c 0,7,8
 132 193 132 193 143 178 c 1,9,10
 150 172 150 172 158 146 c 128,-1,11
 166 120 166 120 205.5 102 c 128,-1,12
 245 84 245 84 293 84 c 0,13,14
 346 84 346 84 383 104.5 c 128,-1,15
 420 125 420 125 420 156 c 0,16,17
 420 190 420 190 386 208 c 0,18,19
 385 209 385 209 377.5 213 c 128,-1,20
 370 217 370 217 367.5 218 c 128,-1,21
 365 219 365 219 357.5 222 c 128,-1,22
 350 225 350 225 344 226 c 128,-1,23
 338 227 338 227 328.5 229 c 128,-1,24
 319 231 319 231 308 231.5 c 128,-1,25
 297 232 297 232 283 232 c 2,26,-1
 226 232 l 2,27,28
 198 232 198 232 182 241 c 1,29,30
 162 256 162 256 162 281 c 0,31,32
 162 309 162 309 186 322 c 1,33,34
 196 330 196 330 226 330 c 2,35,-1
 267 330 l 2,36,37
 292 330 292 330 310.5 333 c 128,-1,38
 329 336 329 336 335 338 c 128,-1,39
 341 340 341 340 352 347.5 c 128,-1,40
 363 355 363 355 364 356 c 0,41,42
 380 363 380 363 390 377.5 c 128,-1,43
 400 392 400 392 400 408 c 0,44,45
 400 439 400 439 368.5 460.5 c 128,-1,46
 337 482 337 482 291 482 c 0,47,48
 246 482 246 482 214.5 464 c 128,-1,49
 183 446 183 446 175 417 c 1,50,51
 169 386 169 386 162 378 c 0,52,53
 148 364 148 364 127 364 c 0,54,55
 103 364 103 364 88 384 c 0,56,57
 71 408 71 408 81 429 c 0,58,59
 112 495 112 495 131 517 c 0,60,61
 145 533 145 533 164 546 c 0,62,63
 193 566 193 566 220.5 572 c 128,-1,64
 248 578 248 578 291 578 c 0,65,66
 381 578 381 578 441 529 c 128,-1,67
 501 480 501 480 501 407 c 0,68,69
 501 366 501 366 486 334.5 c 128,-1,70
 471 303 471 303 446 290 c 1,71,72
 454 284 454 284 464 276 c 0,73,74
 521 229 521 229 521 155 c 0,75,76
 521 79 521 79 460 32 c 128,-1,77
 399 -15 399 -15 299 -15 c 0,78,79
 213 -15 213 -15 148 24 c 0,0,1
EndSplineSet
EndChar

StartChar: afii10026
Encoding: 1048 1048 361
Width: 600
GlyphClass: 2
Flags: W
LayerCount: 2
Fore
SplineSet
90 0 m 1,0,-1
 90 565 l 1,1,-1
 187 565 l 1,2,-1
 187 248 l 1,3,-1
 394 427 l 1,4,-1
 394 565 l 1,5,-1
 491 565 l 1,6,-1
 491 0 l 1,7,-1
 394 0 l 1,8,-1
 394 316 l 1,9,-1
 187 136 l 1,10,-1
 187 0 l 1,11,-1
 90 0 l 1,0,-1
EndSplineSet
EndChar

StartChar: afii10029
Encoding: 1051 1051 364
Width: 600
GlyphClass: 2
Flags: W
LayerCount: 2
Fore
SplineSet
402 0 m 1,0,-1
 402 468 l 1,1,-1
 296 468 l 1,2,-1
 296 126 l 2,3,4
 296 59 296 59 255.5 29.5 c 128,-1,5
 215 0 215 0 150 0 c 0,6,7
 93 0 93 0 52.5 35 c 128,-1,8
 12 70 12 70 12 126 c 2,9,-1
 12 133 l 2,10,11
 12 164 12 164 20 177 c 1,12,13
 36 198 36 198 61 198 c 128,-1,14
 86 198 86 198 102 174 c 0,15,16
 109 164 109 164 109 136 c 0,17,18
 109 116 109 116 122.5 106.5 c 128,-1,19
 136 97 136 97 156 97 c 0,20,21
 173 97 173 97 186.5 108 c 128,-1,22
 200 119 200 119 200 136 c 2,23,-1
 200 565 l 1,24,-1
 499 565 l 1,25,-1
 499 0 l 1,26,-1
 402 0 l 1,0,-1
EndSplineSet
EndChar

StartChar: afii10030
Encoding: 1052 1052 365
Width: 660
GlyphClass: 2
Flags: W
LayerCount: 2
Fore
SplineSet
322 277 m 0,0,-1
590 583 m 1,1,-1
 590 0 l 1,2,-1
 490 0 l 1,3,-1
 490 389 l 1,4,-1
 379 138 l 1,5,-1
 288 138 l 1,6,7
 170 388 170 388 170 389 c 2,8,-1
 170 0 l 1,9,-1
 70 0 l 1,10,-1
 70 583 l 1,11,-1
 193 583 l 1,12,-1
 331 286 l 1,13,-1
 466 583 l 1,14,-1
 590 583 l 1,1,-1
EndSplineSet
EndChar

StartChar: afii10033
Encoding: 1055 1055 368
Width: 600
GlyphClass: 2
Flags: W
LayerCount: 2
Fore
SplineSet
90 0 m 1,0,-1
 90 565 l 1,1,-1
 491 565 l 1,2,-1
 491 0 l 1,3,-1
 394 0 l 1,4,-1
 394 468 l 1,5,-1
 187 468 l 1,6,-1
 187 0 l 1,7,-1
 90 0 l 1,0,-1
EndSplineSet
EndChar

